<svg width="27" height="26" viewBox="0 0 27 26" fill="none" xmlns="http://www.w3.org/2000/svg">
<g opacity="0.7">
<path d="M23.2409 17.8307C23.2828 18.5161 22.987 19.8589 22.1854 20.6356C22.0242 20.7779 21.8505 20.7138 21.9131 20.5169C22.1221 19.891 22.599 18.4434 22.3151 18.1343C22.1132 17.8988 21.3427 17.9648 20.688 18.0616C20.3901 18.1186 20.1272 18.1527 19.9252 18.2076C19.7365 18.2343 19.6881 18.0679 19.8696 17.9243C20.1058 17.7324 20.3704 17.5795 20.6538 17.4714C21.703 17.0817 22.9504 17.2013 23.1407 17.3978C23.1766 17.4354 23.2234 17.5451 23.2409 17.8307ZM21.5287 19.1589C21.2951 19.364 21.0482 19.553 20.7897 19.7245C18.8905 21.0471 16.3734 21.8331 14.1544 21.9689C10.5818 22.1874 7.30488 21.047 4.74367 18.9601C4.52494 18.8013 4.6817 18.5419 4.93351 18.6618C7.64036 20.048 10.9309 20.7855 14.2776 20.5808C16.3841 20.4519 18.6299 19.9134 20.7406 18.9214C20.8886 18.8546 21.053 18.766 21.1975 18.7023C21.5291 18.5259 21.8529 18.8912 21.5287 19.1589ZM15.1568 9.11172C15.0968 8.13037 15.1005 7.55011 14.7495 7.07386C14.44 6.68307 13.9351 6.46793 13.2533 6.54843C12.5139 6.63528 11.7474 7.17704 11.6 8.09348C11.5727 8.30332 11.4662 8.51422 11.2216 8.57365L8.94007 8.41986C8.77601 8.39204 8.52198 8.28173 8.5828 7.94872C8.91039 5.32562 11.0407 4.2879 13.1008 4.03984L13.5861 4.01017C14.7202 3.9408 16.198 4.18065 17.1832 4.9862C18.3801 5.98792 18.3472 7.43387 18.4428 8.99687L18.6692 12.6989C18.7371 13.8094 19.2116 14.2743 19.6932 14.8258C19.8267 15.0249 19.8834 15.2655 19.6901 15.4458C19.1368 16.0111 18.5744 16.5672 18.0033 17.114C17.8483 17.2493 17.5572 17.2804 17.4388 17.1911C16.6858 16.6268 16.4904 16.3 16.0092 15.7097C15.2878 16.578 14.6676 17.071 13.9119 17.3642C13.3785 17.5368 12.8253 17.6393 12.2659 17.6693C10.323 17.7881 8.70928 16.6538 8.56071 14.2245C8.44258 12.2929 9.37557 10.9178 10.8343 10.205C12.293 9.49126 14.4562 9.16025 15.1569 9.11361M15.0129 14.0352C15.446 13.1836 15.3649 12.513 15.2727 11.0056C14.6665 11.0427 14.0611 11.1223 13.5436 11.2798C12.5896 11.6248 11.8558 12.2914 11.9363 13.6065C11.9991 14.634 12.5699 15.3012 13.4605 15.2467C13.5832 15.2392 13.6901 15.2175 13.7814 15.1845C14.3936 14.9711 14.7628 14.6306 15.0129 14.0352Z" fill="black"/>
</g>
</svg>
