<svg width="18" height="21" viewBox="0 0 18 21" fill="none" xmlns="http://www.w3.org/2000/svg">
<path d="M15.0884 19.2082C14.0373 20.3275 12.8093 20.236 11.6065 19.8098C10.3348 19.3768 9.19531 19.4242 7.91892 20.0354C6.32193 20.8216 5.44475 20.6753 4.41248 19.8611C-1.48207 14.6355 -1.18094 6.11011 5.10549 5.41468C6.64673 5.39816 7.76193 6.07403 8.66513 6.08543C9.99191 5.73775 11.2313 4.89566 12.6715 4.90753C14.3982 4.93519 15.7363 5.5197 16.663 6.66243C13.2385 8.94863 14.3589 13.4445 17.6918 14.5179C17.1446 16.2172 16.4032 17.9173 15.0777 19.22L15.0884 19.2082ZM8.49312 5.14086C8.1715 2.68397 10.1071 0.522149 12.4622 0.178208C12.9669 3.01261 10.1035 5.32002 8.49312 5.14086Z" fill="black"/>
</svg>
