<svg width="26" height="27" viewBox="0 0 26 27" fill="none" xmlns="http://www.w3.org/2000/svg">
<rect x="0.426514" y="2.33984" width="23.9465" height="23.9465" rx="4.35391" transform="rotate(-3.49977 0.426514 2.33984)" fill="#EFF9FF"/>
<path d="M19.9237 9.09337C19.8909 8.55824 19.647 8.05803 19.2454 7.70278C18.8439 7.34754 18.3177 7.16634 17.7826 7.19907L17.2782 7.22992L17.2482 6.73968C17.2316 6.46824 17.0086 6.24802 16.7364 6.25107C16.668 6.25195 16.6004 6.26672 16.5379 6.29447C16.4754 6.32221 16.4191 6.36237 16.3726 6.4125C16.326 6.46262 16.2901 6.52168 16.2671 6.58609C16.244 6.6505 16.2343 6.71891 16.2385 6.7872L16.2693 7.29162L9.2074 7.72352L9.17742 7.23328C9.16082 6.96184 8.93786 6.74162 8.66559 6.74467C8.59719 6.74555 8.52968 6.76031 8.46715 6.78806C8.40462 6.81581 8.34837 6.85596 8.30182 6.90609C8.25527 6.95622 8.21938 7.01528 8.19633 7.07968C8.17327 7.14409 8.16354 7.21251 8.16771 7.28079L8.19856 7.78522L7.69413 7.81607C7.15901 7.84879 6.6588 8.09276 6.30355 8.49429C5.94831 8.89583 5.76712 9.42204 5.79984 9.95716L5.82298 10.3355C5.82503 10.3689 5.84027 10.4002 5.86537 10.4224C5.89046 10.4446 5.92335 10.4559 5.9568 10.4539L19.8284 9.60551C19.8619 9.60346 19.8931 9.58821 19.9153 9.56312C19.9375 9.53802 19.9489 9.50513 19.9468 9.47169L19.9237 9.09337ZM6.35514 19.0368C6.38787 19.5719 6.63183 20.0721 7.03337 20.4274C7.4349 20.7826 7.96111 20.9638 8.49623 20.9311L18.5847 20.3141C19.1198 20.2814 19.62 20.0374 19.9753 19.6359C20.3305 19.2343 20.5117 18.7081 20.479 18.173L20.022 10.7012C20.0205 10.6761 20.009 10.6527 19.9902 10.636C19.9714 10.6194 19.9467 10.6109 19.9216 10.6124L5.98697 11.4647C5.96189 11.4662 5.93844 11.4776 5.92179 11.4964C5.90514 11.5153 5.89664 11.5399 5.89818 11.565L6.35514 19.0368ZM16.7992 11.816C16.9488 11.8069 17.0978 11.8423 17.2273 11.9178C17.3569 11.9934 17.4611 12.1056 17.5268 12.2403C17.5925 12.3751 17.6168 12.5263 17.5966 12.6749C17.5764 12.8234 17.5125 12.9627 17.4132 13.075C17.3138 13.1872 17.1834 13.2675 17.0385 13.3057C16.8935 13.3439 16.7404 13.3382 16.5987 13.2894C16.4569 13.2406 16.3328 13.1508 16.242 13.0315C16.1513 12.9121 16.098 12.7686 16.0888 12.6189C16.0765 12.4183 16.1445 12.2209 16.2777 12.0703C16.4109 11.9198 16.5985 11.8283 16.7992 11.816ZM16.9534 14.3381C17.1031 14.329 17.2521 14.3644 17.3816 14.4399C17.5111 14.5155 17.6153 14.6277 17.681 14.7625C17.7468 14.8972 17.771 15.0484 17.7508 15.197C17.7306 15.3456 17.6668 15.4848 17.5674 15.5971C17.4681 15.7094 17.3377 15.7897 17.1927 15.8278C17.0477 15.866 16.8947 15.8603 16.7529 15.8115C16.6111 15.7627 16.487 15.673 16.3963 15.5536C16.3055 15.4343 16.2522 15.2907 16.2431 15.141C16.2308 14.9404 16.2987 14.743 16.432 14.5925C16.5652 14.4419 16.7528 14.3504 16.9534 14.3381ZM14.2771 11.9703C14.4267 11.9611 14.5757 11.9965 14.7052 12.0721C14.8347 12.1476 14.9389 12.2598 15.0047 12.3946C15.0704 12.5293 15.0947 12.6806 15.0745 12.8291C15.0542 12.9777 14.9904 13.1169 14.8911 13.2292C14.7917 13.3415 14.6613 13.4218 14.5163 13.46C14.3713 13.4981 14.2183 13.4925 14.0765 13.4436C13.9348 13.3948 13.8107 13.3051 13.7199 13.1857C13.6292 13.0664 13.5759 12.9228 13.5667 12.7732C13.5544 12.5725 13.6224 12.3752 13.7556 12.2246C13.8888 12.074 14.0764 11.9825 14.2771 11.9703ZM14.4313 14.4924C14.581 14.4832 14.73 14.5187 14.8595 14.5942C14.989 14.6697 15.0932 14.782 15.1589 14.9167C15.2246 15.0515 15.2489 15.2027 15.2287 15.3512C15.2085 15.4998 15.1447 15.639 15.0453 15.7513C14.946 15.8636 14.8156 15.9439 14.6706 15.9821C14.5256 16.0203 14.3725 16.0146 14.2308 15.9658C14.089 15.917 13.9649 15.8272 13.8742 15.7079C13.7834 15.5885 13.7301 15.4449 13.721 15.2953C13.7087 15.0946 13.7766 14.8973 13.9098 14.7467C14.0431 14.5961 14.2306 14.5047 14.4313 14.4924ZM14.5856 17.0145C14.7352 17.0054 14.8842 17.0408 15.0137 17.1163C15.1432 17.1918 15.2474 17.3041 15.3132 17.4388C15.3789 17.5736 15.4032 17.7248 15.383 17.8734C15.3627 18.0219 15.2989 18.1612 15.1996 18.2734C15.1002 18.3857 14.9698 18.466 14.8248 18.5042C14.6798 18.5424 14.5268 18.5367 14.385 18.4879C14.2433 18.4391 14.1192 18.3493 14.0284 18.23C13.9377 18.1106 13.8844 17.9671 13.8752 17.8174C13.8629 17.6167 13.9309 17.4194 14.0641 17.2688C14.1973 17.1183 14.3849 17.0268 14.5856 17.0145ZM11.9092 14.6466C12.0588 14.6375 12.2079 14.6729 12.3374 14.7484C12.4669 14.824 12.5711 14.9362 12.6368 15.071C12.7025 15.2057 12.7268 15.3569 12.7066 15.5055C12.6864 15.6541 12.6226 15.7933 12.5232 15.9056C12.4239 16.0179 12.2935 16.0982 12.1485 16.1363C12.0035 16.1745 11.8504 16.1688 11.7087 16.12C11.5669 16.0712 11.4428 15.9815 11.3521 15.8621C11.2613 15.7428 11.208 15.5992 11.1988 15.4495C11.1866 15.2489 11.2545 15.0515 11.3877 14.901C11.521 14.7504 11.7085 14.6589 11.9092 14.6466ZM12.0635 17.1688C12.2131 17.1596 12.3621 17.195 12.4916 17.2706C12.6211 17.3461 12.7253 17.4583 12.7911 17.5931C12.8568 17.7278 12.8811 17.8791 12.8608 18.0276C12.8406 18.1762 12.7768 18.3154 12.6775 18.4277C12.5781 18.54 12.4477 18.6203 12.3027 18.6585C12.1577 18.6966 12.0047 18.691 11.8629 18.6421C11.7212 18.5933 11.5971 18.5036 11.5063 18.3842C11.4156 18.2649 11.3622 18.1213 11.3531 17.9717C11.3408 17.771 11.4088 17.5737 11.542 17.4231C11.6752 17.2725 11.8628 17.181 12.0635 17.1688ZM9.38709 14.8009C9.53674 14.7917 9.68574 14.8272 9.81525 14.9027C9.94476 14.9782 10.049 15.0905 10.1147 15.2252C10.1804 15.36 10.2047 15.5112 10.1845 15.6597C10.1643 15.8083 10.1005 15.9475 10.0011 16.0598C9.90176 16.1721 9.77135 16.2524 9.62636 16.2906C9.48137 16.3288 9.32832 16.3231 9.18656 16.2743C9.0448 16.2255 8.9207 16.1357 8.82995 16.0164C8.7392 15.897 8.68588 15.7534 8.67673 15.6038C8.66446 15.4031 8.7324 15.2058 8.86562 15.0552C8.99884 14.9046 9.18642 14.8132 9.38709 14.8009ZM9.54134 17.323C9.69099 17.3139 9.83999 17.3493 9.9695 17.4248C10.099 17.5003 10.2032 17.6126 10.2689 17.7473C10.3347 17.8821 10.359 18.0333 10.3387 18.1819C10.3185 18.3304 10.2547 18.4697 10.1554 18.5819C10.056 18.6942 9.9256 18.7745 9.78061 18.8127C9.63562 18.8509 9.48257 18.8452 9.34081 18.7964C9.19905 18.7476 9.07495 18.6578 8.9842 18.5385C8.89345 18.4191 8.84013 18.2756 8.83098 18.1259C8.81871 17.9252 8.88665 17.7279 9.01987 17.5773C9.15309 17.4268 9.34067 17.3353 9.54134 17.323Z" fill="#0069AB"/>
</svg>
