<svg width="13" height="14" viewBox="0 0 13 14" fill="none" xmlns="http://www.w3.org/2000/svg">
<path d="M3.18416 1.50324C3.1781 1.40419 3.13294 1.31161 3.05862 1.24585C2.9843 1.18009 2.8869 1.14656 2.78785 1.15262C2.6888 1.15867 2.59622 1.20383 2.53046 1.27815C2.4647 1.35247 2.43117 1.44987 2.43722 1.54892L2.46007 1.92239L1.71313 1.96807C1.31693 1.9923 0.946589 2.17293 0.683568 2.47022C0.420548 2.76751 0.286397 3.1571 0.310628 3.5533L0.35631 4.30023L12.3072 3.56933L12.2616 2.8224C12.2373 2.4262 12.0567 2.05585 11.7594 1.79283C11.4621 1.52981 11.0725 1.39566 10.6763 1.41989L9.9294 1.46557L9.90656 1.09211C9.9005 0.993059 9.85534 0.900473 9.78102 0.834717C9.7067 0.768962 9.6093 0.735425 9.51025 0.741482C9.4112 0.74754 9.31861 0.792697 9.25286 0.867019C9.1871 0.941341 9.15357 1.03874 9.15963 1.13779L9.18247 1.51126L3.207 1.87671L3.18416 1.50324ZM7.6643 8.53608C8.13114 8.50753 8.52656 8.12048 8.49477 7.60061C8.45676 6.97917 8.04495 6.70596 7.57214 6.73488C7.13443 6.76165 6.7174 7.0773 6.75499 7.69202C6.79232 8.30227 7.2154 8.56354 7.6643 8.53608Z" fill="#00A4F4"/>
<path d="M12.7642 11.0384L12.353 4.31597L0.4021 5.04688L0.813232 11.7693C0.837463 12.1655 1.01809 12.5358 1.31538 12.7988C1.61267 13.0619 2.00226 13.196 2.39846 13.1718L11.3617 12.6236C11.7579 12.5994 12.1282 12.4187 12.3912 12.1215C12.6542 11.8242 12.7884 11.4346 12.7642 11.0384ZM7.73133 10.439C6.90223 10.4897 6.45937 9.94175 6.39503 9.46586L6.90518 9.43466C6.9542 9.70907 7.2317 10.0295 7.72767 9.99914C8.35808 9.96058 8.66069 9.30631 8.60356 8.32316L8.58339 8.32439C8.48803 8.64061 8.14369 8.94357 7.58647 8.97765C6.95009 9.01657 6.30675 8.59858 6.25376 7.73214C6.20182 6.88288 6.8217 6.34115 7.51336 6.29885C8.38877 6.24531 9.00565 6.75788 9.094 8.20245C9.17645 9.55066 8.67092 10.3808 7.73128 10.4383L7.73133 10.439ZM5.32441 6.51144L5.56799 10.4941L5.06306 10.525L4.85256 7.0831L4.8436 7.08365C4.63411 7.21342 4.20781 7.51239 3.93945 7.72148L3.90765 7.20162C4.20896 6.96274 4.52416 6.74193 4.8516 6.54036L5.32441 6.51144Z" fill="#00A4F4"/>
</svg>
