<svg width="14" height="13" viewBox="0 0 14 13" fill="none" xmlns="http://www.w3.org/2000/svg">
<path d="M9.32318 9.18584L10.2893 8.09339C10.4195 7.94797 10.5892 7.84351 10.7776 7.79268C10.966 7.74184 11.1652 7.74683 11.3509 7.80704L12.6357 8.2313C12.8235 8.29449 12.9883 8.41187 13.1095 8.56865C13.2307 8.72543 13.3028 8.91459 13.3167 9.11229L13.4573 11.4103C13.4644 11.5449 13.4443 11.6796 13.398 11.8062C13.3518 11.9329 13.2804 12.0488 13.1882 12.1471C13.096 12.2454 12.9848 12.3241 12.8615 12.3783C12.7381 12.4324 12.605 12.4611 12.4702 12.4625C3.64815 12.4531 1.41945 5.11599 0.909799 2.28697C0.885672 2.14799 0.891234 2.00548 0.926117 1.86881C0.961001 1.73213 1.02442 1.6044 1.11219 1.49401C1.19996 1.38362 1.31011 1.29307 1.43538 1.22833C1.56065 1.16358 1.6982 1.1261 1.83899 1.11836L4.05797 0.982651C4.25602 0.971128 4.45299 1.01914 4.62354 1.12052C4.7941 1.22189 4.93044 1.37199 5.01503 1.55151L5.59253 2.7756C5.6772 2.95175 5.70811 3.14896 5.68141 3.34258C5.65471 3.5362 5.57157 3.71765 5.44238 3.86427L4.47625 4.95672C4.47625 4.95672 5.31428 8.93279 9.32318 9.18584Z" fill="#00A4F4"/>
</svg>
