<svg width="66" height="37" viewBox="0 0 66 37" fill="none" xmlns="http://www.w3.org/2000/svg">
<g opacity="0.3">
<path d="M20.4741 3.01939C19.768 3.06258 19.207 3.69668 19.2501 4.40287C19.2933 5.10906 19.9274 5.67006 20.6336 5.62687C21.3398 5.58368 21.9008 4.94959 21.8576 4.2434C21.8144 3.53721 21.1803 2.9762 20.4741 3.01939Z" fill="#00A4F4"/>
<path d="M14.4446 3.38804C13.7384 3.43123 13.1774 4.06533 13.2206 4.77153C13.2638 5.47772 13.8979 6.03871 14.6041 5.99552C15.3103 5.95233 15.8713 5.31825 15.8281 4.61206C15.8392 3.90254 15.2051 3.34153 14.4446 3.38804Z" fill="#00A4F4"/>
<path d="M8.46927 3.75376C7.76307 3.79695 7.20207 4.43106 7.24526 5.13725C7.28845 5.84344 7.92254 6.40444 8.62874 6.36125C9.33493 6.31806 9.89593 5.68397 9.85274 4.97778C9.80955 4.27159 9.17546 3.71057 8.46927 3.75376Z" fill="#00A4F4"/>
<path d="M20.8562 9.26694C20.15 9.31013 19.589 9.94423 19.6322 10.6504C19.6754 11.3566 20.3095 11.9176 21.0157 11.8744C21.7219 11.8312 22.2829 11.1971 22.2397 10.4909C22.1965 9.78476 21.5624 9.22376 20.8562 9.26694Z" fill="#00A4F4"/>
<path d="M14.8267 9.6356C14.1205 9.67879 13.5595 10.3129 13.6027 11.0191C13.6459 11.7253 14.28 12.2863 14.9862 12.2431C15.6923 12.1999 16.2534 11.5658 16.2102 10.8596C16.167 10.1534 15.5872 9.58909 14.8267 9.6356Z" fill="#00A4F4"/>
<path d="M8.85135 10.0008C8.14515 10.044 7.58415 10.6781 7.62734 11.3843C7.67053 12.0905 8.30462 12.6515 9.01082 12.6083C9.71701 12.5651 10.278 11.931 10.2348 11.2248C10.1916 10.5186 9.55754 9.95764 8.85135 10.0008Z" fill="#00A4F4"/>
<path d="M22.6218 16.738C22.5777 16.018 21.9584 15.47 21.2383 15.514C20.5183 15.5581 19.9703 16.1774 20.0143 16.8975C20.0583 17.6175 20.6777 18.1655 21.3978 18.1215C22.1178 18.0775 22.6658 17.4581 22.6218 16.738Z" fill="#00A4F4"/>
<path d="M16.5922 17.1072C16.5482 16.3871 15.9288 15.8391 15.2088 15.8832C14.4887 15.9272 13.9407 16.5466 13.9848 17.2666C14.0288 17.9867 14.6482 18.5347 15.3682 18.4906C16.0883 18.4466 16.6363 17.8272 16.5922 17.1072Z" fill="#00A4F4"/>
<path d="M10.6169 17.4724C10.5729 16.7523 9.95347 16.2044 9.23343 16.2484C8.51338 16.2924 7.96539 16.9118 8.00942 17.6319C8.05346 18.3519 8.67285 18.8999 9.3929 18.8559C10.1129 18.8118 10.6609 18.1924 10.6169 17.4724Z" fill="#00A4F4"/>
<path d="M21.6172 21.7069C20.911 21.7501 20.35 22.3842 20.3932 23.0904C20.4364 23.7966 21.0705 24.3576 21.7767 24.3144C22.4829 24.2712 23.0439 23.6371 23.0007 22.9309C22.9575 22.2247 22.3234 21.6637 21.6172 21.7069Z" fill="#00A4F4"/>
<path d="M15.5874 22.076C14.8812 22.1192 14.3202 22.7533 14.3634 23.4595C14.4066 24.1657 15.0407 24.7267 15.7469 24.6835C16.4531 24.6403 17.0141 24.0062 16.9709 23.3C16.9277 22.5938 16.3479 22.0295 15.5874 22.076Z" fill="#00A4F4"/>
<path d="M9.61209 22.4413C8.9059 22.4845 8.34489 23.1185 8.38808 23.8247C8.43127 24.5309 9.06537 25.0919 9.77156 25.0487C10.4777 25.0055 11.0388 24.3715 10.9956 23.6653C10.9524 22.9591 10.3183 22.3981 9.61209 22.4413Z" fill="#00A4F4"/>
<path d="M21.9993 27.954C21.2931 27.9971 20.7321 28.6312 20.7753 29.3374C20.8185 30.0436 21.4526 30.6046 22.1588 30.5614C22.865 30.5182 23.426 29.8842 23.3828 29.178C23.3396 28.4718 22.7055 27.9108 21.9993 27.954Z" fill="#00A4F4"/>
<path d="M15.9695 28.3226C15.2633 28.3658 14.7023 28.9999 14.7455 29.7061C14.7887 30.4123 15.4228 30.9733 16.129 30.9301C16.8352 30.8869 17.3962 30.2528 17.353 29.5466C17.3641 28.8371 16.73 28.2761 15.9695 28.3226Z" fill="#00A4F4"/>
<path d="M9.99417 28.6883C9.28798 28.7315 8.72697 29.3656 8.77016 30.0718C8.81335 30.778 9.44745 31.339 10.1536 31.2958C10.8598 31.2526 11.4208 30.6185 11.3776 29.9123C11.3345 29.2061 10.7004 28.6451 9.99417 28.6883Z" fill="#00A4F4"/>
<path d="M62.6829 3.11027C63.3891 3.06708 63.9501 2.43298 63.9069 1.72679C63.8638 1.0206 63.2297 0.459595 62.5235 0.502785C61.8173 0.545974 61.2563 1.18007 61.2995 1.88626C61.3427 2.59245 61.9224 3.15678 62.6829 3.11027Z" fill="#00A4F4"/>
<path d="M56.491 0.816749C55.7848 0.859939 55.2238 1.49404 55.267 2.20024C55.3102 2.90643 55.9443 3.46742 56.6505 3.42423C57.3567 3.38104 57.9177 2.74696 57.8745 2.04077C57.8313 1.33457 57.2515 0.770237 56.491 0.816749Z" fill="#00A4F4"/>
<path d="M50.5149 1.18198C49.8087 1.22517 49.2477 1.85928 49.2909 2.56547C49.3341 3.27166 49.9682 3.83266 50.6744 3.78947C51.3806 3.74628 51.9416 3.11219 51.8984 2.406C51.8552 1.69981 51.2211 1.13879 50.5149 1.18198Z" fill="#00A4F4"/>
<path d="M44.4849 1.55112C43.7787 1.59431 43.2177 2.22842 43.2609 2.93461C43.3041 3.6408 43.9382 4.2018 44.6444 4.15861C45.3506 4.11542 45.9116 3.48133 45.8684 2.77514C45.8252 2.06895 45.2454 1.50461 44.4849 1.55112Z" fill="#00A4F4"/>
<path d="M38.5093 1.91636C37.8031 1.95955 37.2421 2.59365 37.2853 3.29985C37.3285 4.00604 37.9626 4.56703 38.6688 4.52384C39.375 4.48065 39.936 3.84657 39.8928 3.14038C39.8496 2.43418 39.2155 1.87317 38.5093 1.91636Z" fill="#00A4F4"/>
<path d="M32.4798 2.28501C31.7736 2.3282 31.2126 2.96231 31.2558 3.6685C31.299 4.37469 31.933 4.93569 32.6392 4.8925C33.3454 4.84931 33.9064 4.21522 33.8632 3.50903C33.82 2.80284 33.186 2.24182 32.4798 2.28501Z" fill="#00A4F4"/>
<path d="M26.4497 2.65415C25.7435 2.69734 25.1825 3.33145 25.2257 4.03764C25.2689 4.74383 25.903 5.30483 26.6092 5.26164C27.3154 5.21845 27.8764 4.58436 27.8332 3.87817C27.8443 3.16865 27.2102 2.60764 26.4497 2.65415Z" fill="#00A4F4"/>
<path d="M62.9021 6.69517C62.1959 6.73836 61.6349 7.37245 61.6781 8.07864C61.7213 8.78483 62.3554 9.34583 63.0616 9.30264C63.7678 9.25946 64.3288 8.62536 64.2856 7.91917C64.2424 7.21298 63.6083 6.65198 62.9021 6.69517Z" fill="#00A4F4"/>
<path d="M56.8731 7.06382C56.1669 7.10701 55.6059 7.7411 55.6491 8.44729C55.6923 9.15348 56.3264 9.71449 57.0325 9.6713C57.7387 9.62811 58.2997 8.99402 58.2565 8.28782C58.2134 7.58163 57.6336 7.01731 56.8731 7.06382Z" fill="#00A4F4"/>
<path d="M50.897 7.42954C50.1908 7.47273 49.6298 8.10682 49.673 8.81302C49.7162 9.51921 50.3503 10.0802 51.0565 10.037C51.7627 9.99383 52.3237 9.35974 52.2805 8.65355C52.2373 7.94735 51.6032 7.38635 50.897 7.42954Z" fill="#00A4F4"/>
<path d="M44.867 7.79819C44.1608 7.84138 43.5998 8.47548 43.643 9.18167C43.6862 9.88786 44.3202 10.4489 45.0264 10.4057C45.7326 10.3625 46.2936 9.72839 46.2504 9.0222C46.2073 8.31601 45.6275 7.75168 44.867 7.79819Z" fill="#00A4F4"/>
<path d="M38.8914 8.16392C38.1852 8.20711 37.6242 8.8412 37.6674 9.54739C37.7106 10.2536 38.3447 10.8146 39.0509 10.7714C39.757 10.7282 40.318 10.0941 40.2749 9.38792C40.2317 8.68173 39.5976 8.12073 38.8914 8.16392Z" fill="#00A4F4"/>
<path d="M32.8618 8.53257C32.1557 8.57576 31.5947 9.20985 31.6378 9.91604C31.681 10.6222 32.3151 11.1832 33.0213 11.14C33.7275 11.0969 34.2885 10.4628 34.2453 9.75657C34.2021 9.05038 33.568 8.48938 32.8618 8.53257Z" fill="#00A4F4"/>
<path d="M26.8318 8.90122C26.1256 8.94441 25.5646 9.5785 25.6078 10.2847C25.651 10.9909 26.2851 11.5519 26.9913 11.5087C27.6975 11.4655 28.2585 10.8314 28.2153 10.1252C28.1721 9.41903 27.5923 8.85471 26.8318 8.90122Z" fill="#00A4F4"/>
<path d="M63.2842 12.9427C62.578 12.9859 62.017 13.62 62.0602 14.3262C62.1034 15.0324 62.7375 15.5934 63.4437 15.5502C64.1499 15.507 64.7109 14.8729 64.6677 14.1667C64.6245 13.4605 63.9904 12.8995 63.2842 12.9427Z" fill="#00A4F4"/>
<path d="M57.2552 13.3114C56.549 13.3546 55.988 13.9887 56.0312 14.6949C56.0743 15.401 56.7084 15.962 57.4146 15.9189C58.1208 15.8757 58.6818 15.2416 58.6386 14.5354C58.5954 13.8292 58.0157 13.2649 57.2552 13.3114Z" fill="#00A4F4"/>
<path d="M51.2791 13.6771C50.5729 13.7203 50.0119 14.3544 50.0551 15.0606C50.0983 15.7668 50.7324 16.3278 51.4386 16.2846C52.1447 16.2414 52.7057 15.6073 52.6626 14.9011C52.6194 14.1949 51.9853 13.6339 51.2791 13.6771Z" fill="#00A4F4"/>
<path d="M45.2491 14.0458C44.5429 14.0889 43.9819 14.723 44.025 15.4292C44.0682 16.1354 44.7023 16.6964 45.4085 16.6532C46.1147 16.61 46.6757 15.9759 46.6325 15.2698C46.5893 14.5636 46.0096 13.9992 45.2491 14.0458Z" fill="#00A4F4"/>
<path d="M40.6569 15.635C40.6129 14.9149 39.9935 14.367 39.2735 14.411C38.5534 14.455 38.0054 15.0744 38.0495 15.7945C38.0935 16.5145 38.7129 17.0625 39.4329 17.0185C40.153 16.9744 40.701 16.355 40.6569 15.635Z" fill="#00A4F4"/>
<path d="M33.2439 14.7801C32.5377 14.8233 31.9767 15.4574 32.0199 16.1636C32.0631 16.8698 32.6972 17.4308 33.4034 17.3876C34.1096 17.3444 34.6706 16.7103 34.6274 16.0041C34.5842 15.2979 33.9501 14.7369 33.2439 14.7801Z" fill="#00A4F4"/>
<path d="M27.2139 15.1488C26.5077 15.192 25.9467 15.8261 25.9899 16.5323C26.0331 17.2384 26.6672 17.7994 27.3734 17.7563C28.0796 17.7131 28.6406 17.079 28.5974 16.3728C28.6085 15.6633 27.9744 15.1023 27.2139 15.1488Z" fill="#00A4F4"/>
<path d="M63.6629 19.1356C62.9567 19.1788 62.3957 19.8129 62.4389 20.5191C62.4821 21.2253 63.1161 21.7863 63.8223 21.7431C64.5285 21.6999 65.0895 21.0658 65.0463 20.3596C65.0032 19.6534 64.3691 19.0924 63.6629 19.1356Z" fill="#00A4F4"/>
<path d="M57.6338 19.5042C56.9276 19.5474 56.3666 20.1815 56.4098 20.8877C56.453 21.5939 57.0871 22.1549 57.7933 22.1117C58.4995 22.0685 59.0605 21.4344 59.0173 20.7283C58.9741 20.0221 58.3943 19.4577 57.6338 19.5042Z" fill="#00A4F4"/>
<path d="M51.6577 19.87C50.9516 19.9132 50.3905 20.5473 50.4337 21.2534C50.4769 21.9596 51.111 22.5206 51.8172 22.4774C52.5234 22.4343 53.0844 21.8002 53.0412 21.094C52.998 20.3878 52.3639 19.8268 51.6577 19.87Z" fill="#00A4F4"/>
<path d="M45.6277 20.2386C44.9215 20.2818 44.3605 20.9159 44.4037 21.6221C44.4469 22.3283 45.081 22.8893 45.7872 22.8461C46.4934 22.8029 47.0544 22.1688 47.0112 21.4626C46.968 20.7564 46.3882 20.1921 45.6277 20.2386Z" fill="#00A4F4"/>
<path d="M39.6521 20.6043C38.9459 20.6475 38.3849 21.2816 38.4281 21.9878C38.4713 22.694 39.1054 23.255 39.8116 23.2118C40.5178 23.1686 41.0788 22.5345 41.0356 21.8284C40.9924 21.1222 40.3583 20.5612 39.6521 20.6043Z" fill="#00A4F4"/>
<path d="M33.6226 20.973C32.9164 21.0162 32.3554 21.6503 32.3986 22.3565C32.4418 23.0627 33.0759 23.6237 33.7821 23.5805C34.4882 23.5373 35.0493 22.9032 35.0061 22.197C34.9629 21.4908 34.3288 20.9298 33.6226 20.973Z" fill="#00A4F4"/>
<path d="M27.5926 21.3417C26.8864 21.3848 26.3254 22.0189 26.3686 22.7251C26.4117 23.4313 27.0458 23.9923 27.752 23.9491C28.4582 23.9059 29.0192 23.2718 28.976 22.5657C28.9328 21.8595 28.3531 21.2951 27.5926 21.3417Z" fill="#00A4F4"/>
<path d="M64.045 25.3827C63.3388 25.4259 62.7778 26.0599 62.8209 26.7661C62.8641 27.4723 63.4982 28.0333 64.2044 27.9901C64.9106 27.947 65.4716 27.3129 65.4284 26.6067C65.3852 25.9005 64.7511 25.3395 64.045 25.3827Z" fill="#00A4F4"/>
<path d="M58.0159 25.7513C57.3097 25.7945 56.7487 26.4286 56.7919 27.1348C56.8351 27.841 57.4692 28.402 58.1754 28.3588C58.8816 28.3156 59.4426 27.6815 59.3994 26.9753C59.3562 26.2691 58.7764 25.7048 58.0159 25.7513Z" fill="#00A4F4"/>
<path d="M52.0398 26.117C51.3336 26.1602 50.7726 26.7943 50.8158 27.5005C50.859 28.2067 51.4931 28.7677 52.1993 28.7245C52.9055 28.6813 53.4665 28.0472 53.4233 27.341C53.3801 26.6349 52.746 26.0739 52.0398 26.117Z" fill="#00A4F4"/>
<path d="M46.0098 26.4857C45.3036 26.5289 44.7426 27.163 44.7858 27.8692C44.829 28.5754 45.4631 29.1364 46.1693 29.0932C46.8755 29.05 47.4365 28.4159 47.3933 27.7097C47.3501 27.0035 46.7703 26.4392 46.0098 26.4857Z" fill="#00A4F4"/>
<path d="M40.0342 26.8509C39.328 26.8941 38.767 27.5282 38.8102 28.2344C38.8534 28.9406 39.4875 29.5016 40.1937 29.4584C40.8999 29.4152 41.4609 28.7811 41.4177 28.0749C41.3745 27.3687 40.7404 26.8077 40.0342 26.8509Z" fill="#00A4F4"/>
<path d="M34.0047 27.2201C33.2985 27.2633 32.7375 27.8974 32.7807 28.6035C32.8239 29.3097 33.4579 29.8707 34.1641 29.8275C34.8703 29.7844 35.4313 29.1503 35.3881 28.4441C35.345 27.7379 34.7109 27.1769 34.0047 27.2201Z" fill="#00A4F4"/>
<path d="M27.9746 27.5887C27.2684 27.6319 26.7074 28.266 26.7506 28.9722C26.7938 29.6784 27.4279 30.2394 28.1341 30.1962C28.8403 30.153 29.4013 29.5189 29.3581 28.8127C29.3692 28.1032 28.7351 27.5422 27.9746 27.5887Z" fill="#00A4F4"/>
<path d="M14.3975 7.97153C13.6913 8.01472 13.1303 8.64881 13.1735 9.355C13.2167 10.0612 13.8508 10.6222 14.557 10.579C15.2631 10.5358 15.8242 9.90172 15.781 9.19553C15.7378 8.48934 15.1037 7.92835 14.3975 7.97153Z" fill="#0069AB"/>
<path d="M8.36795 8.34019C7.66176 8.38338 7.10075 9.01746 7.14394 9.72365C7.18713 10.4298 7.82122 10.9908 8.52742 10.9477C9.23361 10.9045 9.79461 10.2704 9.75142 9.56419C9.70823 8.85799 9.12846 8.29368 8.36795 8.34019Z" fill="#0069AB"/>
<path d="M2.39236 8.70591C1.68616 8.7491 1.12517 9.38319 1.16836 10.0894C1.21155 10.7956 1.84563 11.3566 2.55183 11.3134C3.25802 11.2702 3.81902 10.6361 3.77583 9.92991C3.73264 9.22372 3.09855 8.66272 2.39236 8.70591Z" fill="#0069AB"/>
<path d="M14.7796 14.2186C14.0734 14.2618 13.5124 14.8959 13.5556 15.6021C13.5988 16.3083 14.2328 16.8693 14.939 16.8261C15.6452 16.7829 16.2062 16.1488 16.163 15.4426C16.1199 14.7364 15.4858 14.1754 14.7796 14.2186Z" fill="#0069AB"/>
<path d="M8.75003 14.5873C8.04384 14.6304 7.48283 15.2645 7.52602 15.9707C7.56921 16.6769 8.20331 17.2379 8.9095 17.1947C9.61569 17.1515 10.1767 16.5175 10.1335 15.8113C10.0903 15.1051 9.51054 14.5407 8.75003 14.5873Z" fill="#0069AB"/>
<path d="M2.77444 14.9525C2.06824 14.9957 1.50725 15.6298 1.55044 16.336C1.59363 17.0422 2.22771 17.6032 2.93391 17.56C3.6401 17.5168 4.2011 16.8827 4.15791 16.1765C4.11472 15.4703 3.48063 14.9093 2.77444 14.9525Z" fill="#0069AB"/>
<path d="M15.1582 20.4115C14.452 20.4547 13.891 21.0888 13.9342 21.7949C13.9774 22.5011 14.6115 23.0621 15.3177 23.019C16.0239 22.9758 16.5849 22.3417 16.5417 21.6355C16.4985 20.9293 15.8644 20.3683 15.1582 20.4115Z" fill="#0069AB"/>
<path d="M9.12869 20.7801C8.4225 20.8233 7.8615 21.4574 7.90469 22.1636C7.94788 22.8698 8.58197 23.4308 9.28816 23.3876C9.99435 23.3444 10.5554 22.7103 10.5122 22.0041C10.469 21.2979 9.8892 20.7336 9.12869 20.7801Z" fill="#0069AB"/>
<path d="M3.15334 21.1459C2.44715 21.189 1.88615 21.8231 1.92934 22.5293C1.97253 23.2355 2.60662 23.7965 3.31281 23.7533C4.019 23.7101 4.58001 23.076 4.53682 22.3699C4.49363 21.6637 3.85953 21.1027 3.15334 21.1459Z" fill="#0069AB"/>
<path d="M15.5403 26.6585C14.8341 26.7017 14.2731 27.3358 14.3163 28.042C14.3595 28.7482 14.9936 29.3092 15.6998 29.266C16.406 29.2228 16.967 28.5887 16.9238 27.8826C16.8806 27.1764 16.2465 26.6154 15.5403 26.6585Z" fill="#0069AB"/>
<path d="M9.51077 27.0272C8.80458 27.0704 8.24358 27.7045 8.28677 28.4107C8.32996 29.1169 8.96405 29.6779 9.67024 29.6347C10.3764 29.5915 10.9374 28.9574 10.8942 28.2512C10.8511 27.545 10.2713 26.9807 9.51077 27.0272Z" fill="#0069AB"/>
<path d="M3.53518 27.3924C2.82899 27.4356 2.26799 28.0697 2.31118 28.7759C2.35437 29.4821 2.98846 30.0431 3.69465 29.9999C4.40084 29.9567 4.96184 29.3226 4.91865 28.6164C4.87546 27.9102 4.24137 27.3492 3.53518 27.3924Z" fill="#0069AB"/>
<path d="M15.9192 32.8514C15.213 32.8946 14.652 33.5287 14.6952 34.2349C14.7384 34.9411 15.3725 35.5021 16.0787 35.4589C16.7849 35.4157 17.3459 34.7816 17.3027 34.0754C17.2595 33.3692 16.6254 32.8082 15.9192 32.8514Z" fill="#0069AB"/>
<path d="M9.88943 33.2201C9.18324 33.2633 8.62224 33.8974 8.66543 34.6035C8.70862 35.3097 9.34271 35.8707 10.0489 35.8275C10.7551 35.7844 11.3161 35.1503 11.2729 34.4441C11.2297 33.7379 10.6499 33.1736 9.88943 33.2201Z" fill="#0069AB"/>
<path d="M3.91408 33.5853C3.20789 33.6285 2.6469 34.2626 2.69009 34.9688C2.73328 35.675 3.36736 36.236 4.07355 36.1928C4.77975 36.1496 5.34075 35.5155 5.29756 34.8093C5.25437 34.1031 4.62028 33.5421 3.91408 33.5853Z" fill="#0069AB"/>
<path d="M56.606 8.06144C57.3122 8.01825 57.8732 7.38416 57.83 6.67797C57.7868 5.97177 57.1528 5.41077 56.4466 5.45396C55.7404 5.49715 55.1794 6.13124 55.2226 6.83744C55.2657 7.54363 55.8455 8.10795 56.606 8.06144Z" fill="#0069AB"/>
<path d="M51.7971 6.9929C51.753 6.27286 51.1336 5.72486 50.4136 5.7689C49.6936 5.81293 49.1456 6.43233 49.1896 7.15237C49.2336 7.87241 49.853 8.42041 50.5731 8.37637C51.2931 8.33233 51.8411 7.71294 51.7971 6.9929Z" fill="#0069AB"/>
<path d="M44.4383 6.13413C43.7321 6.17732 43.1711 6.81141 43.2143 7.5176C43.2574 8.22379 43.8915 8.78479 44.5977 8.7416C45.3039 8.69841 45.8649 8.06432 45.8217 7.35813C45.7785 6.65194 45.1445 6.09094 44.4383 6.13413Z" fill="#0069AB"/>
<path d="M39.7917 7.72727C39.7477 7.00724 39.1283 6.45924 38.4082 6.50327C37.6882 6.54731 37.1402 7.16671 37.1842 7.88674C37.2283 8.60678 37.8477 9.15478 38.5677 9.11074C39.2877 9.06671 39.8357 8.44731 39.7917 7.72727Z" fill="#0069AB"/>
<path d="M33.7619 8.09592C33.7179 7.37589 33.0985 6.82789 32.3784 6.87193C31.6584 6.91596 31.1104 7.53536 31.1544 8.25539C31.1985 8.97544 31.8179 9.52343 32.5379 9.4794C33.258 9.43536 33.806 8.81597 33.7619 8.09592Z" fill="#0069AB"/>
<path d="M26.4031 7.23716C25.6969 7.28035 25.1359 7.91444 25.1791 8.62063C25.2223 9.32682 25.8564 9.88782 26.5626 9.84463C27.2688 9.80144 27.8298 9.16735 27.7866 8.46116C27.7434 7.75497 27.1093 7.19397 26.4031 7.23716Z" fill="#0069AB"/>
<path d="M21.7565 8.8303C21.7125 8.11027 21.0931 7.56226 20.3731 7.6063C19.653 7.65034 19.105 8.26974 19.1491 8.98977C19.1931 9.70981 19.8125 10.2578 20.5325 10.2138C21.2526 10.1697 21.8006 9.55034 21.7565 8.8303Z" fill="#0069AB"/>
<path d="M56.8255 11.6468C56.1193 11.69 55.5583 12.3241 55.6015 13.0303C55.6447 13.7365 56.2787 14.2975 56.9849 14.2543C57.6911 14.2111 58.2521 13.577 58.2089 12.8708C58.1658 12.1646 57.5317 11.6036 56.8255 11.6468Z" fill="#0069AB"/>
<path d="M52.1792 13.24C52.1351 12.5199 51.5157 11.9719 50.7957 12.016C50.0756 12.06 49.5276 12.6794 49.5717 13.3994C49.6157 14.1195 50.2351 14.6675 50.9552 14.6234C51.6752 14.5794 52.2232 13.96 52.1792 13.24Z" fill="#0069AB"/>
<path d="M44.8203 12.3812C44.1141 12.4244 43.5531 13.0585 43.5963 13.7647C43.6395 14.4709 44.2736 15.0319 44.9798 14.9887C45.686 14.9455 46.247 14.3114 46.2038 13.6052C46.1606 12.899 45.5265 12.338 44.8203 12.3812Z" fill="#0069AB"/>
<path d="M40.1735 13.9739C40.1295 13.2538 39.5101 12.7058 38.7901 12.7499C38.07 12.7939 37.522 13.4133 37.5661 14.1333C37.6101 14.8534 38.2295 15.4014 38.9495 15.3573C39.6696 15.3133 40.2176 14.6939 40.1735 13.9739Z" fill="#0069AB"/>
<path d="M34.144 14.343C34.1 13.623 33.4806 13.075 32.7605 13.119C32.0405 13.163 31.4925 13.7824 31.5365 14.5025C31.5806 15.2225 32.2 15.7705 32.92 15.7265C33.64 15.6824 34.188 15.063 34.144 14.343Z" fill="#0069AB"/>
<path d="M26.7852 13.4842C26.079 13.5274 25.518 14.1615 25.5612 14.8677C25.6044 15.5739 26.2385 16.1349 26.9447 16.0917C27.6508 16.0485 28.2118 15.4144 28.1687 14.7082C28.1255 14.002 27.4914 13.441 26.7852 13.4842Z" fill="#0069AB"/>
<path d="M22.1384 15.0769C22.0943 14.3568 21.475 13.8088 20.7549 13.8529C20.0349 13.8969 19.4869 14.5163 19.5309 15.2364C19.5749 15.9564 20.1943 16.5044 20.9144 16.4604C21.6344 16.4163 22.1824 15.7969 22.1384 15.0769Z" fill="#0069AB"/>
<path d="M57.2041 17.8402C56.4979 17.8834 55.9369 18.5175 55.9801 19.2237C56.0233 19.9299 56.6574 20.4909 57.3636 20.4477C58.0698 20.4045 58.6308 19.7704 58.5876 19.0642C58.5444 18.358 57.9103 17.797 57.2041 17.8402Z" fill="#0069AB"/>
<path d="M51.1743 18.2088C50.4682 18.252 49.9072 18.8861 49.9503 19.5923C49.9935 20.2985 50.6276 20.8595 51.3338 20.8163C52.04 20.7731 52.601 20.139 52.5578 19.4328C52.5146 18.7267 51.9349 18.1623 51.1743 18.2088Z" fill="#0069AB"/>
<path d="M45.199 18.5741C44.4928 18.6173 43.9318 19.2514 43.975 19.9575C44.0182 20.6637 44.6523 21.2247 45.3585 21.1816C46.0647 21.1384 46.6257 20.5043 46.5825 19.7981C46.5393 19.0919 45.9052 18.5309 45.199 18.5741Z" fill="#0069AB"/>
<path d="M39.169 18.9427C38.4628 18.9859 37.9018 19.62 37.945 20.3262C37.9882 21.0324 38.6223 21.5934 39.3284 21.5502C40.0346 21.507 40.5956 20.8729 40.5524 20.1667C40.5093 19.4605 39.8752 18.8995 39.169 18.9427Z" fill="#0069AB"/>
<path d="M33.1392 19.3119C32.433 19.3551 31.872 19.9891 31.9152 20.6953C31.9584 21.4015 32.5925 21.9625 33.2987 21.9193C34.0048 21.8762 34.5659 21.2421 34.5227 20.5359C34.5338 19.8264 33.8997 19.2654 33.1392 19.3119Z" fill="#0069AB"/>
<path d="M27.1638 19.6771C26.4577 19.7203 25.8967 20.3544 25.9398 21.0606C25.983 21.7668 26.6171 22.3278 27.3233 22.2846C28.0295 22.2414 28.5905 21.6073 28.5473 20.9011C28.5041 20.1949 27.87 19.6339 27.1638 19.6771Z" fill="#0069AB"/>
<path d="M21.1338 20.0458C20.4276 20.0889 19.8666 20.723 19.9098 21.4292C19.953 22.1354 20.5871 22.6964 21.2933 22.6532C21.9995 22.61 22.5605 21.9759 22.5173 21.2698C22.5284 20.5602 21.8943 19.9992 21.1338 20.0458Z" fill="#0069AB"/>
<path d="M57.5862 24.0868C56.88 24.13 56.319 24.7641 56.3622 25.4702C56.4054 26.1764 57.0395 26.7374 57.7457 26.6942C58.4519 26.6511 59.0129 26.017 58.9697 25.3108C58.9265 24.6046 58.2924 24.0436 57.5862 24.0868Z" fill="#0069AB"/>
<path d="M51.5564 24.4559C50.8502 24.4991 50.2892 25.1332 50.3324 25.8394C50.3756 26.5456 51.0097 27.1066 51.7159 27.0634C52.4221 27.0202 52.9831 26.3861 52.9399 25.6799C52.8967 24.9737 52.3169 24.4094 51.5564 24.4559Z" fill="#0069AB"/>
<path d="M45.5811 24.8211C44.8749 24.8643 44.3139 25.4984 44.3571 26.2046C44.4003 26.9108 45.0344 27.4718 45.7406 27.4286C46.4467 27.3854 47.0077 26.7513 46.9646 26.0451C46.9214 25.339 46.2873 24.778 45.5811 24.8211Z" fill="#0069AB"/>
<path d="M39.5511 25.1898C38.8449 25.233 38.2839 25.8671 38.327 26.5733C38.3702 27.2795 39.0043 27.8405 39.7105 27.7973C40.4167 27.7541 40.9777 27.12 40.9345 26.4138C40.8913 25.7076 40.2572 25.1466 39.5511 25.1898Z" fill="#0069AB"/>
<path d="M33.5213 25.5584C32.8151 25.6016 32.2541 26.2357 32.2973 26.9419C32.3405 27.6481 32.9745 28.2091 33.6807 28.1659C34.3869 28.1227 34.9479 27.4886 34.9047 26.7825C34.9159 26.0729 34.2818 25.5119 33.5213 25.5584Z" fill="#0069AB"/>
<path d="M27.5459 25.9242C26.8397 25.9674 26.2787 26.6015 26.3219 27.3076C26.3651 28.0138 26.9992 28.5748 27.7054 28.5316C28.4116 28.4885 28.9726 27.8544 28.9294 27.1482C28.8862 26.442 28.2521 25.881 27.5459 25.9242Z" fill="#0069AB"/>
<path d="M21.5159 26.2928C20.8097 26.336 20.2487 26.9701 20.2919 27.6763C20.3351 28.3825 20.9692 28.9435 21.6754 28.9003C22.3816 28.8571 22.9426 28.223 22.8994 27.5168C22.9105 26.8073 22.2764 26.2463 21.5159 26.2928Z" fill="#0069AB"/>
<path d="M57.9649 30.2796C57.2587 30.3228 56.6977 30.9569 56.7409 31.6631C56.7841 32.3693 57.4182 32.9303 58.1243 32.8871C58.8305 32.8439 59.3915 32.2098 59.3483 31.5036C59.3052 30.7975 58.6711 30.2365 57.9649 30.2796Z" fill="#0069AB"/>
<path d="M51.9353 30.6488C51.2291 30.692 50.6681 31.3261 50.7113 32.0323C50.7545 32.7384 51.3886 33.2994 52.0948 33.2563C52.801 33.2131 53.362 32.579 53.3188 31.8728C53.2756 31.1666 52.6958 30.6023 51.9353 30.6488Z" fill="#0069AB"/>
<path d="M45.9597 31.014C45.2536 31.0572 44.6926 31.6913 44.7357 32.3975C44.7789 33.1037 45.413 33.6647 46.1192 33.6215C46.8254 33.5783 47.3864 32.9442 47.3432 32.238C47.3 31.5318 46.6659 30.9708 45.9597 31.014Z" fill="#0069AB"/>
<path d="M39.9297 31.3827C39.2235 31.4259 38.6625 32.0599 38.7057 32.7661C38.7489 33.4723 39.383 34.0333 40.0892 33.9901C40.7954 33.947 41.3564 33.3129 41.3132 32.6067C41.27 31.9005 40.6359 31.3395 39.9297 31.3827Z" fill="#0069AB"/>
<path d="M33.9002 31.7518C33.194 31.795 32.633 32.4291 32.6762 33.1353C32.7194 33.8415 33.3535 34.4025 34.0596 34.3593C34.7658 34.3161 35.3268 33.682 35.2836 32.9758C35.2405 32.2696 34.6607 31.7053 33.9002 31.7518Z" fill="#0069AB"/>
<path d="M27.9246 32.117C27.2184 32.1602 26.6574 32.7943 26.7006 33.5005C26.7438 34.2067 27.3779 34.7677 28.0841 34.7245C28.7903 34.6813 29.3513 34.0472 29.3081 33.341C29.2649 32.6349 28.6308 32.0739 27.9246 32.117Z" fill="#0069AB"/>
<path d="M21.8946 32.4857C21.1884 32.5289 20.6274 33.163 20.6706 33.8692C20.7137 34.5754 21.3478 35.1364 22.054 35.0932C22.7602 35.05 23.3212 34.4159 23.278 33.7097C23.2348 33.0035 22.6551 32.4392 21.8946 32.4857Z" fill="#0069AB"/>
</g>
</svg>
