<svg width="16" height="13" viewBox="0 0 16 13" fill="none" xmlns="http://www.w3.org/2000/svg">
<path d="M13.2796 0.509292L1.69079 1.21805C0.894057 1.26677 0.289298 1.95807 0.338025 2.7548L0.862347 11.4468C0.911074 12.2436 1.60281 12.8556 2.39954 12.8068L13.9883 12.0981C14.7851 12.0494 15.3971 11.3576 15.3483 10.5609L14.8168 1.8693C14.768 1.07257 14.0763 0.460565 13.2796 0.509292ZM13.1781 3.60528L8.25311 7.11987C8.0302 7.2789 7.72599 7.29751 7.48536 7.16682L2.16877 4.2786C2.09365 4.24227 2.02668 4.19108 1.97192 4.12812C1.91715 4.06516 1.87573 3.99174 1.85017 3.91231C1.8246 3.83288 1.81541 3.74909 1.82317 3.66601C1.83092 3.58292 1.85545 3.50228 1.89527 3.42895C1.9351 3.35562 1.98938 3.29114 2.05485 3.2394C2.12032 3.18766 2.1956 3.14974 2.27615 3.12794C2.35669 3.10614 2.44082 3.1009 2.52345 3.11256C2.60607 3.12421 2.68548 3.15251 2.75685 3.19574L7.79526 5.93376L12.4625 2.60216C12.528 2.55055 12.6034 2.51279 12.684 2.49115C12.7646 2.46952 12.8487 2.46446 12.9313 2.47628C13.0139 2.48811 13.0933 2.51657 13.1645 2.55994C13.2358 2.60332 13.2976 2.66071 13.346 2.72864C13.3945 2.79657 13.4287 2.87362 13.4465 2.95514C13.4643 3.03666 13.4654 3.12095 13.4497 3.2029C13.434 3.28485 13.4018 3.36277 13.3552 3.43193C13.3085 3.5011 13.2482 3.56007 13.1781 3.60528Z" fill="#00A4F4"/>
</svg>
