<svg width="222" height="66" viewBox="0 0 222 66" fill="none" xmlns="http://www.w3.org/2000/svg">
<g filter="url(#filter0_d_2001_1142)">
<rect x="19.3862" y="22.1289" width="190.893" height="23.9465" rx="5.44239" transform="rotate(-3.49977 19.3862 22.1289)" fill="white" shape-rendering="crispEdges"/>
<rect x="32.6895" y="25.6777" width="15.2387" height="15.2387" rx="2.17696" transform="rotate(-3.49977 32.6895 25.6777)" fill="#EFF9FF"/>
<path d="M40.9389 35.7514L43.3916 36.9402C43.8408 37.1581 44.35 36.7643 44.2078 36.3143L43.4259 33.8445L45.4194 32.0263C45.7834 31.6947 45.542 31.1227 45.0369 31.1163L42.2639 31.0672L41.0391 28.7632C40.8186 28.3446 40.1558 28.3851 39.9879 28.8275L39.0526 31.2583L36.3063 31.6449C35.8058 31.7129 35.6359 32.31 36.0375 32.5948L38.2377 34.1564L37.7627 36.7031C37.6763 37.1671 38.2298 37.496 38.6491 37.225L40.9389 35.7514Z" fill="#0069AB"/>
<path d="M55.7057 35.4099L55.3229 29.1519L57.8044 29.0002C58.2274 28.9743 58.5788 29.0386 58.8587 29.193C59.1413 29.3444 59.3559 29.548 59.5024 29.8036C59.6518 30.0591 59.7351 30.3274 59.7523 30.6084C59.7733 30.9532 59.7087 31.2508 59.5582 31.5014C59.4107 31.7518 59.199 31.9276 58.9231 32.0288L58.9098 31.8115C59.3093 31.8772 59.6192 32.0458 59.8393 32.3174C60.0624 32.5887 60.185 32.9055 60.2071 33.2676C60.2298 33.6385 60.1787 33.9673 60.0537 34.2541C59.9288 34.5409 59.7306 34.7711 59.4591 34.9448C59.1906 35.1182 58.8506 35.2175 58.4392 35.2427L55.7057 35.4099ZM56.7057 34.3585L58.2485 34.2642C58.431 34.253 58.5925 34.2068 58.7329 34.1255C58.8731 34.0413 58.9798 33.9301 59.0527 33.7919C59.1284 33.6506 59.1606 33.4872 59.1493 33.3018C59.139 33.1337 59.0935 32.9853 59.013 32.8565C58.9324 32.7276 58.8202 32.6283 58.6763 32.5586C58.5323 32.486 58.3632 32.4556 58.1691 32.4675L56.5959 32.5637L56.7057 34.3585ZM56.5361 31.5859L57.9442 31.4998C58.0948 31.4906 58.2278 31.4534 58.343 31.3882C58.4583 31.323 58.5472 31.2317 58.6098 31.1145C58.6724 30.9972 58.6987 30.856 58.6886 30.6909C58.6753 30.4736 58.5947 30.2968 58.4468 30.1604C58.2989 30.0241 58.1003 29.9635 57.8511 29.9788L56.4431 30.0649L56.5361 31.5859ZM63.3306 35.0744C62.8555 35.1035 62.432 35.0261 62.0601 34.8424C61.6883 34.6587 61.3898 34.3905 61.1647 34.0378C60.9425 33.685 60.8168 33.271 60.7878 32.7959C60.7564 32.2831 60.8277 31.8323 61.0017 31.4437C61.1755 31.0521 61.4313 30.7413 61.7691 30.5112C62.1069 30.2812 62.5061 30.1521 62.9668 30.1239C63.4535 30.0942 63.8733 30.1833 64.2263 30.3915C64.582 30.5966 64.8551 30.9012 65.0456 31.3054C65.236 31.7096 65.3282 32.194 65.322 32.7585L64.2834 32.822L64.26 32.4396C64.2259 31.9299 64.1133 31.5631 63.9222 31.3392C63.7311 31.1153 63.4458 31.015 63.0663 31.0382C62.6375 31.0644 62.327 31.2172 62.1347 31.4965C61.9422 31.7729 61.8616 32.1661 61.8927 32.676C61.9218 33.1511 62.0486 33.5127 62.2731 33.7607C62.4977 34.0087 62.8099 34.1204 63.2097 34.096C63.4675 34.0802 63.6857 34.0102 63.8642 33.8858C64.0455 33.7584 64.1801 33.583 64.2682 33.3595L65.3217 33.6091C65.1679 34.0431 64.9099 34.3889 64.5476 34.6466C64.1882 34.9042 63.7826 35.0468 63.3306 35.0744ZM61.5803 32.9873L61.5319 32.1964L64.7608 31.9989L64.8092 32.7899L61.5803 32.9873ZM68.2375 34.7743C67.6581 34.8097 67.1793 34.7082 66.8012 34.4696C66.4231 34.231 66.1805 33.8779 66.0734 33.4105L67.1324 33.18C67.2016 33.4084 67.3345 33.5834 67.5309 33.7052C67.7274 33.8269 67.969 33.8791 68.2559 33.8615C68.5079 33.8461 68.699 33.785 68.8292 33.6781C68.962 33.5682 69.0231 33.4264 69.0125 33.2525C69.006 33.1453 68.9747 33.0615 68.9186 33.0009C68.8653 32.9373 68.7513 32.8803 68.5766 32.8299C68.402 32.7795 68.1351 32.7188 67.776 32.6477C67.3756 32.5675 67.0558 32.4751 66.8168 32.3705C66.5776 32.263 66.4022 32.1297 66.2907 31.9708C66.1792 31.8119 66.1163 31.615 66.1019 31.3804C66.084 31.0878 66.1452 30.8281 66.2855 30.6014C66.4258 30.3747 66.63 30.195 66.8981 30.0623C67.1661 29.9267 67.4869 29.8475 67.8607 29.8246C68.2257 29.8023 68.5522 29.839 68.8401 29.9348C69.131 30.0305 69.3697 30.1773 69.5563 30.3752C69.7429 30.5732 69.865 30.8114 69.9228 31.09L68.8654 31.3466C68.8271 31.1483 68.7262 30.996 68.5627 30.8896C68.402 30.7831 68.1923 30.7305 67.9336 30.7318C67.6865 30.7324 67.4903 30.7822 67.3451 30.8812C67.1998 30.9774 67.132 31.1051 67.1417 31.2644C67.1472 31.3543 67.1824 31.4292 67.2471 31.4892C67.3118 31.5492 67.4374 31.6055 67.6238 31.6581C67.8132 31.7105 68.0932 31.7719 68.4639 31.8422C68.8435 31.915 69.1486 32.0068 69.3793 32.1178C69.6127 32.2256 69.7839 32.362 69.8929 32.5269C70.0048 32.6917 70.0681 32.8957 70.083 33.1391C70.1119 33.6113 69.9622 33.9927 69.6339 34.2832C69.3085 34.5736 68.8431 34.7373 68.2375 34.7743ZM73.8705 34.2989C73.5641 34.3758 73.2614 34.4191 72.9624 34.4286C72.6666 34.4409 72.3982 34.4035 72.1573 34.3165C71.9163 34.2265 71.7281 34.0737 71.5928 33.8581C71.4732 33.6618 71.404 33.4581 71.3853 33.247C71.3665 33.0359 71.349 32.797 71.3327 32.5305L71.0832 28.4498L72.1261 28.386L72.372 32.4059C72.3835 32.5942 72.3951 32.7592 72.4066 32.901C72.4211 33.0426 72.4586 33.1566 72.5192 33.2431C72.6341 33.4105 72.8066 33.4974 73.0367 33.5037C73.2669 33.51 73.5269 33.4824 73.8169 33.4211L73.8705 34.2989ZM70.3613 30.627L70.3111 29.8056L73.5835 29.6055L73.6337 30.4268L70.3613 30.627ZM79.2744 34.0993C78.6486 34.1376 78.1043 34.0342 77.6414 33.7891C77.1784 33.5412 76.8117 33.1798 76.5413 32.7048C76.2738 32.2297 76.1203 31.6692 76.0808 31.0231C76.0413 30.377 76.1253 29.8019 76.3329 29.2977C76.5435 28.7934 76.8635 28.3914 77.293 28.0918C77.7223 27.7893 78.2499 27.6189 78.8757 27.5806C79.5971 27.5365 80.2093 27.6808 80.7124 28.0135C81.2153 28.3434 81.5825 28.808 81.814 29.4075L80.7758 29.7632C80.6291 29.3621 80.4025 29.0561 80.0959 28.8451C79.7891 28.6313 79.4025 28.5386 78.936 28.5671C78.5159 28.5928 78.1711 28.7084 77.9016 28.9139C77.635 29.1192 77.4412 29.3972 77.3201 29.7477C77.2018 30.0952 77.1552 30.4979 77.1803 30.9558C77.2083 31.4136 77.3022 31.8092 77.4622 32.1425C77.6249 32.4728 77.8525 32.7235 78.1451 32.8947C78.4376 33.0658 78.7939 33.1385 79.214 33.1128C79.6805 33.0843 80.0529 32.9452 80.3314 32.6955C80.6098 32.4458 80.7975 32.1145 80.8943 31.7014L81.9682 31.928C81.8115 32.5512 81.5037 33.0586 81.0449 33.4501C80.5859 33.8388 79.9958 34.0552 79.2744 34.0993ZM85.1784 33.7382C84.7033 33.7673 84.2798 33.6899 83.9079 33.5062C83.5361 33.3225 83.2376 33.0543 83.0125 32.7017C82.7903 32.3488 82.6646 31.9349 82.6356 31.4597C82.6042 30.9469 82.6755 30.4962 82.8495 30.1075C83.0233 29.7159 83.2791 29.4051 83.6169 29.1751C83.9547 28.945 84.3539 28.8159 84.8146 28.7877C85.3013 28.758 85.7211 28.8472 86.0741 29.0553C86.4298 29.2604 86.7029 29.565 86.8934 29.9692C87.0838 30.3734 87.176 30.8578 87.1698 31.4223L86.1312 31.4858L86.1078 31.1034C86.0737 30.5937 85.9611 30.2269 85.77 30.003C85.5789 29.7792 85.2936 29.6788 84.9141 29.702C84.4853 29.7283 84.1748 29.881 83.9825 30.1603C83.79 30.4367 83.7094 30.8299 83.7405 31.3398C83.7696 31.8149 83.8964 32.1765 84.121 32.4245C84.3455 32.6725 84.6577 32.7842 85.0575 32.7598C85.3153 32.744 85.5335 32.674 85.712 32.5496C85.8933 32.4222 86.0279 32.2468 86.116 32.0233L87.1695 32.2729C87.0157 32.7069 86.7577 33.0528 86.3954 33.3105C86.036 33.568 85.6304 33.7106 85.1784 33.7382ZM83.4281 31.6512L83.3797 30.8602L86.6086 30.6627L86.657 31.4537L83.4281 31.6512ZM88.2652 33.4186L87.9781 28.7251L88.9038 28.6685L88.9737 29.8115L88.8517 29.6706C88.9 29.5106 88.9681 29.364 89.0559 29.2306C89.1465 29.0942 89.2572 28.9799 89.3883 28.8875C89.4994 28.8022 89.6231 28.7336 89.7595 28.6816C89.8987 28.6266 90.0418 28.5902 90.1891 28.5725C90.3361 28.5518 90.4799 28.5489 90.6204 28.5635L90.6802 29.5413C90.5386 29.5093 90.377 29.5061 90.1954 29.5317C90.0167 29.5572 89.8575 29.6178 89.718 29.7136C89.5779 29.8007 89.4652 29.9079 89.38 30.0352C89.2976 30.1624 89.2395 30.3056 89.2056 30.4647C89.1715 30.6209 89.16 30.7888 89.1709 30.9684L89.3169 33.3543L88.2652 33.4186ZM94.4876 33.038C94.1811 33.1149 93.8784 33.1582 93.5795 33.1677C93.2836 33.18 93.0153 33.1426 92.7744 33.0556C92.5333 32.9656 92.3451 32.8128 92.2098 32.5972C92.0902 32.4009 92.0211 32.1972 92.0023 31.9861C91.9836 31.775 91.9661 31.5361 91.9498 31.2696L91.7002 27.1889L92.7432 27.1251L92.9891 31.1449C93.0006 31.3333 93.0121 31.4983 93.0237 31.6401C93.0382 31.7817 93.0757 31.8957 93.1362 31.9822C93.2512 32.1496 93.4237 32.2365 93.6538 32.2428C93.8839 32.2491 94.144 32.2215 94.4339 32.1602L94.4876 33.038ZM90.9784 29.3661L90.9282 28.5447L94.2006 28.3446L94.2508 29.1659L90.9784 29.3661ZM95.2531 27.5648L95.1944 26.6044L96.2417 26.5403L96.3005 27.5008L95.2531 27.5648ZM95.5838 32.971L95.2967 28.2775L96.3441 28.2135L96.6311 32.9069L95.5838 32.971ZM98.3414 32.8023L98.0498 28.035C98.0425 27.9162 98.0389 27.7856 98.0389 27.6431C98.0388 27.4977 98.0546 27.3528 98.0865 27.2083C98.1184 27.0639 98.1844 26.9304 98.2845 26.808C98.4087 26.6521 98.5459 26.5419 98.6961 26.4775C98.849 26.41 99.0006 26.3687 99.1509 26.3537C99.301 26.3358 99.4326 26.3234 99.5456 26.3165L100.132 26.2806L100.184 27.1324L99.6411 27.1656C99.4412 27.1778 99.2951 27.2376 99.2028 27.3451C99.1132 27.4494 99.0734 27.5827 99.0833 27.745L99.3887 32.7383L98.3414 32.8023ZM97.3484 28.9765L97.2982 28.1551L100.236 27.9755L100.286 28.7968L97.3484 28.9765ZM101.105 27.2069L101.046 26.2465L102.094 26.1825L102.152 27.1429L101.105 27.2069ZM101.436 32.6131L101.149 27.9196L102.196 27.8556L102.483 32.549L101.436 32.6131ZM105.931 32.469C105.456 32.4981 105.033 32.4207 104.661 32.237C104.289 32.0533 103.99 31.7851 103.765 31.4324C103.543 31.0796 103.417 30.6656 103.388 30.1905C103.357 29.6777 103.428 29.227 103.602 28.8383C103.776 28.4467 104.032 28.1359 104.37 27.9058C104.708 27.6758 105.107 27.5467 105.567 27.5185C106.054 27.4888 106.474 27.5779 106.827 27.7861C107.183 27.9912 107.456 28.2958 107.646 28.7C107.837 29.1042 107.929 29.5886 107.923 30.1531L106.884 30.2166L106.861 29.8342C106.827 29.3245 106.714 28.9577 106.523 28.7338C106.332 28.5099 106.047 28.4096 105.667 28.4328C105.238 28.459 104.928 28.6118 104.735 28.8911C104.543 29.1675 104.462 29.5607 104.493 30.0706C104.522 30.5457 104.649 30.9073 104.874 31.1553C105.098 31.4033 105.411 31.515 105.81 31.4906C106.068 31.4748 106.286 31.4048 106.465 31.2804C106.646 31.153 106.781 30.9776 106.869 30.7541L107.922 31.0037C107.769 31.4377 107.511 31.7835 107.148 32.0412C106.789 32.2988 106.383 32.4414 105.931 32.469ZM104.181 30.3819L104.133 29.591L107.361 29.3935L107.41 30.1845L104.181 30.3819ZM110.908 32.1647C110.476 32.1911 110.093 32.1054 109.758 31.9078C109.423 31.7102 109.156 31.4299 108.956 31.067C108.757 30.7041 108.642 30.2879 108.614 29.8186C108.585 29.3434 108.647 28.915 108.801 28.5334C108.958 28.1487 109.194 27.8391 109.508 27.6047C109.822 27.3674 110.201 27.2352 110.644 27.2081C111.09 27.1808 111.47 27.2666 111.785 27.4654C112.102 27.6612 112.351 27.9412 112.53 28.3054C112.709 28.6695 112.813 29.0877 112.842 29.56C112.871 30.0264 112.818 30.4527 112.685 30.839C112.551 31.2223 112.336 31.532 112.039 31.7683C111.743 32.0045 111.365 32.1367 110.908 32.1647ZM111.011 31.2161C111.292 31.1989 111.514 31.1214 111.677 30.9834C111.843 30.8424 111.958 30.6537 112.022 30.4171C112.089 30.1804 112.113 29.9099 112.095 29.6057C112.076 29.2986 112.019 29.0331 111.924 28.8092C111.831 28.5822 111.697 28.4101 111.522 28.2929C111.346 28.1728 111.124 28.1209 110.858 28.1372C110.577 28.1544 110.349 28.2381 110.175 28.3883C110.001 28.5356 109.878 28.7293 109.805 28.9693C109.732 29.2064 109.705 29.4669 109.722 29.7508C109.739 30.0376 109.797 30.2958 109.896 30.5253C109.997 30.7518 110.14 30.9277 110.325 31.0531C110.51 31.1784 110.739 31.2328 111.011 31.2161ZM112.238 31.9524L112.037 28.6583L111.906 28.6663L111.725 25.7024L112.781 25.6379L113.164 31.8958L112.238 31.9524ZM117.626 31.6229L117.303 26.3471L115.278 26.471L115.218 25.4888L120.316 25.1771L120.376 26.1592L118.351 26.2831L118.673 31.5589L117.626 31.6229ZM122.839 31.4349C122.364 31.464 121.94 31.3867 121.569 31.2029C121.197 31.0192 120.898 30.751 120.673 30.3984C120.451 30.0456 120.325 29.6316 120.296 29.1564C120.265 28.6436 120.336 28.1929 120.51 27.8042C120.684 27.4126 120.94 27.1018 121.278 26.8718C121.615 26.6417 122.015 26.5126 122.475 26.4845C122.962 26.4547 123.382 26.5439 123.735 26.752C124.091 26.9571 124.364 27.2617 124.554 27.6659C124.745 28.0701 124.837 28.5545 124.831 29.119L123.792 29.1826L123.768 28.8001C123.734 28.2904 123.622 27.9236 123.431 27.6997C123.24 27.4759 122.954 27.3756 122.575 27.3988C122.146 27.425 121.836 27.5777 121.643 27.857C121.451 28.1335 121.37 28.5266 121.401 29.0365C121.43 29.5117 121.557 29.8732 121.782 30.1212C122.006 30.3692 122.318 30.481 122.718 30.4565C122.976 30.4407 123.194 30.3707 123.373 30.2464C123.554 30.119 123.689 29.9435 123.777 29.72L124.83 29.9697C124.676 30.4036 124.418 30.7495 124.056 31.0072C123.697 31.2647 123.291 31.4073 122.839 31.4349ZM121.089 29.3479L121.04 28.5569L124.269 28.3595L124.318 29.1504L121.089 29.3479ZM127.161 31.1706C126.822 31.1913 126.532 31.1451 126.289 31.032C126.047 30.916 125.858 30.7545 125.723 30.5476C125.591 30.3404 125.517 30.1079 125.502 29.8501C125.488 29.6241 125.513 29.419 125.577 29.2348C125.642 29.0476 125.748 28.8841 125.896 28.7442C126.045 28.6013 126.241 28.4803 126.485 28.381C126.669 28.3087 126.886 28.2401 127.135 28.1755C127.387 28.1106 127.66 28.0489 127.953 27.9903C128.248 27.9285 128.557 27.8631 128.879 27.794L128.518 28.0298C128.501 27.7052 128.414 27.4706 128.257 27.3261C128.1 27.1816 127.846 27.12 127.495 27.1415C127.284 27.1544 127.082 27.2161 126.891 27.3267C126.7 27.4372 126.573 27.6152 126.51 27.8604L125.535 27.619C125.627 27.215 125.828 26.8829 126.137 26.6225C126.45 26.3621 126.883 26.2149 127.436 26.181C127.854 26.1555 128.224 26.2012 128.548 26.3181C128.875 26.4347 129.125 26.6434 129.298 26.944C129.392 27.104 129.453 27.2704 129.481 27.4431C129.509 27.613 129.529 27.7993 129.541 28.0022L129.717 30.8834L128.801 30.9395L128.738 29.9226L128.901 30.0784C128.71 30.4303 128.477 30.6946 128.203 30.8713C127.932 31.045 127.584 31.1447 127.161 31.1706ZM127.319 30.3234C127.557 30.3089 127.757 30.2545 127.92 30.1602C128.083 30.0659 128.21 29.9549 128.301 29.8272C128.395 29.6993 128.456 29.5807 128.484 29.4714C128.531 29.3348 128.552 29.1808 128.547 29.0095C128.545 28.8351 128.541 28.6944 128.535 28.5872L128.862 28.6631C128.549 28.7317 128.281 28.7917 128.057 28.8432C127.834 28.8947 127.642 28.9428 127.482 28.9874C127.321 29.0292 127.18 29.0742 127.058 29.1224C126.939 29.1733 126.839 29.2303 126.759 29.2934C126.678 29.3565 126.617 29.4271 126.575 29.5052C126.537 29.5832 126.52 29.6729 126.526 29.7743C126.534 29.8902 126.569 29.9913 126.632 30.0776C126.695 30.1609 126.784 30.2253 126.897 30.2707C127.013 30.316 127.154 30.3335 127.319 30.3234ZM136.485 30.4695L136.311 27.6187C136.291 27.2971 136.196 27.0513 136.026 26.8815C135.856 26.7087 135.634 26.6306 135.362 26.6473C135.194 26.6575 135.045 26.7059 134.917 26.7922C134.788 26.8757 134.689 26.9952 134.62 27.1506C134.551 27.3032 134.523 27.4823 134.536 27.688L134.054 27.4426C134.031 27.1183 134.086 26.8285 134.219 26.5732C134.354 26.3149 134.545 26.1083 134.792 25.9537C135.038 25.799 135.318 25.7121 135.631 25.693C136.149 25.6613 136.556 25.7934 136.85 26.0895C137.147 26.3825 137.311 26.7825 137.342 27.2895L137.533 30.4054L136.485 30.4695ZM130.84 30.8147L130.553 26.1213L131.479 26.0647L131.568 27.5205L131.698 27.5125L131.896 30.7502L130.84 30.8147ZM133.669 30.6417L133.496 27.8039C133.476 27.4765 133.38 27.2265 133.21 27.0537C133.039 26.8809 132.817 26.8029 132.541 26.8198C132.275 26.8361 132.066 26.9404 131.915 27.1329C131.767 27.3252 131.702 27.5676 131.719 27.8602L131.231 27.576C131.212 27.2718 131.271 26.9934 131.407 26.7408C131.542 26.4883 131.734 26.2846 131.98 26.13C132.229 25.9723 132.513 25.8836 132.832 25.8642C133.182 25.8427 133.48 25.9001 133.724 26.0364C133.97 26.1697 134.159 26.3617 134.291 26.6124C134.425 26.8601 134.502 27.1448 134.522 27.4663L134.712 30.5779L133.669 30.6417ZM142.487 30.2333C142.018 30.262 141.601 30.1813 141.238 29.9913C140.874 29.8012 140.584 29.5267 140.367 29.1677C140.153 28.8057 140.032 28.3828 140.002 27.8989C139.972 27.4064 140.044 26.9687 140.218 26.5858C140.393 26.2029 140.649 25.8964 140.986 25.6664C141.324 25.4364 141.723 25.3073 142.184 25.2791C142.656 25.2502 143.074 25.3308 143.438 25.5209C143.801 25.7109 144.091 25.9869 144.308 26.3487C144.525 26.7077 144.648 27.1291 144.678 27.6129C144.708 28.0997 144.636 28.5359 144.461 28.9217C144.29 29.3044 144.035 29.6123 143.698 29.8452C143.36 30.0752 142.956 30.2046 142.487 30.2333ZM142.427 29.2511C142.844 29.2256 143.146 29.0676 143.332 28.7771C143.517 28.4865 143.597 28.1211 143.57 27.6807C143.542 27.2259 143.417 26.87 143.195 26.6131C142.972 26.3534 142.656 26.2361 142.244 26.2612C141.963 26.2784 141.735 26.3563 141.561 26.495C141.389 26.6305 141.266 26.814 141.193 27.0453C141.12 27.2737 141.092 27.5356 141.11 27.8311C141.138 28.286 141.263 28.6433 141.485 28.9031C141.71 29.1598 142.024 29.2758 142.427 29.2511ZM146.188 29.8761L145.896 25.1088C145.889 24.99 145.885 24.8594 145.885 24.7169C145.885 24.5715 145.901 24.4266 145.933 24.2821C145.965 24.1377 146.031 24.0042 146.131 23.8818C146.255 23.7259 146.392 23.6157 146.542 23.5513C146.695 23.4838 146.847 23.4425 146.997 23.4275C147.147 23.4096 147.279 23.3972 147.392 23.3903L147.978 23.3544L148.031 24.2062L147.487 24.2394C147.287 24.2516 147.141 24.3114 147.049 24.4189C146.959 24.5232 146.92 24.6565 146.93 24.8188L147.235 29.8121L146.188 29.8761ZM145.195 26.0503L145.144 25.2289L148.082 25.0492L148.132 25.8706L145.195 26.0503ZM153.128 29.5825C152.67 29.6105 152.253 29.5561 151.875 29.4192C151.5 29.2822 151.185 29.0732 150.929 28.7922C150.676 28.5082 150.506 28.1638 150.417 27.7592L151.493 27.5276C151.609 27.8928 151.816 28.168 152.115 28.3533C152.417 28.5384 152.757 28.6194 153.133 28.5964C153.356 28.5827 153.564 28.5351 153.757 28.4535C153.95 28.372 154.103 28.2608 154.216 28.1201C154.333 27.9792 154.385 27.8117 154.373 27.6176C154.368 27.5307 154.349 27.4519 154.315 27.3812C154.282 27.3077 154.234 27.2437 154.173 27.1893C154.114 27.1347 154.038 27.087 153.946 27.0461C153.856 27.0022 153.752 26.9664 153.634 26.9387L151.988 26.5595C151.846 26.5275 151.693 26.4831 151.526 26.4264C151.363 26.3666 151.205 26.2818 151.053 26.1718C150.903 26.0588 150.776 25.9124 150.672 25.7327C150.571 25.5499 150.512 25.3208 150.495 25.0456C150.471 24.6429 150.551 24.2992 150.737 24.0144C150.926 23.7266 151.189 23.5041 151.525 23.3468C151.865 23.1894 152.246 23.0992 152.669 23.0762C153.098 23.0529 153.485 23.1034 153.83 23.2277C154.175 23.3491 154.468 23.5391 154.711 23.7976C154.954 24.0561 155.133 24.3752 155.249 24.7548L154.136 25.0192C154.076 24.8019 153.975 24.6205 153.832 24.4751C153.692 24.3266 153.524 24.2177 153.328 24.1483C153.135 24.0787 152.931 24.0475 152.716 24.0548C152.507 24.0647 152.315 24.1084 152.139 24.1861C151.967 24.2606 151.829 24.3621 151.726 24.4905C151.626 24.6187 151.582 24.764 151.591 24.9262C151.601 25.0798 151.655 25.203 151.754 25.2958C151.852 25.3857 151.971 25.4555 152.111 25.5051C152.254 25.5517 152.397 25.5894 152.541 25.6184L153.681 25.8627C153.838 25.8939 154.013 25.9384 154.209 25.9962C154.404 26.0541 154.594 26.1399 154.778 26.2537C154.963 26.3674 155.118 26.5223 155.243 26.7182C155.371 26.9139 155.445 27.1682 155.464 27.4811C155.484 27.8056 155.433 28.0951 155.312 28.3497C155.194 28.6012 155.025 28.8151 154.806 28.9913C154.587 29.1676 154.333 29.3053 154.042 29.4045C153.754 29.5035 153.45 29.5628 153.128 29.5825ZM158.78 29.2369C158.322 29.2649 157.931 29.1797 157.608 28.9814C157.285 28.783 157.034 28.5018 156.854 28.1376C156.675 27.7706 156.571 27.3538 156.542 26.8873C156.513 26.4151 156.566 25.9873 156.699 25.604C156.833 25.2207 157.044 24.9126 157.332 24.6798C157.623 24.4439 157.991 24.3123 158.438 24.2851C158.881 24.2579 159.271 24.3431 159.609 24.5406C159.95 24.7349 160.221 25.0135 160.424 25.3762C160.626 25.7361 160.742 26.1536 160.771 26.6287C160.799 27.0981 160.737 27.525 160.583 27.9096C160.429 28.2941 160.198 28.6049 159.89 28.8418C159.581 29.0788 159.211 29.2105 158.78 29.2369ZM156.635 31.331L156.22 24.5515L157.146 24.4949L157.348 27.789L157.478 27.781L157.691 31.2664L156.635 31.331ZM158.561 28.308C158.834 28.2914 159.054 28.2095 159.223 28.0626C159.391 27.9156 159.51 27.7236 159.58 27.4867C159.652 27.2467 159.68 26.9833 159.662 26.6965C159.645 26.4126 159.586 26.1574 159.485 25.9309C159.384 25.7016 159.237 25.5244 159.047 25.3994C158.856 25.2715 158.62 25.2161 158.339 25.2333C158.072 25.2496 157.859 25.3281 157.699 25.4687C157.538 25.6065 157.425 25.7937 157.358 26.0305C157.294 26.2641 157.271 26.5345 157.29 26.8416C157.308 27.1458 157.364 27.4114 157.456 27.6384C157.551 27.8652 157.689 28.0386 157.867 28.1585C158.049 28.2754 158.28 28.3252 158.561 28.308ZM164.014 28.9168C163.539 28.9458 163.115 28.8685 162.743 28.6848C162.372 28.501 162.073 28.2328 161.848 27.8802C161.626 27.5274 161.5 27.1134 161.471 26.6382C161.44 26.1254 161.511 25.6747 161.685 25.286C161.859 24.8944 162.115 24.5836 162.452 24.3536C162.79 24.1235 163.189 23.9944 163.65 23.9663C164.137 23.9365 164.557 24.0257 164.91 24.2338C165.265 24.4389 165.538 24.7436 165.729 25.1477C165.919 25.5519 166.011 26.0363 166.005 26.6009L164.967 26.6644L164.943 26.2819C164.909 25.7722 164.797 25.4054 164.605 25.1816C164.414 24.9577 164.129 24.8574 163.75 24.8806C163.321 24.9068 163.01 25.0596 162.818 25.3389C162.625 25.6153 162.545 26.0084 162.576 26.5183C162.605 26.9935 162.732 27.355 162.956 27.603C163.181 27.851 163.493 27.9628 163.893 27.9383C164.151 27.9226 164.369 27.8525 164.547 27.7282C164.729 27.6008 164.863 27.4253 164.951 27.2018L166.005 27.4515C165.851 27.8854 165.593 28.2313 165.231 28.489C164.871 28.7465 164.466 28.8891 164.014 28.9168ZM162.264 26.8297L162.215 26.0388L165.444 25.8413L165.492 26.6322L162.264 26.8297ZM169.147 28.6028C168.663 28.6324 168.244 28.5505 167.889 28.357C167.533 28.1606 167.253 27.8811 167.048 27.5186C166.845 27.1558 166.728 26.7384 166.696 26.2663C166.67 25.7852 166.738 25.3536 166.901 24.9714C167.066 24.5861 167.315 24.2772 167.647 24.0446C167.978 23.8092 168.382 23.6769 168.857 23.6478C169.39 23.6152 169.849 23.7224 170.233 23.9693C170.62 24.2132 170.884 24.5634 171.026 25.0201L170 25.3663C169.904 25.1193 169.757 24.9319 169.56 24.8044C169.363 24.6739 169.144 24.6161 168.904 24.6308C168.631 24.6474 168.411 24.7264 168.242 24.8675C168.073 25.0058 167.954 25.1905 167.884 25.4216C167.813 25.6528 167.787 25.9117 167.805 26.1986C167.832 26.6447 167.954 26.9993 168.171 27.2623C168.387 27.5253 168.693 27.6448 169.087 27.6207C169.365 27.6037 169.58 27.5266 169.731 27.3893C169.886 27.2519 169.996 27.0605 170.063 26.8151L171.146 26.9887C171.031 27.4756 170.8 27.8591 170.453 28.1391C170.107 28.4162 169.671 28.5708 169.147 28.6028ZM171.729 22.8877L171.67 21.9272L172.718 21.8632L172.776 22.8236L171.729 22.8877ZM172.06 28.2938L171.773 23.6004L172.82 23.5363L173.107 28.2298L172.06 28.2938ZM175.729 28.2003C175.39 28.221 175.099 28.1748 174.857 28.0617C174.614 27.9457 174.426 27.7842 174.291 27.5772C174.159 27.3701 174.085 27.1376 174.069 26.8798C174.055 26.6538 174.081 26.4487 174.145 26.2644C174.209 26.0773 174.316 25.9138 174.464 25.7738C174.612 25.631 174.808 25.5099 175.052 25.4107C175.237 25.3383 175.454 25.2698 175.703 25.2051C175.955 25.1403 176.227 25.0786 176.52 25.0199C176.816 24.9582 177.125 24.8928 177.446 24.8237L177.086 25.0595C177.069 24.7349 176.982 24.5003 176.824 24.3557C176.667 24.2112 176.413 24.1497 176.063 24.1711C175.851 24.1841 175.65 24.2458 175.459 24.3564C175.268 24.4669 175.141 24.6448 175.077 24.8901L174.103 24.6487C174.195 24.2447 174.395 23.9125 174.705 23.6522C175.018 23.3917 175.451 23.2446 176.004 23.2107C176.421 23.1852 176.792 23.2309 177.116 23.3477C177.443 23.4644 177.693 23.673 177.865 23.9737C177.959 24.1337 178.021 24.3 178.049 24.4728C178.076 24.6427 178.097 24.829 178.109 25.0318L178.285 27.9131L177.368 27.9692L177.306 26.9522L177.468 27.1081C177.277 27.46 177.045 27.7243 176.771 27.901C176.499 28.0746 176.152 28.1744 175.729 28.2003ZM175.887 27.3531C176.124 27.3386 176.324 27.2842 176.487 27.1899C176.65 27.0956 176.777 26.9846 176.868 26.8569C176.962 26.729 177.023 26.6104 177.052 26.5011C177.098 26.3644 177.12 26.2105 177.115 26.0392C177.113 25.8648 177.109 25.724 177.102 25.6168L177.43 25.6928C177.117 25.7613 176.849 25.8214 176.625 25.8729C176.401 25.9243 176.209 25.9724 176.049 26.0171C175.889 26.0589 175.748 26.1039 175.626 26.1521C175.507 26.203 175.407 26.26 175.326 26.323C175.246 26.3861 175.185 26.4567 175.143 26.5349C175.104 26.6129 175.088 26.7026 175.094 26.804C175.101 26.9199 175.136 27.021 175.2 27.1072C175.263 27.1906 175.351 27.255 175.465 27.3004C175.581 27.3456 175.722 27.3632 175.887 27.3531ZM179.503 27.8386L179.113 21.4503L180.16 21.3862L180.551 27.7745L179.503 27.8386ZM181.609 22.2834L181.55 21.323L182.597 21.2589L182.656 22.2194L181.609 22.2834ZM181.939 27.6896L181.652 22.9961L182.7 22.9321L182.987 27.6255L181.939 27.6896ZM186.109 27.5655C185.529 27.6009 185.051 27.4993 184.672 27.2607C184.294 27.0221 184.052 26.6691 183.945 26.2016L185.004 25.9711C185.073 26.1995 185.206 26.3746 185.402 26.4964C185.599 26.6181 185.84 26.6702 186.127 26.6527C186.379 26.6373 186.57 26.5761 186.7 26.4693C186.833 26.3594 186.894 26.2175 186.884 26.0437C186.877 25.9365 186.846 25.8526 186.79 25.7921C186.736 25.7285 186.622 25.6714 186.448 25.6211C186.273 25.5707 186.006 25.5099 185.647 25.4388C185.247 25.3586 184.927 25.2662 184.688 25.1616C184.449 25.0541 184.273 24.9209 184.162 24.762C184.05 24.603 183.987 24.4062 183.973 24.1715C183.955 23.8789 184.016 23.6193 184.157 23.3926C184.297 23.1659 184.501 22.9862 184.769 22.8535C185.037 22.7179 185.358 22.6386 185.732 22.6158C186.097 22.5934 186.423 22.6302 186.711 22.726C187.002 22.8216 187.241 22.9684 187.427 23.1664C187.614 23.3643 187.736 23.6026 187.794 23.8812L186.737 24.1377C186.698 23.9394 186.597 23.7871 186.434 23.6808C186.273 23.5743 186.064 23.5217 185.805 23.523C185.558 23.5236 185.361 23.5734 185.216 23.6724C185.071 23.7685 185.003 23.8963 185.013 24.0556C185.018 24.1454 185.054 24.2203 185.118 24.2803C185.183 24.3404 185.309 24.3967 185.495 24.4492C185.684 24.5016 185.964 24.563 186.335 24.6334C186.715 24.7062 187.02 24.798 187.251 24.9089C187.484 25.0168 187.655 25.1532 187.764 25.3181C187.876 25.4828 187.939 25.6869 187.954 25.9302C187.983 26.4025 187.833 26.7839 187.505 27.0744C187.18 27.3647 186.714 27.5284 186.109 27.5655ZM191.742 27.0901C191.435 27.167 191.133 27.2102 190.834 27.2198C190.538 27.2321 190.269 27.1947 190.029 27.1076C189.787 27.0177 189.599 26.8649 189.464 26.6492C189.344 26.453 189.275 26.2493 189.256 26.0382C189.238 25.827 189.22 25.5882 189.204 25.3216L188.954 21.2409L189.997 21.1772L190.243 25.197C190.255 25.3853 190.266 25.5504 190.278 25.6922C190.292 25.8338 190.33 25.9478 190.39 26.0342C190.505 26.2017 190.678 26.2886 190.908 26.2949C191.138 26.3011 191.398 26.2736 191.688 26.2122L191.742 27.0901ZM188.233 23.4181L188.182 22.5968L191.455 22.3966L191.505 23.218L188.233 23.4181ZM194.571 27.0479C193.992 27.0834 193.513 26.9818 193.135 26.7432C192.757 26.5046 192.514 26.1515 192.407 25.6841L193.466 25.4536C193.535 25.682 193.668 25.8571 193.865 25.9788C194.061 26.1006 194.303 26.1527 194.589 26.1351C194.842 26.1197 195.033 26.0586 195.163 25.9518C195.296 25.8418 195.357 25.7 195.346 25.5261C195.34 25.4189 195.308 25.3351 195.252 25.2745C195.199 25.2109 195.085 25.1539 194.91 25.1035C194.736 25.0531 194.469 24.9924 194.11 24.9213C193.709 24.8411 193.389 24.7487 193.15 24.6441C192.911 24.5366 192.736 24.4033 192.624 24.2444C192.513 24.0855 192.45 23.8887 192.436 23.654C192.418 23.3614 192.479 23.1017 192.619 22.875C192.759 22.6484 192.964 22.4687 193.232 22.3359C193.5 22.2003 193.821 22.1211 194.194 22.0982C194.559 22.0759 194.886 22.1126 195.174 22.2084C195.465 22.3041 195.703 22.4509 195.89 22.6488C196.076 22.8468 196.199 23.0851 196.256 23.3636L195.199 23.6202C195.161 23.4219 195.06 23.2696 194.896 23.1633C194.736 23.0568 194.526 23.0041 194.267 23.0054C194.02 23.006 193.824 23.0558 193.679 23.1548C193.533 23.251 193.466 23.3787 193.475 23.538C193.481 23.6279 193.516 23.7028 193.581 23.7628C193.645 23.8228 193.771 23.8791 193.957 23.9317C194.147 23.9841 194.427 24.0455 194.797 24.1159C195.177 24.1886 195.482 24.2805 195.713 24.3914C195.946 24.4992 196.118 24.6356 196.227 24.8005C196.338 24.9653 196.402 25.1693 196.417 25.4127C196.445 25.8849 196.296 26.2663 195.968 26.5568C195.642 26.8472 195.177 27.0109 194.571 27.0479Z" fill="#0069AB"/>
</g>
<defs>
<filter id="filter0_d_2001_1142" x="-0.206386" y="-0.409201" width="222.476" height="66.0331" filterUnits="userSpaceOnUse" color-interpolation-filters="sRGB">
<feFlood flood-opacity="0" result="BackgroundImageFix"/>
<feColorMatrix in="SourceAlpha" type="matrix" values="0 0 0 0 0 0 0 0 0 0 0 0 0 0 0 0 0 0 127 0" result="hardAlpha"/>
<feOffset dx="-4.35391" dy="4.35391"/>
<feGaussianBlur stdDeviation="7.61935"/>
<feComposite in2="hardAlpha" operator="out"/>
<feColorMatrix type="matrix" values="0 0 0 0 0 0 0 0 0 0 0 0 0 0 0 0 0 0 0.06 0"/>
<feBlend mode="normal" in2="BackgroundImageFix" result="effect1_dropShadow_2001_1142"/>
<feBlend mode="normal" in="SourceGraphic" in2="effect1_dropShadow_2001_1142" result="shape"/>
</filter>
</defs>
</svg>
