<svg width="22" height="22" viewBox="0 0 22 22" fill="none" xmlns="http://www.w3.org/2000/svg">
<path opacity="0.7" d="M10.8112 5.11431C12.2255 5.00397 13.6262 5.45564 14.7097 6.37134L17.3913 3.34038C15.4851 1.75735 13.0402 0.973656 10.569 1.15357C8.72238 1.26573 6.94339 1.88927 5.43086 2.95447C3.91833 4.01968 2.73187 5.48457 2.0041 7.18538L5.4892 9.5613C5.7996 8.35649 6.48007 7.27939 7.43479 6.48164C8.38951 5.68389 9.5704 5.20567 10.8112 5.11431Z" fill="black"/>
<path d="M2.00361 7.18525C1.39225 8.61562 1.12335 10.169 1.2183 11.7216C1.31326 13.2743 1.76946 14.7833 2.55057 16.1285L5.72016 13.3456C5.22872 12.144 5.14737 10.8138 5.48871 9.56116L2.00361 7.18525Z" fill="black"/>
<path opacity="0.5" d="M14.8586 15.9534C14.1189 16.4947 13.2653 16.86 12.3629 17.0213C11.4605 17.1825 10.5332 17.1356 9.65175 16.8841C8.77027 16.6325 7.95789 16.1829 7.27657 15.5697C6.59525 14.9564 6.06299 14.1956 5.72039 13.3454L2.5518 16.1282C3.48123 17.7274 4.83704 19.0366 6.46772 19.9096C8.0984 20.7825 9.9397 21.1848 11.7859 21.0715C14.2142 20.9889 16.5192 19.9814 18.2292 18.2553L14.8586 15.9534Z" fill="black"/>
<path opacity="0.25" d="M20.4466 8.72812L11.0671 9.30176L11.3027 13.1539L16.6627 12.8261C16.589 13.4423 16.3912 14.0371 16.0811 14.5746C15.771 15.1121 15.3552 15.5811 14.8587 15.9534L18.2304 18.2562C19.1528 17.2523 19.854 16.0657 20.2885 14.7734C20.723 13.4811 20.8811 12.112 20.7525 10.7547C20.7107 10.0705 20.6092 9.39293 20.4466 8.72812Z" fill="black"/>
</svg>
