<svg width="61" height="62" viewBox="0 0 61 62" fill="none" xmlns="http://www.w3.org/2000/svg">
<path d="M51.9889 33.0628L51.6306 27.2039C51.5939 26.6039 51.0777 26.1472 50.4777 26.1839L35.6502 27.0907C35.0501 27.1274 34.534 26.6708 34.4973 26.0707L33.5968 11.3469C33.5601 10.7468 33.0439 10.2902 32.4439 10.3269L19.3786 11.1259C18.7786 11.1626 18.3219 11.6788 18.3586 12.2788L19.2654 27.1063C19.3021 27.7064 18.8455 28.2225 18.2454 28.2592L3.41789 29.1661C2.81786 29.2028 2.36119 29.7189 2.39789 30.319L3.19695 43.3843C3.23364 43.9843 3.74981 44.441 4.34984 44.4043L19.1774 43.4974C19.7774 43.4607 20.2936 43.9174 20.3303 44.5174L21.2371 59.345C21.2738 59.945 21.79 60.4017 22.39 60.365L35.4553 59.5659C36.0553 59.5292 36.512 59.013 36.4753 58.413L35.5685 43.5855C35.5318 42.9855 35.9884 42.4693 36.5885 42.4326L51.416 41.5258C52.016 41.4891 52.4727 40.9729 52.436 40.3729L51.9889 33.0628ZM47.4671 29.6976C48.0671 29.6609 48.5833 30.1176 48.62 30.7176L49.0196 37.2522C49.0563 37.8523 48.5996 38.3684 47.9996 38.4051L33.1721 39.312C32.5721 39.3487 32.1154 39.8648 32.1521 40.4649L33.0589 55.2924C33.0956 55.8924 32.6389 56.4086 32.0389 56.4453L25.5043 56.8449C24.9042 56.8816 24.3881 56.425 24.3514 55.8249L23.4445 40.9974C23.4079 40.3974 22.8917 39.9407 22.2917 39.9774L7.46412 40.8842C6.86409 40.9209 6.34792 40.4643 6.31122 39.8642L5.91158 33.3296C5.87488 32.7296 6.33155 32.2134 6.93158 32.1767L21.7591 31.2699C22.3591 31.2332 22.8158 30.717 22.7791 30.117L21.8723 15.2894C21.8356 14.6894 22.2923 14.1732 22.8923 14.1365L29.4269 13.7369C30.027 13.7002 30.5431 14.1569 30.5798 14.7569L31.4867 29.5844C31.5233 30.1845 32.0395 30.6411 32.6395 30.6044L47.4671 29.6976Z" fill="#99BDD1"/>
<path fill-rule="evenodd" clip-rule="evenodd" d="M58.3955 18.7228L58.7538 24.5817L59.2009 31.8918C59.2376 32.4918 58.7809 33.008 58.1809 33.0447L43.3534 33.9515C42.7533 33.9882 42.2967 34.5044 42.3334 35.1044L43.2402 49.9319C43.2769 50.532 42.8202 51.0481 42.2202 51.0848L29.1549 51.8839C28.5549 51.9206 28.0387 51.4639 28.002 50.8639L27.0952 36.0363C27.0585 35.4363 26.5423 34.9796 25.9423 35.0163L11.1148 35.9232C10.5147 35.9599 9.99856 35.5032 9.96187 34.9032L9.16281 21.8379C9.12611 21.2379 9.58279 20.7217 10.1828 20.685L25.0103 19.7782C25.6104 19.7415 26.067 19.2253 26.0303 18.6253L25.1235 3.7977C25.0868 3.19767 25.5435 2.68151 26.1435 2.64481L39.2088 1.84575C39.8088 1.80906 40.325 2.26573 40.3617 2.86576L41.2622 17.5897C41.2989 18.1897 41.8151 18.6464 42.4151 18.6097L57.2426 17.7028C57.8427 17.6661 58.3588 18.1228 58.3955 18.7228Z" fill="url(#paint0_linear_2001_1236)"/>
<defs>
<linearGradient id="paint0_linear_2001_1236" x1="49.463" y1="25.9302" x2="23.8144" y2="31.4463" gradientUnits="userSpaceOnUse">
<stop stop-color="#0179B4"/>
<stop offset="0.908717" stop-color="#88D8FF"/>
</linearGradient>
</defs>
</svg>
