<svg width="189" height="95" viewBox="0 0 189 95" fill="none" xmlns="http://www.w3.org/2000/svg">
<g filter="url(#filter0_d_2001_1050)">
<rect x="9.9126" y="30.1992" width="163.272" height="47.8931" rx="6.53087" transform="rotate(-3.49977 9.9126 30.1992)" fill="url(#paint0_linear_2001_1050)" shape-rendering="crispEdges"/>
<rect x="10.489" y="30.7092" width="162.183" height="46.8046" rx="5.98663" transform="rotate(-3.49977 10.489 30.7092)" stroke="url(#paint1_linear_2001_1050)" stroke-width="1.08848" shape-rendering="crispEdges"/>
<path d="M24.9774 52.5602L24.6425 47.0845L25.3194 47.0431L25.6149 51.8761L28.1551 51.7208L28.1944 52.3634L24.9774 52.5602ZM30.5937 52.3312C30.1856 52.3562 29.8276 52.2852 29.5197 52.1183C29.2143 51.9512 28.9717 51.709 28.792 51.3918C28.6123 51.0745 28.5095 50.7042 28.4836 50.2809C28.4573 49.8499 28.5153 49.4672 28.6577 49.1328C28.8001 48.7984 29.0141 48.5321 29.2997 48.334C29.5851 48.1333 29.9281 48.0208 30.3286 47.9963C30.7393 47.9711 31.0986 48.042 31.4065 48.209C31.7143 48.3733 31.9568 48.6142 32.1339 48.9317C32.3135 49.2464 32.4162 49.6154 32.4421 50.0388C32.4683 50.4672 32.4115 50.8498 32.2718 51.1866C32.132 51.5208 31.9194 51.7896 31.6341 51.9928C31.3487 52.1934 31.0019 52.3062 30.5937 52.3312ZM30.5544 51.6886C30.9803 51.6625 31.2885 51.5012 31.479 51.2045C31.6695 50.9079 31.751 50.534 31.7234 50.0827C31.695 49.6188 31.5673 49.2564 31.3401 48.9955C31.1128 48.732 30.7887 48.6132 30.3679 48.6389C30.0815 48.6564 29.8497 48.7355 29.6725 48.8761C29.4954 49.0167 29.3681 49.2039 29.2908 49.4376C29.2135 49.6713 29.184 49.9378 29.2023 50.2369C29.2305 50.6983 29.3596 51.0619 29.5896 51.3277C29.8196 51.5935 30.1412 51.7138 30.5544 51.6886ZM33.4051 52.0447L33.154 47.938L33.7586 47.901L33.8193 48.8935L33.7125 48.7702C33.7529 48.6405 33.8079 48.5201 33.8774 48.409C33.9495 48.2977 34.0316 48.2049 34.1238 48.1306C34.225 48.0379 34.3413 47.9646 34.4729 47.9107C34.6045 47.8569 34.7397 47.8219 34.8787 47.8058C35.0175 47.7871 35.1486 47.788 35.272 47.8084L35.3108 48.4435C35.1665 48.4141 35.01 48.4135 34.8413 48.4416C34.6725 48.4698 34.5191 48.5415 34.3811 48.6568C34.255 48.7587 34.1594 48.879 34.0941 49.0179C34.0313 49.1566 33.9908 49.3054 33.9725 49.4642C33.9541 49.6206 33.9498 49.7799 33.9597 49.9421L34.0858 52.0031L33.4051 52.0447ZM37.9545 51.881C37.5514 51.9057 37.1936 51.8385 36.8811 51.6795C36.571 51.5178 36.3225 51.2824 36.1356 50.9732C35.9486 50.6615 35.842 50.2914 35.8158 49.863C35.7884 49.4143 35.847 49.0214 35.9918 48.6843C36.1365 48.3446 36.3504 48.0771 36.6336 47.8816C36.9192 47.6835 37.261 47.5723 37.659 47.5479C38.0722 47.5227 38.4291 47.5963 38.7297 47.7687C39.0329 47.941 39.2675 48.1989 39.4335 48.5425C39.6021 48.8858 39.6912 49.3015 39.7006 49.7895L39.0162 49.8314L39.0013 49.588C38.9628 49.084 38.8371 48.7138 38.6242 48.4775C38.4111 48.2386 38.1094 48.1311 37.719 48.155C37.3007 48.1805 36.9908 48.3344 36.7892 48.6164C36.5876 48.8985 36.5022 49.2904 36.5329 49.7924C36.5625 50.2766 36.6944 50.6451 36.9287 50.8979C37.163 51.1508 37.4817 51.2649 37.8848 51.2402C38.156 51.2237 38.388 51.1471 38.5807 51.0107C38.7733 50.8742 38.9196 50.6859 39.0194 50.4457L39.6834 50.6302C39.5458 51.0025 39.3222 51.2986 39.0125 51.5186C38.7052 51.7359 38.3525 51.8567 37.9545 51.881ZM36.3164 49.9965L36.2831 49.4527L39.3176 49.2671L39.3508 49.8109L36.3164 49.9965ZM45.4589 51.3076L45.302 48.6797C45.2833 48.373 45.1862 48.1385 45.0109 47.9762C44.838 47.8112 44.6209 47.7367 44.3598 47.7526C44.2077 47.7619 44.0654 47.8063 43.9328 47.8856C43.8001 47.9624 43.6953 48.0783 43.6182 48.2331C43.541 48.3854 43.5095 48.5769 43.5236 48.8076L43.1573 48.685C43.1344 48.3937 43.1784 48.1353 43.2893 47.9097C43.4025 47.6814 43.5645 47.4998 43.775 47.3647C43.9856 47.2297 44.2278 47.1538 44.5016 47.1371C44.93 47.1109 45.2751 47.2208 45.537 47.4669C45.7987 47.7104 45.943 48.0515 45.9698 48.49L46.1358 51.2662L45.4589 51.3076ZM40.546 51.608L40.2948 47.5012L40.8994 47.4643L40.9667 48.5632L41.0427 48.5586L41.2267 51.5664L40.546 51.608ZM43.0063 51.4576L42.851 48.8564C42.8318 48.542 42.7356 48.3011 42.5625 48.1335C42.3893 47.9635 42.1683 47.8867 41.8996 47.9031C41.6334 47.9194 41.4235 48.0238 41.2699 48.2164C41.1163 48.409 41.0487 48.6562 41.0671 48.9578L40.6967 48.7667C40.6804 48.5006 40.7292 48.2584 40.8431 48.0402C40.9569 47.8221 41.1193 47.6468 41.33 47.5143C41.5406 47.3793 41.784 47.3033 42.0603 47.2864C42.3366 47.2695 42.581 47.3131 42.7935 47.4171C43.006 47.5212 43.1746 47.6788 43.2995 47.89C43.4242 48.0987 43.4958 48.3526 43.514 48.6517L43.6793 51.4164L43.0063 51.4576ZM48.433 46.2745L48.3902 45.5748L49.0671 45.5334L49.1099 46.2331L48.433 46.2745ZM48.7286 51.1076L48.4774 47.0008L49.1543 46.9594L49.4055 51.0662L48.7286 51.1076ZM52.4395 50.9951C52.0541 51.0187 51.7238 50.9435 51.4486 50.7695C51.1731 50.5929 50.957 50.3453 50.8001 50.0267C50.6456 49.7054 50.5558 49.3406 50.5309 48.9325C50.5056 48.5193 50.5501 48.145 50.6645 47.8098C50.7814 47.4744 50.9659 47.2048 51.2181 47.0011C51.4728 46.7973 51.7928 46.6835 52.1781 46.66C52.5584 46.6367 52.8912 46.7118 53.1766 46.8852C53.4644 47.0559 53.6918 47.3002 53.8589 47.6183C54.0259 47.9363 54.122 48.3006 54.1471 48.7113C54.1722 49.122 54.1213 49.4953 53.9942 49.8313C53.8672 50.1674 53.6714 50.4401 53.4069 50.6497C53.1447 50.8566 52.8222 50.9717 52.4395 50.9951ZM50.6542 52.8219L50.2914 46.8899L50.896 46.8529L51.0809 49.8759L51.157 49.8713L51.3349 52.7802L50.6542 52.8219ZM52.3179 50.3804C52.5891 50.3638 52.8093 50.2817 52.9784 50.1339C53.1475 49.9862 53.2692 49.793 53.3437 49.5543C53.418 49.3132 53.4463 49.0468 53.4284 48.7553C53.4107 48.4663 53.3504 48.2079 53.2474 47.9801C53.147 47.7521 53.0013 47.5753 52.8104 47.4495C52.622 47.3237 52.3884 47.2693 52.1096 47.2863C51.8434 47.3026 51.6269 47.382 51.46 47.5245C51.293 47.6645 51.1735 47.8537 51.1016 48.0922C51.0295 48.3282 51.0028 48.5983 51.0214 48.9025C51.0397 49.2016 51.0979 49.4665 51.1959 49.6971C51.2964 49.9251 51.4395 50.1008 51.6251 50.2243C51.8107 50.3453 52.0416 50.3973 52.3179 50.3804ZM56.6053 50.7365C56.116 50.7665 55.7077 50.6846 55.3803 50.4908C55.0554 50.2944 54.8456 50.0057 54.751 49.6248L55.4364 49.4722C55.5058 49.6918 55.6446 49.8615 55.853 49.981C56.0612 50.0981 56.3135 50.1475 56.6101 50.1294C56.8915 50.1122 57.1085 50.0404 57.2611 49.914C57.4137 49.7876 57.4838 49.6243 57.4716 49.424C57.4645 49.3074 57.4321 49.2152 57.3745 49.1475C57.3168 49.0773 57.2023 49.0156 57.0311 48.9624C56.8625 48.9091 56.6081 48.8483 56.2681 48.7801C55.8997 48.7059 55.6084 48.6232 55.3941 48.532C55.1799 48.4408 55.0242 48.3294 54.9271 48.198C54.83 48.0665 54.7755 47.9032 54.7636 47.708C54.7489 47.4671 54.8019 47.2527 54.9227 47.0646C55.0434 46.8741 55.2186 46.7221 55.4483 46.6088C55.6805 46.4954 55.9538 46.4291 56.2682 46.4098C56.58 46.3908 56.8618 46.4231 57.1138 46.507C57.3657 46.5908 57.5721 46.7194 57.7328 46.8928C57.8959 47.0635 57.9988 47.2684 58.0414 47.5075L57.357 47.6753C57.3106 47.4568 57.1935 47.2896 57.0057 47.1739C56.8205 47.058 56.587 47.0048 56.3051 47.0144C56.0383 47.0206 55.8245 47.0807 55.6635 47.1949C55.5051 47.3089 55.4313 47.4547 55.4421 47.6321C55.4482 47.731 55.4838 47.814 55.549 47.8813C55.6167 47.9484 55.7362 48.0085 55.9074 48.0617C56.0811 48.1147 56.3314 48.1719 56.6583 48.2333C57.0264 48.3024 57.3177 48.3851 57.5323 48.4814C57.7492 48.575 57.9065 48.6926 58.0042 48.8342C58.1018 48.9733 58.1571 49.1493 58.1701 49.3622C58.1943 49.7577 58.0676 50.0784 57.79 50.3244C57.5123 50.5678 57.1174 50.7052 56.6053 50.7365ZM60.6455 50.4856C60.3818 50.5018 60.1524 50.4738 59.9571 50.4018C59.7644 50.3296 59.6017 50.2276 59.469 50.0958C59.3362 49.9639 59.2292 49.8153 59.1478 49.6498C59.0664 49.4842 59.0051 49.3137 58.9638 49.1381C58.9251 48.9624 58.901 48.7972 58.8915 48.6425L58.7527 46.3724L59.4372 46.3305L59.563 48.3877C59.5748 48.5804 59.6039 48.7656 59.6504 48.9434C59.6969 49.1213 59.7664 49.2799 59.8589 49.4192C59.9539 49.5585 60.075 49.6656 60.222 49.7405C60.3717 49.8154 60.5542 49.8462 60.7697 49.833C60.9395 49.8226 61.0924 49.784 61.2282 49.7172C61.3641 49.6503 61.478 49.5569 61.5699 49.4367C61.6616 49.3141 61.7287 49.1624 61.771 48.9817C61.8134 48.801 61.8274 48.5927 61.813 48.357L62.2663 48.4667C62.2905 48.8621 62.2391 49.2075 62.1121 49.5028C61.9876 49.798 61.7996 50.0308 61.5479 50.2014C61.2987 50.3694 60.9978 50.4641 60.6455 50.4856ZM62.0079 50.2954L61.9407 49.1965L61.8646 49.2011L61.6807 46.1933L62.3613 46.1517L62.6125 50.2585L62.0079 50.2954ZM68.5863 49.8931L68.4294 47.2653C68.4106 46.9586 68.3136 46.724 68.1383 46.5617C67.9653 46.3967 67.7483 46.3222 67.4872 46.3382C67.3351 46.3475 67.1928 46.3918 67.0602 46.4712C66.9275 46.548 66.8226 46.6638 66.7456 46.8187C66.6684 46.971 66.6368 47.1625 66.6509 47.3932L66.2847 47.2705C66.2618 46.9793 66.3058 46.7209 66.4166 46.4953C66.5299 46.267 66.6918 46.0853 66.9024 45.9503C67.113 45.8153 67.3551 45.7394 67.6289 45.7227C68.0573 45.6965 68.4025 45.8064 68.6644 46.0525C68.9261 46.296 69.0703 46.637 69.0972 47.0756L69.2631 49.8517L68.5863 49.8931ZM63.6734 50.1936L63.4222 46.0868L64.0268 46.0498L64.094 47.1488L64.1701 47.1441L64.354 50.152L63.6734 50.1936ZM66.1336 50.0431L65.9783 47.4419C65.9591 47.1276 65.863 46.8866 65.6899 46.7191C65.5166 46.549 65.2956 46.4722 65.0269 46.4887C64.7607 46.5049 64.5508 46.6094 64.3972 46.802C64.2436 46.9946 64.176 47.2417 64.1945 47.5434L63.824 47.3523C63.8077 47.0861 63.8565 46.844 63.9704 46.6258C64.0843 46.4076 64.2466 46.2323 64.4573 46.0998C64.6679 45.9648 64.9114 45.8889 65.1877 45.872C65.464 45.8551 65.7084 45.8986 65.9209 46.0027C66.1333 46.1067 66.302 46.2644 66.4269 46.4756C66.5516 46.6842 66.6231 46.9381 66.6414 47.2373L66.8067 50.002L66.1336 50.0431ZM73.3992 49.7133C73.0164 49.7367 72.6823 49.6617 72.3969 49.4883C72.1113 49.3124 71.8837 49.0655 71.7142 48.7476C71.5471 48.4296 71.451 48.0652 71.4259 47.6546C71.4008 47.2439 71.4518 46.8705 71.5788 46.5345C71.7084 46.1984 71.9043 45.9281 72.1666 45.7238C72.4288 45.5169 72.75 45.4018 73.1302 45.3786C73.5181 45.3549 73.8496 45.4287 74.1247 45.6002C74.3998 45.7717 74.6146 46.0168 74.7689 46.3356C74.9258 46.6543 75.0169 47.0202 75.0422 47.4334C75.0671 47.8415 75.0212 48.2146 74.9045 48.5525C74.7902 48.8877 74.607 49.1598 74.3552 49.3685C74.1032 49.5748 73.7845 49.6897 73.3992 49.7133ZM73.4449 49.0883C73.7212 49.0714 73.9441 48.9916 74.1135 48.849C74.2827 48.7038 74.402 48.512 74.4714 48.2736C74.5432 48.0326 74.5699 47.7625 74.5516 47.4634C74.533 47.1592 74.4736 46.8944 74.3733 46.669C74.2754 46.4409 74.135 46.2675 73.9522 46.1489C73.7692 46.0278 73.5433 45.9754 73.2746 45.9919C72.9958 46.0089 72.7693 46.0915 72.5951 46.2395C72.4235 46.3874 72.3005 46.5807 72.226 46.8194C72.1541 47.0579 72.1269 47.3216 72.1446 47.6106C72.1624 47.9021 72.2229 48.1631 72.3261 48.3934C72.4291 48.6212 72.5735 48.7981 72.7593 48.9242C72.9477 49.05 73.1762 49.1048 73.4449 49.0883ZM74.6775 49.5206L74.4926 46.4975L74.4165 46.5022L74.2665 44.0495L74.9472 44.0079L75.2821 49.4836L74.6775 49.5206ZM78.1036 49.4256C77.6955 49.4505 77.3374 49.3795 77.0295 49.2126C76.7241 49.0455 76.4816 48.8034 76.3019 48.4861C76.1222 48.1689 76.0194 47.7986 75.9935 47.3752C75.9671 46.9443 76.0251 46.5616 76.1675 46.2272C76.3099 45.8928 76.5239 45.6265 76.8095 45.4284C77.095 45.2277 77.4379 45.1151 77.8385 45.0906C78.2492 45.0655 78.6085 45.1364 78.9164 45.3033C79.2241 45.4677 79.4666 45.7086 79.6438 46.026C79.8233 46.3407 79.9261 46.7098 79.9519 47.1331C79.9781 47.5615 79.9214 47.9442 79.7817 48.2809C79.6418 48.6152 79.4293 48.8839 79.144 49.0871C78.8585 49.2878 78.5117 49.4006 78.1036 49.4256ZM78.0643 48.7829C78.4902 48.7569 78.7984 48.5955 78.9889 48.2989C79.1794 48.0023 79.2609 47.6283 79.2333 47.1771C79.2049 46.7132 79.0771 46.3507 78.85 46.0898C78.6227 45.8264 78.2986 45.7075 77.8778 45.7333C77.5913 45.7508 77.3595 45.8298 77.1824 45.9704C77.0052 46.111 76.878 46.2982 76.8007 46.532C76.7234 46.7657 76.6939 47.0321 76.7122 47.3313C76.7404 47.7926 76.8695 48.1562 77.0995 48.4221C77.3295 48.6879 77.6511 48.8082 78.0643 48.7829ZM80.991 49.1345L80.6492 43.5447L81.326 43.5033L81.6679 49.0931L80.991 49.1345ZM84.565 49.0304C84.1569 49.0553 83.7988 48.9844 83.4909 48.8174C83.1855 48.6504 82.943 48.4082 82.7633 48.091C82.5836 47.7737 82.4808 47.4034 82.4549 46.98C82.4285 46.5491 82.4865 46.1664 82.6289 45.832C82.7713 45.4976 82.9853 45.2313 83.2709 45.0332C83.5564 44.8325 83.8993 44.7199 84.2999 44.6955C84.7106 44.6703 85.0699 44.7412 85.3778 44.9082C85.6855 45.0725 85.928 45.3134 86.1052 45.6308C86.2847 45.9456 86.3875 46.3146 86.4133 46.738C86.4395 47.1664 86.3828 47.549 86.2431 47.8858C86.1032 48.22 85.8906 48.4887 85.6054 48.6919C85.3199 48.8926 84.9731 49.0054 84.565 49.0304ZM84.5257 48.3877C84.9516 48.3617 85.2598 48.2004 85.4503 47.9037C85.6408 47.6071 85.7223 47.2331 85.6947 46.7819C85.6663 46.318 85.5385 45.9556 85.3114 45.6947C85.0841 45.4312 84.76 45.3124 84.3392 45.3381C84.0527 45.3556 83.8209 45.4347 83.6438 45.5753C83.4666 45.7159 83.3394 45.9031 83.2621 46.1368C83.1848 46.3705 83.1553 46.637 83.1736 46.9361C83.2018 47.3975 83.3309 47.7611 83.5609 48.0269C83.7909 48.2927 84.1125 48.413 84.5257 48.3877ZM87.3764 48.7439L87.1252 44.6372L87.7298 44.6002L87.7905 45.5927L87.6837 45.4694C87.7242 45.3397 87.7791 45.2193 87.8487 45.1082C87.9208 44.9969 88.0029 44.9041 88.095 44.8298C88.1962 44.7371 88.3126 44.6638 88.4442 44.6099C88.5757 44.5561 88.711 44.5211 88.85 44.505C88.9888 44.4863 89.1199 44.4872 89.2432 44.5076L89.2821 45.1427C89.1378 45.1133 88.9813 45.1127 88.8125 45.1408C88.6437 45.169 88.4904 45.2407 88.3524 45.356C88.2263 45.4579 88.1306 45.5782 88.0653 45.7171C88.0025 45.8558 87.962 46.0046 87.9437 46.1634C87.9253 46.3198 87.9211 46.4791 87.931 46.6413L88.057 48.7023L87.3764 48.7439ZM93.2942 48.4927C92.8049 48.5226 92.3966 48.4407 92.0692 48.247C91.7442 48.0506 91.5345 47.7619 91.4399 47.3809L92.1252 47.2283C92.1946 47.448 92.3335 47.6176 92.5418 47.7372C92.75 47.8542 93.0024 47.9037 93.299 47.8855C93.5804 47.8683 93.7974 47.7965 93.95 47.6702C94.1025 47.5438 94.1727 47.3804 94.1605 47.1802C94.1533 47.0636 94.121 46.9714 94.0634 46.9037C94.0057 46.8334 93.8912 46.7717 93.72 46.7186C93.5514 46.6653 93.297 46.6045 92.9569 46.5362C92.5885 46.4621 92.2972 46.3794 92.083 46.2882C91.8688 46.1969 91.7131 46.0856 91.616 45.9541C91.5189 45.8226 91.4644 45.6593 91.4524 45.4641C91.4377 45.2233 91.4908 45.0088 91.6116 44.8208C91.7322 44.6302 91.9074 44.4783 92.1371 44.365C92.3694 44.2516 92.6427 44.1852 92.957 44.166C93.2688 44.1469 93.5507 44.1793 93.8027 44.2631C94.0546 44.347 94.2609 44.4756 94.4217 44.6489C94.5848 44.8196 94.6876 45.0245 94.7303 45.2637L94.0459 45.4315C93.9994 45.2129 93.8823 45.0458 93.6946 44.93C93.5094 44.8141 93.2759 44.761 92.994 44.7706C92.7272 44.7767 92.5133 44.8369 92.3524 44.9511C92.1939 45.0651 92.1202 45.2108 92.131 45.3883C92.1371 45.4871 92.1727 45.5702 92.2379 45.6375C92.3056 45.7046 92.425 45.7647 92.5962 45.8178C92.7699 45.8708 93.0203 45.928 93.3472 45.9895C93.7153 46.0586 94.0066 46.1412 94.2211 46.2375C94.438 46.3311 94.5954 46.4487 94.6931 46.5904C94.7906 46.7294 94.8459 46.9054 94.859 47.1184C94.8831 47.5138 94.7565 47.8346 94.4789 48.0806C94.2011 48.324 93.8062 48.4614 93.2942 48.4927ZM95.5492 43.393L95.5064 42.6933L96.1833 42.6519L96.2261 43.3516L95.5492 43.393ZM95.8448 48.226L95.5937 44.1192L96.2705 44.0778L96.5217 48.1846L95.8448 48.226ZM99.9556 47.9746C99.7152 48.0377 99.4755 48.0714 99.2366 48.0758C99.0004 48.0827 98.7871 48.0486 98.5967 47.9737C98.4063 47.8963 98.2572 47.7681 98.1495 47.5889C98.0585 47.4316 98.0041 47.2708 97.9865 47.1065C97.9712 46.9395 97.9571 46.7508 97.9442 46.5404L97.7181 42.8443L98.395 42.8029L98.6192 46.4686C98.6294 46.6359 98.6395 46.779 98.6493 46.898C98.6616 47.0169 98.6945 47.1179 98.748 47.2011C98.8492 47.3578 98.9995 47.444 99.1989 47.4598C99.4009 47.4755 99.6412 47.4531 99.92 47.3928L99.9556 47.9746ZM96.9893 44.595L96.9552 44.036L99.7044 43.8678L99.7386 44.4268L96.9893 44.595ZM103.486 47.8732C103.179 47.8919 102.919 47.8519 102.704 47.7531C102.492 47.6516 102.327 47.5115 102.209 47.333C102.094 47.1543 102.029 46.9547 102.016 46.7341C102.003 46.5186 102.032 46.3298 102.103 46.1677C102.177 46.0029 102.286 45.8639 102.429 45.7508C102.572 45.6352 102.746 45.5406 102.95 45.4671C103.142 45.4019 103.357 45.3429 103.595 45.2902C103.836 45.2347 104.08 45.1829 104.326 45.1348C104.573 45.0866 104.803 45.0408 105.016 44.9972L104.782 45.1527C104.767 44.7872 104.677 44.5217 104.512 44.3563C104.349 44.1907 104.08 44.1193 103.705 44.1423C103.456 44.1575 103.242 44.2278 103.061 44.3534C102.883 44.4762 102.763 44.6668 102.703 44.9249L102.048 44.7703C102.125 44.4043 102.299 44.1099 102.571 43.8872C102.842 43.6645 103.21 43.539 103.674 43.5106C104.046 43.4878 104.37 43.5354 104.644 43.6535C104.921 43.7689 105.126 43.9574 105.259 44.219C105.325 44.3422 105.37 44.4781 105.395 44.6267C105.419 44.7728 105.436 44.927 105.446 45.0892L105.601 47.6293L105 47.6661L104.94 46.6812L105.086 46.7639C104.952 47.1054 104.751 47.3697 104.482 47.5566C104.216 47.7433 103.884 47.8488 103.486 47.8732ZM103.554 47.3003C103.798 47.2854 104.005 47.2295 104.178 47.1324C104.352 47.0327 104.49 46.9085 104.59 46.7599C104.69 46.6087 104.751 46.4472 104.774 46.2753C104.804 46.1463 104.816 46.0043 104.809 45.8495C104.804 45.6921 104.8 45.5715 104.795 45.4878L105.037 45.5761C104.818 45.62 104.603 45.6624 104.392 45.7033C104.18 45.7442 103.981 45.787 103.793 45.8315C103.604 45.8736 103.436 45.9208 103.286 45.9732C103.177 46.0155 103.074 46.0676 102.979 46.1294C102.886 46.1911 102.812 46.2681 102.756 46.3606C102.703 46.4503 102.681 46.5599 102.689 46.6891C102.695 46.8007 102.73 46.9055 102.792 47.0034C102.856 47.1013 102.95 47.1782 103.073 47.2343C103.199 47.2903 103.359 47.3123 103.554 47.3003ZM111.499 47.2686L111.342 44.6408C111.323 44.3341 111.226 44.0996 111.051 43.9373C110.878 43.7723 110.661 43.6978 110.4 43.7137C110.248 43.723 110.105 43.7674 109.973 43.8467C109.84 43.9235 109.735 44.0394 109.658 44.1942C109.581 44.3465 109.549 44.538 109.564 44.7687L109.197 44.646C109.174 44.3548 109.218 44.0964 109.329 43.8708C109.443 43.6425 109.604 43.4608 109.815 43.3258C110.026 43.1908 110.268 43.1149 110.542 43.0982C110.97 43.072 111.315 43.1819 111.577 43.428C111.839 43.6715 111.983 44.0126 112.01 44.4511L112.176 47.2272L111.499 47.2686ZM106.586 47.5691L106.335 43.4623L106.939 43.4254L107.007 44.5243L107.083 44.5196L107.267 47.5275L106.586 47.5691ZM109.046 47.4186L108.891 44.8175C108.872 44.5031 108.776 44.2622 108.602 44.0946C108.429 43.9246 108.208 43.8478 107.94 43.8642C107.673 43.8805 107.463 43.9849 107.31 44.1775C107.156 44.3701 107.089 44.6172 107.107 44.9189L106.737 44.7278C106.72 44.4617 106.769 44.2195 106.883 44.0013C106.997 43.7832 107.159 43.6078 107.37 43.4754C107.581 43.3403 107.824 43.2644 108.1 43.2475C108.377 43.2306 108.621 43.2742 108.833 43.3782C109.046 43.4823 109.215 43.6399 109.339 43.8511C109.464 44.0597 109.536 44.3136 109.554 44.6128L109.719 47.3775L109.046 47.4186ZM114.919 47.1739C114.516 47.1986 114.159 47.1314 113.846 46.9724C113.536 46.8107 113.287 46.5753 113.101 46.2661C112.914 45.9544 112.807 45.5843 112.781 45.1559C112.753 44.7072 112.812 44.3143 112.957 43.9772C113.101 43.6376 113.315 43.37 113.599 43.1746C113.884 42.9765 114.226 42.8652 114.624 42.8409C115.037 42.8156 115.394 42.8892 115.695 43.0617C115.998 43.234 116.232 43.4919 116.398 43.8354C116.567 44.1788 116.656 44.5945 116.666 45.0824L115.981 45.1243L115.966 44.8809C115.928 44.3769 115.802 44.0067 115.589 43.7704C115.376 43.5315 115.074 43.424 114.684 43.4479C114.266 43.4735 113.956 43.6273 113.754 43.9093C113.553 44.1914 113.467 44.5834 113.498 45.0853C113.527 45.5695 113.659 45.938 113.894 46.1909C114.128 46.4437 114.447 46.5578 114.85 46.5332C115.121 46.5166 115.353 46.4401 115.546 46.3036C115.738 46.1671 115.885 45.9788 115.984 45.7386L116.648 45.9232C116.511 46.2955 116.287 46.5916 115.977 46.8115C115.67 47.0288 115.317 47.1496 114.919 47.1739ZM113.281 45.2894L113.248 44.7456L116.282 44.5601L116.316 45.1038L113.281 45.2894ZM119.919 46.7537C119.679 46.8167 119.439 46.8505 119.2 46.8549C118.964 46.8617 118.751 46.8277 118.56 46.7528C118.37 46.6754 118.221 46.5471 118.113 46.3679C118.022 46.2107 117.968 46.0499 117.95 45.8856C117.935 45.7185 117.921 45.5298 117.908 45.3194L117.682 41.6233L118.358 41.5819L118.583 45.2476C118.593 45.4149 118.603 45.5581 118.613 45.6771C118.625 45.7959 118.658 45.897 118.711 45.9802C118.813 46.1369 118.963 46.2231 119.162 46.2389C119.364 46.2545 119.605 46.2322 119.883 46.1719L119.919 46.7537ZM116.953 43.374L116.919 42.815L119.668 42.6469L119.702 43.2059L116.953 43.374ZM120.729 47.5591L120.751 47.2409C120.858 47.242 120.937 47.2169 120.987 47.1654C121.038 47.114 121.068 47.046 121.078 46.9614C121.088 46.8768 121.085 46.7842 121.068 46.6834L120.677 46.7073L120.624 45.848L121.37 45.8024L121.429 46.7758C121.445 47.042 121.392 47.2463 121.268 47.3887C121.147 47.531 120.967 47.5878 120.729 47.5591ZM124.468 46.4755L124.126 40.8857L124.803 40.8443L125.145 46.4341L124.468 46.4755ZM126.066 41.5266L126.024 40.8269L126.7 40.7855L126.743 41.4852L126.066 41.5266ZM126.362 46.3596L126.111 42.2529L126.788 42.2115L127.039 46.3182L126.362 46.3596ZM129.96 48.0861C129.745 48.0993 129.532 48.0792 129.323 48.0259C129.113 47.9725 128.918 47.8839 128.738 47.7601C128.56 47.6387 128.408 47.4801 128.281 47.2842L128.881 46.9193C128.995 47.1134 129.147 47.2504 129.338 47.3303C129.531 47.4101 129.726 47.444 129.924 47.4319C130.185 47.4159 130.399 47.3545 130.565 47.2476C130.732 47.1433 130.85 46.9948 130.92 46.8023C130.992 46.6096 131.018 46.3738 130.999 46.0951L130.93 44.9734L131.01 44.9685L130.826 41.9645L131.427 41.9277L131.68 46.0611C131.687 46.1727 131.689 46.2806 131.688 46.385C131.689 46.4893 131.683 46.5927 131.669 46.6954C131.634 46.9902 131.543 47.2362 131.397 47.4334C131.252 47.6331 131.058 47.7862 130.815 47.8927C130.572 48.0016 130.287 48.0661 129.96 48.0861ZM129.799 46.2639C129.416 46.2873 129.082 46.2124 128.797 46.039C128.511 45.8631 128.284 45.6162 128.114 45.2983C127.947 44.9803 127.851 44.6159 127.826 44.2052C127.801 43.7945 127.852 43.4212 127.979 43.0852C128.108 42.749 128.304 42.4788 128.566 42.2744C128.829 42.0676 129.15 41.9525 129.53 41.9292C129.918 41.9055 130.249 41.9794 130.525 42.1509C130.8 42.3223 131.014 42.5675 131.169 42.8863C131.326 43.2049 131.417 43.5708 131.442 43.9841C131.467 44.3922 131.421 44.7652 131.304 45.1032C131.19 45.4384 131.007 45.7104 130.755 45.9192C130.503 46.1255 130.184 46.2404 129.799 46.2639ZM129.845 45.639C130.121 45.6221 130.344 45.5423 130.513 45.3996C130.683 45.2544 130.802 45.0627 130.871 44.8243C130.943 44.5833 130.97 44.3132 130.951 44.0141C130.933 43.7099 130.873 43.445 130.773 43.2196C130.675 42.9915 130.535 42.8182 130.352 42.6996C130.169 42.5785 129.943 42.5261 129.674 42.5425C129.396 42.5596 129.169 42.6422 128.995 42.7902C128.823 42.9381 128.7 43.1314 128.626 43.37C128.554 43.6085 128.527 43.8723 128.544 44.1613C128.562 44.4528 128.623 44.7137 128.726 44.9441C128.829 45.1719 128.973 45.3488 129.159 45.4748C129.348 45.6007 129.576 45.6554 129.845 45.639ZM134.305 45.9807C134.042 45.9968 133.812 45.9689 133.617 45.8968C133.424 45.8247 133.262 45.7226 133.129 45.5908C132.996 45.459 132.889 45.3103 132.808 45.1448C132.726 44.9793 132.665 44.8088 132.624 44.6332C132.585 44.4574 132.561 44.2922 132.551 44.1376L132.413 41.8674L133.097 41.8256L133.223 43.8828C133.235 44.0754 133.264 44.2607 133.31 44.4385C133.357 44.6163 133.426 44.7749 133.519 44.9143C133.614 45.0535 133.735 45.1606 133.882 45.2356C134.032 45.3104 134.214 45.3412 134.43 45.3281C134.599 45.3177 134.752 45.2791 134.888 45.2122C135.024 45.1454 135.138 45.0519 135.23 44.9318C135.322 44.8091 135.389 44.6574 135.431 44.4767C135.473 44.296 135.487 44.0878 135.473 43.852L135.926 43.9617C135.95 44.3572 135.899 44.7026 135.772 44.9979C135.648 45.293 135.46 45.5259 135.208 45.6965C134.959 45.8644 134.658 45.9591 134.305 45.9807ZM135.668 45.7905L135.601 44.6916L135.525 44.6962L135.341 41.6884L136.021 41.6467L136.272 45.7535L135.668 45.7905ZM137.413 45.6838L137.071 40.094L137.748 40.0526L138.09 45.6424L137.413 45.6838ZM140.405 45.6153C140.099 45.634 139.838 45.594 139.623 45.4952C139.411 45.3936 139.246 45.2536 139.128 45.0751C139.013 44.8964 138.948 44.6967 138.935 44.4762C138.922 44.2607 138.951 44.0719 139.022 43.9098C139.096 43.7449 139.205 43.606 139.348 43.4929C139.491 43.3773 139.665 43.2827 139.869 43.2091C140.061 43.144 140.276 43.085 140.515 43.0323C140.755 42.9768 140.999 42.925 141.245 42.8769C141.492 42.8287 141.722 42.7828 141.936 42.7392L141.701 42.8948C141.686 42.5293 141.596 42.2638 141.431 42.0984C141.268 41.9327 140.999 41.8614 140.624 41.8844C140.375 41.8995 140.161 41.9699 139.98 42.0955C139.802 42.2183 139.683 42.4088 139.622 42.667L138.967 42.5124C139.044 42.1463 139.218 41.852 139.49 41.6293C139.761 41.4066 140.129 41.281 140.593 41.2527C140.965 41.2299 141.289 41.2775 141.563 41.3956C141.84 41.511 142.045 41.6995 142.178 41.961C142.244 42.0842 142.289 42.2201 142.314 42.3688C142.338 42.5149 142.355 42.6691 142.365 42.8313L142.52 45.3714L141.919 45.4082L141.859 44.4233L142.005 44.506C141.871 44.8475 141.67 45.1117 141.401 45.2986C141.135 45.4854 140.803 45.5909 140.405 45.6153ZM140.473 45.0424C140.717 45.0275 140.924 44.9716 141.097 44.8745C141.271 44.7748 141.409 44.6506 141.509 44.502C141.609 44.3508 141.671 44.1893 141.693 44.0174C141.723 43.8883 141.735 43.7464 141.728 43.5916C141.724 43.4341 141.719 43.3136 141.714 43.2299L141.956 43.3182C141.737 43.3621 141.522 43.4045 141.311 43.4454C141.1 43.4863 140.9 43.529 140.712 43.5736C140.523 43.6157 140.355 43.6629 140.205 43.7153C140.096 43.7576 139.993 43.8097 139.898 43.8715C139.805 43.9332 139.731 44.0102 139.675 44.1027C139.622 44.1924 139.6 44.3019 139.608 44.4312C139.615 44.5428 139.649 44.6475 139.711 44.7455C139.775 44.8434 139.869 44.9203 139.992 44.9764C140.118 45.0323 140.278 45.0543 140.473 45.0424ZM146.818 45.2231C146.415 45.2477 146.057 45.1806 145.745 45.0216C145.434 44.8599 145.186 44.6244 144.999 44.3152C144.812 44.0035 144.705 43.6334 144.679 43.205C144.652 42.7563 144.71 42.3634 144.855 42.0263C145 41.6867 145.214 41.4192 145.497 41.2237C145.783 41.0256 146.124 40.9144 146.522 40.89C146.936 40.8647 147.293 40.9383 147.593 41.1108C147.896 41.2831 148.131 41.541 148.297 41.8845C148.466 42.2279 148.555 42.6436 148.564 43.1316L147.88 43.1734L147.865 42.9301C147.826 42.426 147.701 42.0559 147.488 41.8195C147.275 41.5806 146.973 41.4731 146.582 41.497C146.164 41.5226 145.854 41.6764 145.653 41.9585C145.451 42.2405 145.366 42.6325 145.396 43.1345C145.426 43.6186 145.558 43.9872 145.792 44.24C146.026 44.4929 146.345 44.607 146.748 44.5823C147.019 44.5657 147.251 44.4892 147.444 44.3527C147.637 44.2163 147.783 44.0279 147.883 43.7877L148.547 43.9723C148.409 44.3446 148.186 44.6407 147.876 44.8607C147.569 45.0779 147.216 45.1987 146.818 45.2231ZM145.18 43.3385L145.147 42.7948L148.181 42.6092L148.214 43.153L145.18 43.3385ZM151.305 46.7807C151.089 46.7939 150.877 46.7738 150.668 46.7205C150.458 46.6671 150.263 46.5785 150.083 46.4547C149.905 46.3333 149.753 46.1746 149.626 45.9788L150.226 45.6139C150.34 45.808 150.492 45.945 150.682 46.0249C150.876 46.1047 151.071 46.1385 151.269 46.1264C151.53 46.1105 151.744 46.0491 151.91 45.9422C152.077 45.8378 152.195 45.6894 152.265 45.4968C152.337 45.3041 152.363 45.0684 152.344 44.7897L152.275 43.668L152.355 43.6631L152.171 40.6591L152.772 40.6223L153.025 44.7557C153.031 44.8672 153.034 44.9752 153.033 45.0796C153.034 45.1839 153.028 45.2873 153.014 45.3899C152.978 45.6847 152.888 45.9307 152.742 46.1279C152.597 46.3277 152.402 46.4808 152.16 46.5872C151.917 46.6962 151.632 46.7607 151.305 46.7807ZM151.144 44.9585C150.761 44.9819 150.427 44.9069 150.142 44.7335C149.856 44.5576 149.628 44.3107 149.459 43.9929C149.292 43.6748 149.196 43.3105 149.171 42.8998C149.146 42.4891 149.197 42.1158 149.324 41.7798C149.453 41.4436 149.649 41.1733 149.911 40.969C150.174 40.7621 150.495 40.6471 150.875 40.6238C151.263 40.6001 151.594 40.674 151.869 40.8454C152.145 41.0169 152.359 41.262 152.514 41.5808C152.671 41.8995 152.762 42.2654 152.787 42.6786C152.812 43.0868 152.766 43.4598 152.649 43.7977C152.535 44.133 152.352 44.405 152.1 44.6138C151.848 44.82 151.529 44.9349 151.144 44.9585ZM151.19 44.3336C151.466 44.3167 151.689 44.2369 151.858 44.0942C152.027 43.949 152.147 43.7572 152.216 43.5189C152.288 43.2779 152.315 43.0078 152.296 42.7086C152.278 42.4044 152.218 42.1396 152.118 41.9142C152.02 41.6861 151.88 41.5127 151.697 41.3942C151.514 41.273 151.288 41.2207 151.019 41.2371C150.741 41.2542 150.514 41.3367 150.34 41.4848C150.168 41.6327 150.045 41.826 149.971 42.0646C149.899 42.3031 149.872 42.5669 149.889 42.8558C149.907 43.1474 149.968 43.4083 150.071 43.6386C150.174 43.8664 150.318 44.0434 150.504 44.1694C150.692 44.2953 150.921 44.35 151.19 44.3336ZM155.841 44.6712C155.433 44.6962 155.075 44.6252 154.767 44.4583C154.461 44.2912 154.219 44.0491 154.039 43.7318C153.859 43.4146 153.757 43.0443 153.731 42.6209C153.704 42.19 153.762 41.8073 153.905 41.4729C154.047 41.1385 154.261 40.8722 154.547 40.6741C154.832 40.4734 155.175 40.3608 155.576 40.3363C155.986 40.3112 156.346 40.3821 156.654 40.549C156.961 40.7134 157.204 40.9543 157.381 41.2717C157.561 41.5864 157.663 41.9555 157.689 42.3788C157.715 42.8072 157.659 43.1898 157.519 43.5266C157.379 43.8609 157.167 44.1296 156.881 44.3328C156.596 44.5335 156.249 44.6463 155.841 44.6712ZM155.802 44.0286C156.227 44.0026 156.536 43.8412 156.726 43.5446C156.917 43.2479 156.998 42.874 156.971 42.4228C156.942 41.9589 156.814 41.5964 156.587 41.3355C156.36 41.0721 156.036 40.9532 155.615 40.979C155.329 40.9965 155.097 41.0755 154.92 41.2161C154.743 41.3567 154.615 41.5439 154.538 41.7776C154.461 42.0114 154.431 42.2778 154.449 42.577C154.478 43.0383 154.607 43.4019 154.837 43.6678C155.067 43.9336 155.388 44.0539 155.802 44.0286ZM158.625 44.3864L158.58 43.6411L159.325 43.5956L159.371 44.3409L158.625 44.3864ZM27.2489 62.5544C26.8332 62.5799 26.4739 62.509 26.171 62.3417C25.8706 62.1718 25.6343 61.928 25.4622 61.6103C25.2901 61.2926 25.1887 60.9247 25.158 60.5067C25.1369 60.078 25.1937 59.6967 25.3285 59.3627C25.4657 59.0261 25.6745 58.7576 25.9548 58.5572C26.2352 58.3569 26.5807 58.2442 26.9914 58.219C27.4249 58.1925 27.8041 58.2762 28.1289 58.4701C28.4563 58.6638 28.6845 58.9425 28.8136 59.3061L28.1567 59.5485C28.0559 59.3155 27.9039 59.1391 27.7007 59.0192C27.4999 58.8991 27.2741 58.8468 27.0231 58.8621C26.7417 58.8794 26.5138 58.9594 26.3393 59.1024C26.1647 59.2429 26.0401 59.4312 25.9655 59.6673C25.8907 59.9009 25.8611 60.166 25.8767 60.4628C25.9097 60.9188 26.0375 61.2812 26.26 61.55C26.4849 61.8162 26.8015 61.9368 27.2096 61.9118C27.4783 61.8954 27.6977 61.8209 27.8677 61.6884C28.0376 61.5533 28.161 61.3663 28.238 61.1275L28.9334 61.2644C28.8148 61.6559 28.6109 61.9622 28.3217 62.1835C28.0324 62.4047 27.6748 62.5284 27.2489 62.5544ZM31.4196 62.2994C31.0114 62.3243 30.6534 62.2534 30.3455 62.0864C30.0401 61.9194 29.7976 61.6772 29.6178 61.3599C29.4381 61.0427 29.3353 60.6724 29.3094 60.249C29.2831 59.8181 29.3411 59.4354 29.4835 59.101C29.6259 58.7666 29.8399 58.5003 30.1255 58.3022C30.4109 58.1015 30.7539 57.9889 31.1545 57.9644C31.5651 57.9393 31.9244 58.0102 32.2323 58.1771C32.5401 58.3415 32.7826 58.5824 32.9598 58.8998C33.1393 59.2145 33.242 59.5836 33.2679 60.0069C33.2941 60.4354 33.2374 60.818 33.0977 61.1548C32.9578 61.489 32.7452 61.7577 32.4599 61.9609C32.1745 62.1616 31.8277 62.2744 31.4196 62.2994ZM31.3803 61.6567C31.8062 61.6307 32.1144 61.4693 32.3049 61.1727C32.4954 60.8761 32.5768 60.5021 32.5492 60.0509C32.5209 59.587 32.3931 59.2246 32.1659 58.9636C31.9386 58.7002 31.6146 58.5813 31.1938 58.6071C30.9073 58.6246 30.6755 58.7037 30.4983 58.8443C30.3212 58.9849 30.194 59.172 30.1166 59.4058C30.0393 59.6395 30.0098 59.9059 30.0281 60.2051C30.0563 60.6665 30.1855 61.0301 30.4155 61.2959C30.6455 61.5617 30.9671 61.682 31.3803 61.6567ZM37.1551 61.8341L37.0293 59.7769C37.0174 59.5817 36.9882 59.3952 36.9417 59.2174C36.8977 59.0394 36.8283 58.8821 36.7334 58.7454C36.6409 58.606 36.5199 58.4989 36.3702 58.4241C36.2232 58.3491 36.0406 58.3183 35.8226 58.3316C35.6528 58.342 35.4999 58.3806 35.364 58.4474C35.2306 58.5116 35.1179 58.605 35.0262 58.7276C34.9345 58.8503 34.8662 59.0021 34.8212 59.1829C34.7787 59.3611 34.7647 59.5693 34.7793 59.8076L34.326 59.698C34.3017 59.2999 34.3518 58.9546 34.4764 58.662C34.6034 58.3667 34.7915 58.1351 35.0408 57.9672C35.2924 57.7966 35.5944 57.7005 35.9468 57.679C36.213 57.6627 36.4424 57.6907 36.6351 57.7628C36.8279 57.835 36.9906 57.937 37.1233 58.0689C37.2559 58.1982 37.363 58.3468 37.4445 58.5149C37.5259 58.6804 37.5859 58.851 37.6247 59.0267C37.6658 59.1998 37.6911 59.3649 37.7008 59.5221L37.8396 61.7922L37.1551 61.8341ZM34.2272 62.0132L33.976 57.9064L34.5844 57.8692L34.6516 58.9681L34.7277 58.9635L34.9116 61.9713L34.2272 62.0132ZM40.3864 61.7472C39.8971 61.7771 39.4888 61.6952 39.1614 61.5015C38.8365 61.305 38.6267 61.0164 38.5321 60.6354L39.2175 60.4828C39.2869 60.7024 39.4257 60.8721 39.6341 60.9916C39.8423 61.1087 40.0946 61.1581 40.3912 61.14C40.6726 61.1228 40.8896 61.051 41.0422 60.9246C41.1948 60.7982 41.2649 60.6349 41.2527 60.4346C41.2456 60.318 41.2132 60.2258 41.1556 60.1581C41.0979 60.0879 40.9834 60.0262 40.8122 59.973C40.6436 59.9197 40.3892 59.8589 40.0492 59.7907C39.6808 59.7165 39.3895 59.6338 39.1752 59.5426C38.961 59.4514 38.8053 59.34 38.7082 59.2086C38.6111 59.0771 38.5566 58.9138 38.5447 58.7186C38.53 58.4777 38.583 58.2633 38.7038 58.0752C38.8245 57.8847 38.9997 57.7327 39.2294 57.6194C39.4616 57.506 39.7349 57.4397 40.0493 57.4204C40.3611 57.4014 40.6429 57.4338 40.8949 57.5176C41.1468 57.6014 41.3532 57.73 41.5139 57.9034C41.677 58.0741 41.7799 58.279 41.8225 58.5181L41.1381 58.6859C41.0917 58.4674 40.9746 58.3002 40.7868 58.1845C40.6016 58.0686 40.3681 58.0154 40.0862 58.0251C39.8194 58.0312 39.6056 58.0913 39.4446 58.2055C39.2862 58.3195 39.2124 58.4653 39.2232 58.6427C39.2293 58.7416 39.2649 58.8246 39.3301 58.8919C39.3978 58.959 39.5173 59.0191 39.6885 59.0723C39.8622 59.1253 40.1125 59.1825 40.4394 59.2439C40.8075 59.313 41.0988 59.3957 41.3134 59.492C41.5303 59.5856 41.6876 59.7032 41.7853 59.8448C41.8829 59.9839 41.9382 60.1599 41.9512 60.3728C41.9754 60.7683 41.8487 61.089 41.5711 61.335C41.2934 61.5785 40.8985 61.7158 40.3864 61.7472ZM44.6476 61.4904C44.2445 61.515 43.8867 61.4478 43.5742 61.2888C43.264 61.1271 43.0156 60.8917 42.8287 60.5825C42.6417 60.2708 42.5351 59.9007 42.5089 59.4723C42.4815 59.0236 42.5401 58.6307 42.6849 58.2936C42.8295 57.954 43.0434 57.6864 43.3267 57.491C43.6122 57.2929 43.954 57.1816 44.352 57.1573C44.7653 57.132 45.1222 57.2056 45.4228 57.3781C45.726 57.5504 45.9606 57.8083 46.1266 58.1518C46.2952 58.4952 46.3842 58.9109 46.3937 59.3988L45.7093 59.4407L45.6944 59.1973C45.6559 58.6933 45.5302 58.3231 45.3173 58.0868C45.1042 57.8479 44.8025 57.7404 44.4121 57.7643C43.9938 57.7899 43.6839 57.9437 43.4823 58.2258C43.2807 58.5078 43.1953 58.8998 43.226 59.4017C43.2556 59.8859 43.3875 60.2544 43.6218 60.5073C43.8561 60.7601 44.1748 60.8742 44.5779 60.8496C44.8491 60.833 45.0811 60.7565 45.2737 60.62C45.4664 60.4835 45.6127 60.2952 45.7125 60.055L46.3764 60.2396C46.2389 60.6119 46.0153 60.908 45.7056 61.1279C45.3983 61.3452 45.0456 61.466 44.6476 61.4904ZM43.0094 59.6058L42.9762 59.062L46.0106 58.8765L46.0439 59.4202L43.0094 59.6058ZM49.0914 61.2186C48.6757 61.244 48.3164 61.1731 48.0135 61.0059C47.7131 60.836 47.4768 60.5921 47.3047 60.2744C47.1326 59.9567 47.0312 59.5889 47.0005 59.1709C46.9794 58.7422 47.0362 58.3608 47.171 58.0269C47.3082 57.6902 47.517 57.4217 47.7973 57.2214C48.0777 57.021 48.4232 56.9083 48.8339 56.8832C49.2674 56.8567 49.6466 56.9404 49.9714 57.1342C50.2988 57.3279 50.527 57.6066 50.6561 57.9702L49.9992 58.2127C49.8984 57.9797 49.7464 57.8032 49.5432 57.6833C49.3424 57.5633 49.1166 57.5109 48.8656 57.5263C48.5842 57.5435 48.3563 57.6236 48.1818 57.7666C48.0072 57.907 47.8826 58.0953 47.808 58.3314C47.7332 58.565 47.7036 58.8302 47.7192 59.1269C47.7522 59.5829 47.88 59.9453 48.1025 60.2142C48.3274 60.4803 48.644 60.6009 49.0521 60.5759C49.3208 60.5595 49.5402 60.485 49.7102 60.3525C49.8801 60.2174 50.0035 60.0305 50.0805 59.7917L50.7759 59.9285C50.6573 60.32 50.4534 60.6264 50.1642 60.8476C49.8749 61.0689 49.5173 61.1925 49.0914 61.2186ZM53.9103 60.8094C53.6698 60.8724 53.4302 60.9062 53.1913 60.9106C52.955 60.9174 52.7418 60.8834 52.5514 60.8085C52.3609 60.7311 52.2119 60.6028 52.1042 60.4236C52.0132 60.2664 51.9588 60.1056 51.9411 59.9412C51.9258 59.7742 51.9118 59.5855 51.8989 59.3751L51.6728 55.679L52.3497 55.6376L52.5739 59.3033C52.5841 59.4706 52.5941 59.6138 52.604 59.7328C52.6163 59.8516 52.6492 59.9526 52.7027 60.0359C52.8038 60.1926 52.9542 60.2788 53.1536 60.2946C53.3556 60.3102 53.5959 60.2879 53.8747 60.2276L53.9103 60.8094ZM50.944 57.4297L50.9098 56.8707L53.6591 56.7026L53.6933 57.2616L50.944 57.4297ZM56.3598 60.7741C55.9567 60.7987 55.5989 60.7315 55.2864 60.5725C54.9763 60.4108 54.7278 60.1754 54.5409 59.8662C54.3539 59.5545 54.2473 59.1844 54.2211 58.756C54.1937 58.3073 54.2523 57.9144 54.3971 57.5773C54.5417 57.2377 54.7557 56.9701 55.0389 56.7747C55.3245 56.5766 55.6663 56.4653 56.0643 56.441C56.4775 56.4157 56.8344 56.4893 57.135 56.6618C57.4382 56.8341 57.6728 57.092 57.8388 57.4355C58.0074 57.7789 58.0964 58.1946 58.1059 58.6825L57.4215 58.7244L57.4066 58.481C57.3681 57.977 57.2424 57.6068 57.0295 57.3705C56.8164 57.1316 56.5147 57.0241 56.1243 57.048C55.706 57.0736 55.3961 57.2274 55.1945 57.5094C54.9929 57.7915 54.9075 58.1835 54.9382 58.6854C54.9678 59.1696 55.0997 59.5381 55.334 59.791C55.5683 60.0438 55.887 60.1579 56.2901 60.1333C56.5613 60.1167 56.7933 60.0402 56.986 59.9037C57.1786 59.7672 57.3249 59.5789 57.4247 59.3387L58.0886 59.5233C57.9511 59.8956 57.7275 60.1917 57.4178 60.4116C57.1105 60.6289 56.7578 60.7497 56.3598 60.7741ZM54.7216 58.8895L54.6884 58.3457L57.7228 58.1602L57.7561 58.7039L54.7216 58.8895ZM61.3594 60.3538C61.119 60.4168 60.8794 60.4506 60.6404 60.455C60.4042 60.4618 60.1909 60.4278 60.0006 60.3529C59.8101 60.2755 59.6611 60.1472 59.5534 59.9681C59.4624 59.8108 59.408 59.65 59.3903 59.4857C59.375 59.3187 59.3609 59.13 59.3481 58.9195L59.122 55.2234L59.7989 55.1821L60.0231 58.8477C60.0333 59.015 60.0433 59.1582 60.0531 59.2772C60.0655 59.396 60.0984 59.4971 60.1518 59.5803C60.253 59.737 60.4033 59.8232 60.6028 59.839C60.8047 59.8546 61.0451 59.8323 61.3239 59.772L61.3594 60.3538ZM58.3932 56.9741L58.359 56.4151L61.1083 56.247L61.1425 56.806L58.3932 56.9741ZM63.7588 60.3139C63.4951 60.33 63.2657 60.3021 63.0704 60.2301C62.8777 60.1579 62.715 60.0559 62.5823 59.924C62.4495 59.7922 62.3425 59.6435 62.2611 59.478C62.1797 59.3125 62.1184 59.142 62.0771 58.9664C62.0384 58.7906 62.0143 58.6254 62.0048 58.4708L61.866 56.2007L62.5505 56.1588L62.6763 58.216C62.6881 58.4087 62.7172 58.5939 62.7637 58.7717C62.8102 58.9495 62.8797 59.1081 62.9722 59.2475C63.0672 59.3867 63.1883 59.4938 63.3354 59.5688C63.485 59.6436 63.6675 59.6745 63.883 59.6613C64.0528 59.6509 64.2057 59.6123 64.3416 59.5454C64.4774 59.4786 64.5913 59.3851 64.6832 59.265C64.7749 59.1424 64.842 58.9907 64.8844 58.81C64.9267 58.6293 64.9407 58.421 64.9263 58.1853L65.3796 58.2949C65.4038 58.6904 65.3524 59.0358 65.2254 59.3311C65.1009 59.6262 64.9129 59.8591 64.6612 60.0297C64.412 60.1976 64.1112 60.2924 63.7588 60.3139ZM65.1212 60.1237L65.054 59.0248L64.9779 59.0294L64.794 56.0216L65.4746 55.98L65.7258 60.0867L65.1212 60.1237ZM68.577 60.0269C68.174 60.0515 67.8162 59.9843 67.5036 59.8253C67.1935 59.6636 66.945 59.4282 66.7582 59.119C66.5712 58.8073 66.4646 58.4372 66.4384 58.0088C66.4109 57.5601 66.4696 57.1672 66.6144 56.8301C66.759 56.4905 66.9729 56.2229 67.2561 56.0275C67.5417 55.8294 67.8835 55.7181 68.2815 55.6938C68.6947 55.6685 69.0516 55.7421 69.3523 55.9146C69.6554 56.0869 69.89 56.3448 70.0561 56.6883C70.2247 57.0317 70.3137 57.4474 70.3232 57.9353L69.6387 57.9772L69.6238 57.7338C69.5854 57.2298 69.4597 56.8597 69.2467 56.6233C69.0337 56.3844 68.7319 56.2769 68.3415 56.3008C67.9232 56.3264 67.6133 56.4802 67.4117 56.7623C67.2102 57.0443 67.1247 57.4363 67.1554 57.9382C67.185 58.4224 67.317 58.791 67.5513 59.0438C67.7856 59.2966 68.1042 59.4107 68.5073 59.3861C68.7786 59.3695 69.0105 59.293 69.2032 59.1565C69.3959 59.02 69.5421 58.8317 69.6419 58.5915L70.3059 58.7761C70.1684 59.1484 69.9447 59.4445 69.635 59.6645C69.3277 59.8817 68.975 60.0025 68.577 60.0269ZM66.9389 58.1423L66.9056 57.5986L69.9401 57.413L69.9733 57.9567L66.9389 58.1423ZM71.2837 59.7468L71.0326 55.6401L71.6372 55.6031L71.6979 56.5955L71.5911 56.4723C71.6315 56.3426 71.6865 56.2222 71.756 56.1111C71.8281 55.9998 71.9102 55.907 72.0024 55.8326C72.1036 55.7399 72.22 55.6667 72.3515 55.6128C72.4831 55.559 72.6183 55.524 72.7573 55.5079C72.8961 55.4892 73.0272 55.4901 73.1506 55.5105L73.1894 56.1455C73.0452 56.1162 72.8886 56.1156 72.7199 56.1437C72.5511 56.1719 72.3977 56.2436 72.2597 56.3589C72.1337 56.4608 72.038 56.5811 71.9727 56.72C71.9099 56.8587 71.8694 57.0074 71.8511 57.1663C71.8327 57.3227 71.8284 57.482 71.8383 57.6442L71.9644 59.7052L71.2837 59.7468ZM76.8177 59.5229C76.5109 59.5416 76.2502 59.5016 76.0355 59.4028C75.8232 59.3013 75.6582 59.1612 75.5404 58.9827C75.4251 58.804 75.3608 58.6044 75.3473 58.3838C75.3341 58.1683 75.3632 57.9795 75.4348 57.8174C75.5086 57.6526 75.6172 57.5136 75.7604 57.4005C75.9035 57.2849 76.0771 57.1903 76.2812 57.1168C76.4732 57.0516 76.6884 56.9926 76.9269 56.9399C77.1678 56.8844 77.4114 56.8326 77.6578 56.7845C77.9043 56.7363 78.1343 56.6905 78.3479 56.6469L78.1131 56.8024C78.0984 56.4369 78.0084 56.1714 77.8431 56.006C77.6803 55.8404 77.4113 55.769 77.0361 55.792C76.7876 55.8072 76.5731 55.8775 76.3925 56.0031C76.2143 56.1259 76.0949 56.3165 76.0343 56.5746L75.3798 56.42C75.4567 56.054 75.6308 55.7596 75.9022 55.5369C76.1735 55.3142 76.5412 55.1886 77.0051 55.1603C77.3777 55.1375 77.7013 55.1851 77.9757 55.3032C78.2524 55.4186 78.4573 55.6071 78.5904 55.8687C78.6564 55.9919 78.7017 56.1278 78.726 56.2764C78.7502 56.4225 78.7673 56.5767 78.7772 56.7389L78.9325 59.279L78.3317 59.3158L78.2715 58.3309L78.4178 58.4136C78.2835 58.7551 78.0821 59.0193 77.8136 59.2062C77.5477 59.393 77.2157 59.4985 76.8177 59.5229ZM76.8857 58.95C77.1291 58.9351 77.3368 58.8792 77.509 58.7821C77.6836 58.6824 77.821 58.5582 77.9214 58.4096C78.0215 58.2584 78.0829 58.0969 78.1055 57.925C78.1357 57.796 78.1474 57.654 78.1405 57.4992C78.1359 57.3418 78.1311 57.2212 78.126 57.1375L78.368 57.2258C78.1494 57.2697 77.9344 57.3121 77.7232 57.353C77.5119 57.3939 77.3122 57.4367 77.1241 57.4812C76.9359 57.5233 76.767 57.5705 76.6175 57.6229C76.5081 57.6652 76.4057 57.7173 76.3103 57.7791C76.2174 57.8408 76.1432 57.9178 76.0878 58.0103C76.0347 58.1 76.0122 58.2096 76.0201 58.3388C76.0269 58.4504 76.0613 58.5551 76.1233 58.6531C76.1878 58.751 76.2816 58.8279 76.4046 58.884C76.5301 58.94 76.6905 58.962 76.8857 58.95ZM81.5405 59.234C81.1577 59.2575 80.8236 59.1825 80.5382 59.0091C80.2526 58.8332 80.025 58.5863 79.8555 58.2684C79.6884 57.9504 79.5924 57.586 79.5672 57.1753C79.5421 56.7647 79.5931 56.3913 79.7201 56.0553C79.8497 55.7191 80.0456 55.4489 80.3079 55.2445C80.5701 55.0377 80.8913 54.9226 81.2716 54.8993C81.6594 54.8756 81.9909 54.9495 82.266 55.121C82.5412 55.2924 82.7559 55.5376 82.9102 55.8564C83.0671 56.175 83.1582 56.541 83.1835 56.9542C83.2085 57.3623 83.1626 57.7353 83.0458 58.0733C82.9315 58.4085 82.7484 58.6805 82.4965 58.8893C82.2445 59.0956 81.9258 59.2105 81.5405 59.234ZM81.5862 58.6091C81.8626 58.5922 82.0854 58.5124 82.2548 58.3697C82.424 58.2245 82.5434 58.0328 82.6127 57.7944C82.6845 57.5534 82.7113 57.2833 82.693 56.9842C82.6744 56.68 82.6149 56.4152 82.5146 56.1897C82.4167 55.9616 82.2763 55.7883 82.0935 55.6697C81.9105 55.5486 81.6847 55.4962 81.4159 55.5127C81.1371 55.5297 80.9106 55.6123 80.7364 55.7603C80.5648 55.9082 80.4418 56.1015 80.3673 56.3401C80.2954 56.5786 80.2683 56.8424 80.2859 57.1314C80.3038 57.4229 80.3643 57.6838 80.4674 57.9142C80.5704 58.142 80.7148 58.3189 80.9006 58.4449C81.089 58.5708 81.3175 58.6255 81.5862 58.6091ZM82.8188 59.0414L82.6339 56.0183L82.5578 56.023L82.4078 53.5703L83.0885 53.5287L83.4234 59.0044L82.8188 59.0414ZM84.2692 54.1015L84.2264 53.4018L84.9033 53.3604L84.9461 54.0601L84.2692 54.1015ZM84.5648 58.9346L84.3136 54.8278L84.9905 54.7864L85.2417 58.8932L84.5648 58.9346ZM88.2757 58.8221C87.8903 58.8457 87.56 58.7705 87.2848 58.5965C87.0093 58.4199 86.7932 58.1723 86.6363 57.8537C86.4818 57.5323 86.392 57.1676 86.3671 56.7595C86.3418 56.3463 86.3863 55.972 86.5007 55.6368C86.6176 55.3014 86.8021 55.0318 87.0543 54.8281C87.309 54.6243 87.629 54.5105 88.0144 54.487C88.3946 54.4637 88.7274 54.5388 89.0129 54.7122C89.3007 54.8829 89.5281 55.1272 89.6951 55.4452C89.8621 55.7633 89.9582 56.1276 89.9833 56.5383C90.0084 56.949 89.9575 57.3223 89.8304 57.6583C89.7034 57.9944 89.5076 58.2671 89.2431 58.4767C88.9809 58.6836 88.6585 58.7987 88.2757 58.8221ZM86.4904 60.6489L86.1276 54.7169L86.7323 54.6799L86.9171 57.7029L86.9932 57.6983L87.1711 60.6072L86.4904 60.6489ZM88.1541 58.2074C88.4254 58.1908 88.6455 58.1087 88.8146 57.9609C88.9837 57.8132 89.1055 57.62 89.1799 57.3813C89.2542 57.1401 89.2825 56.8738 89.2646 56.5823C89.247 56.2933 89.1866 56.0349 89.0836 55.8071C88.9832 55.5791 88.8375 55.4023 88.6466 55.2765C88.4583 55.1507 88.2246 55.0962 87.9458 55.1133C87.6796 55.1296 87.4631 55.209 87.2962 55.3515C87.1292 55.4915 87.0098 55.6807 86.9378 55.9192C86.8657 56.1552 86.839 56.4253 86.8576 56.7295C86.8759 57.0286 86.9341 57.2935 87.0322 57.5241C87.1326 57.7521 87.2757 57.9278 87.4614 58.0513C87.6469 58.1723 87.8778 58.2243 88.1541 58.2074ZM90.7232 53.7068L90.6804 53.0071L91.3573 52.9657L91.4001 53.6654L90.7232 53.7068ZM91.0188 58.5399L90.7676 54.4331L91.4445 54.3917L91.6956 58.4985L91.0188 58.5399ZM94.3948 58.4441C93.9055 58.474 93.4972 58.3921 93.1698 58.1984C92.8448 58.002 92.6351 57.7133 92.5405 57.3323L93.2258 57.1797C93.2953 57.3994 93.4341 57.569 93.6425 57.6886C93.8506 57.8056 94.103 57.855 94.3996 57.8369C94.681 57.8197 94.898 57.7479 95.0506 57.6215C95.2032 57.4951 95.2733 57.3318 95.2611 57.1316C95.2539 57.0149 95.2216 56.9228 95.164 56.855C95.1063 56.7848 94.9918 56.7231 94.8206 56.6699C94.652 56.6166 94.3976 56.5559 94.0576 56.4876C93.6892 56.4134 93.3978 56.3307 93.1836 56.2395C92.9694 56.1483 92.8137 56.037 92.7166 55.9055C92.6195 55.774 92.565 55.6107 92.5531 55.4155C92.5383 55.1747 92.5914 54.9602 92.7122 54.7722C92.8329 54.5816 93.008 54.4296 93.2378 54.3164C93.47 54.2029 93.7433 54.1366 94.0576 54.1174C94.3695 54.0983 94.6513 54.1307 94.9033 54.2145C95.1552 54.2983 95.3616 54.4269 95.5223 54.6003C95.6854 54.771 95.7883 54.9759 95.8309 55.215L95.1465 55.3828C95.1 55.1643 94.983 54.9972 94.7952 54.8814C94.61 54.7655 94.3765 54.7124 94.0946 54.722C93.8278 54.7281 93.6139 54.7883 93.453 54.9024C93.2946 55.0165 93.2208 55.1622 93.2316 55.3396C93.2377 55.4385 93.2733 55.5216 93.3385 55.5888C93.4062 55.6559 93.5256 55.7161 93.6968 55.7692C93.8706 55.8222 94.1209 55.8794 94.4478 55.9408C94.8159 56.0099 95.1072 56.0926 95.3217 56.1889C95.5387 56.2825 95.696 56.4001 95.7937 56.5417C95.8913 56.6808 95.9466 56.8568 95.9596 57.0697C95.9838 57.4652 95.8571 57.7859 95.5795 58.0319C95.3018 58.2754 94.9069 58.4128 94.3948 58.4441ZM98.6065 58.1903C98.1908 58.2157 97.8315 58.1448 97.5286 57.9776C97.2282 57.8077 96.9919 57.5639 96.8198 57.2461C96.6477 56.9284 96.5463 56.5606 96.5157 56.1426C96.4945 55.7139 96.5514 55.3325 96.6861 54.9986C96.8233 54.662 97.0321 54.3935 97.3125 54.1931C97.5928 53.9928 97.9383 53.88 98.349 53.8549C98.7825 53.8284 99.1617 53.9121 99.4865 54.106C99.8139 54.2997 100.042 54.5783 100.171 54.9419L99.5143 55.1844C99.4135 54.9514 99.2615 54.7749 99.0583 54.655C98.8575 54.535 98.6317 54.4827 98.3807 54.498C98.0993 54.5152 97.8714 54.5953 97.6969 54.7383C97.5223 54.8788 97.3977 55.067 97.3231 55.3032C97.2483 55.5367 97.2187 55.8019 97.2343 56.0987C97.2673 56.5547 97.3951 56.9171 97.6176 57.1859C97.8426 57.452 98.1591 57.5726 98.5672 57.5477C98.836 57.5312 99.0553 57.4568 99.2253 57.3242C99.3952 57.1891 99.5186 57.0022 99.5956 56.7634L100.291 56.9003C100.172 57.2917 99.9685 57.5981 99.6793 57.8194C99.39 58.0406 99.0324 58.1643 98.6065 58.1903ZM100.801 53.0904L100.759 52.3907L101.436 52.3493L101.478 53.049L100.801 53.0904ZM101.097 57.9235L100.846 53.8167L101.523 53.7753L101.774 57.8821L101.097 57.9235ZM105.839 57.6335L105.713 55.5763C105.701 55.3811 105.672 55.1946 105.626 55.0168C105.582 54.8388 105.512 54.6815 105.417 54.5448C105.325 54.4054 105.204 54.2983 105.054 54.2235C104.907 54.1485 104.725 54.1177 104.507 54.131C104.337 54.1414 104.184 54.18 104.048 54.2468C103.914 54.311 103.802 54.4044 103.71 54.527C103.618 54.6497 103.55 54.8015 103.505 54.9823C103.463 55.1605 103.449 55.3687 103.463 55.607L103.01 55.4973C102.986 55.0993 103.036 54.754 103.16 54.4614C103.287 54.1661 103.475 53.9345 103.725 53.7666C103.976 53.596 104.278 53.4999 104.631 53.4784C104.897 53.4621 105.126 53.49 105.319 53.5622C105.512 53.6344 105.675 53.7364 105.807 53.8682C105.94 53.9975 106.047 54.1462 106.128 54.3142C106.21 54.4798 106.27 54.6504 106.309 54.8261C106.35 54.9992 106.375 55.1643 106.385 55.3215L106.524 57.5916L105.839 57.6335ZM102.911 57.8125L102.66 53.7058L103.268 53.6686L103.336 54.7675L103.412 54.7628L103.596 57.7707L102.911 57.8125ZM109.292 59.3688C109.077 59.382 108.865 59.3619 108.655 59.3086C108.446 59.2552 108.251 59.1666 108.07 59.0428C107.892 58.9214 107.74 58.7628 107.614 58.5669L108.213 58.202C108.327 58.3961 108.479 58.5331 108.67 58.613C108.863 58.6928 109.059 58.7266 109.256 58.7146C109.517 58.6986 109.731 58.6372 109.898 58.5303C110.064 58.426 110.182 58.2775 110.252 58.0849C110.324 57.8922 110.351 57.6565 110.331 57.3778L110.262 56.2561L110.342 56.2512L110.159 53.2472L110.759 53.2104L111.012 57.3438C111.019 57.4554 111.022 57.5633 111.02 57.6677C111.022 57.772 111.015 57.8754 111.001 57.9781C110.966 58.2728 110.875 58.5188 110.73 58.716C110.584 58.9158 110.39 59.0689 110.147 59.1753C109.904 59.2843 109.619 59.3488 109.292 59.3688ZM109.131 57.5466C108.749 57.57 108.415 57.495 108.129 57.3217C107.844 57.1457 107.616 56.8988 107.446 56.581C107.279 56.2629 107.183 55.8986 107.158 55.4879C107.133 55.0772 107.184 54.7039 107.311 54.3679C107.441 54.0317 107.637 53.7615 107.899 53.5571C108.161 53.3502 108.482 53.2352 108.862 53.2119C109.25 53.1882 109.582 53.2621 109.857 53.4335C110.132 53.605 110.347 53.8502 110.501 54.169C110.658 54.4876 110.749 54.8535 110.774 55.2667C110.799 55.6749 110.753 56.0479 110.637 56.3859C110.522 56.7211 110.339 56.9931 110.087 57.2019C109.835 57.4081 109.517 57.5231 109.131 57.5466ZM109.177 56.9217C109.453 56.9048 109.676 56.825 109.846 56.6823C110.015 56.5371 110.134 56.3453 110.204 56.107C110.275 55.866 110.302 55.5959 110.284 55.2967C110.265 54.9925 110.206 54.7277 110.106 54.5023C110.008 54.2742 109.867 54.1009 109.684 53.9823C109.501 53.8611 109.276 53.8088 109.007 53.8252C108.728 53.8423 108.502 53.9248 108.327 54.0729C108.156 54.2208 108.033 54.4141 107.958 54.6527C107.886 54.8912 107.859 55.155 107.877 55.444C107.895 55.7355 107.955 55.9964 108.058 56.2268C108.161 56.4546 108.306 56.6315 108.492 56.7575C108.68 56.8834 108.908 56.9381 109.177 56.9217ZM115.381 57.1644C114.978 57.189 114.62 57.1219 114.308 56.9629C113.998 56.8012 113.749 56.5657 113.562 56.2565C113.375 55.9448 113.269 55.5747 113.243 55.1463C113.215 54.6976 113.274 54.3047 113.419 53.9676C113.563 53.628 113.777 53.3605 114.06 53.165C114.346 52.9669 114.688 52.8557 115.086 52.8313C115.499 52.806 115.856 52.8796 116.157 53.0521C116.46 53.2244 116.694 53.4823 116.86 53.8258C117.029 54.1692 117.118 54.5849 117.127 55.0729L116.443 55.1147L116.428 54.8714C116.39 54.3673 116.264 53.9972 116.051 53.7608C115.838 53.522 115.536 53.4145 115.146 53.4383C114.728 53.4639 114.418 53.6177 114.216 53.8998C114.014 54.1818 113.929 54.5738 113.96 55.0758C113.989 55.5599 114.121 55.9285 114.356 56.1813C114.59 56.4342 114.909 56.5483 115.312 56.5236C115.583 56.507 115.815 56.4305 116.007 56.294C116.2 56.1576 116.346 55.9692 116.446 55.729L117.11 55.9136C116.973 56.2859 116.749 56.582 116.439 56.802C116.132 57.0192 115.779 57.14 115.381 57.1644ZM113.743 55.2798L113.71 54.7361L116.744 54.5505L116.778 55.0943L113.743 55.2798ZM118.164 56.8797L117.822 51.2899L118.499 51.2485L118.841 56.8383L118.164 56.8797ZM119.762 51.9308L119.72 51.2311L120.396 51.1897L120.439 51.8894L119.762 51.9308ZM120.058 56.7639L119.807 52.6571L120.484 52.6157L120.735 56.7225L120.058 56.7639ZM124.169 56.5125C123.928 56.5755 123.689 56.6092 123.45 56.6137C123.213 56.6205 123 56.5865 122.81 56.5116C122.619 56.4342 122.47 56.3059 122.363 56.1267C122.272 55.9694 122.217 55.8086 122.2 55.6443C122.184 55.4773 122.17 55.2886 122.157 55.0782L121.931 51.3821L122.608 51.3407L122.832 55.0064C122.843 55.1737 122.853 55.3169 122.862 55.4359C122.875 55.5547 122.908 55.6557 122.961 55.739C123.062 55.8956 123.213 55.9819 123.412 55.9977C123.614 56.0133 123.854 55.991 124.133 55.9307L124.169 56.5125ZM121.202 53.1328L121.168 52.5738L123.918 52.4057L123.952 52.9647L121.202 53.1328ZM128.144 56.3838C127.761 56.4072 127.427 56.3322 127.142 56.1589C126.856 55.9829 126.629 55.736 126.459 55.4182C126.292 55.1001 126.196 54.7358 126.171 54.3251C126.146 53.9144 126.197 53.5411 126.324 53.2051C126.453 52.8689 126.649 52.5987 126.912 52.3943C127.174 52.1874 127.495 52.0724 127.875 52.0491C128.263 52.0254 128.595 52.0993 128.87 52.2707C129.145 52.4422 129.36 52.6874 129.514 53.0062C129.671 53.3248 129.762 53.6907 129.787 54.1039C129.812 54.5121 129.766 54.8851 129.65 55.2231C129.535 55.5583 129.352 55.8303 129.1 56.0391C128.848 56.2453 128.53 56.3603 128.144 56.3838ZM128.19 55.7589C128.466 55.742 128.689 55.6622 128.859 55.5195C129.028 55.3743 129.147 55.1825 129.217 54.9442C129.288 54.7032 129.315 54.4331 129.297 54.1339C129.278 53.8297 129.219 53.5649 129.118 53.3395C129.02 53.1114 128.88 52.9381 128.697 52.8195C128.514 52.6983 128.288 52.646 128.02 52.6624C127.741 52.6795 127.514 52.762 127.34 52.9101C127.169 53.058 127.046 53.2513 126.971 53.4899C126.899 53.7284 126.872 53.9922 126.89 54.2812C126.908 54.5727 126.968 54.8336 127.071 55.064C127.174 55.2918 127.319 55.4687 127.504 55.5947C127.693 55.7206 127.921 55.7753 128.19 55.7589ZM129.423 56.1911L129.238 53.1681L129.162 53.1727L129.012 50.7201L129.692 50.6785L130.027 56.1542L129.423 56.1911ZM132.849 56.0961C132.441 56.1211 132.083 56.0501 131.775 55.8832C131.469 55.7161 131.227 55.4739 131.047 55.1567C130.867 54.8394 130.764 54.4691 130.739 54.0458C130.712 53.6148 130.77 53.2321 130.913 52.8977C131.055 52.5633 131.269 52.297 131.555 52.0989C131.84 51.8982 132.183 51.7857 132.584 51.7612C132.994 51.7361 133.354 51.807 133.661 51.9739C133.969 52.1383 134.212 52.3792 134.389 52.6966C134.568 53.0113 134.671 53.3803 134.697 53.8037C134.723 54.2321 134.666 54.6147 134.527 54.9515C134.387 55.2857 134.174 55.5545 133.889 55.7577C133.604 55.9583 133.257 56.0711 132.849 56.0961ZM132.809 55.4535C133.235 55.4274 133.543 55.2661 133.734 54.9694C133.924 54.6728 134.006 54.2989 133.978 53.8476C133.95 53.3837 133.822 53.0213 133.595 52.7604C133.368 52.4969 133.044 52.3781 132.623 52.4038C132.336 52.4213 132.105 52.5004 131.927 52.641C131.75 52.7816 131.623 52.9688 131.546 53.2025C131.468 53.4362 131.439 53.7027 131.457 54.0018C131.485 54.4632 131.615 54.8268 131.845 55.0926C132.075 55.3585 132.396 55.4787 132.809 55.4535ZM135.736 55.805L135.394 50.2152L136.071 50.1738L136.413 55.7636L135.736 55.805ZM139.31 55.7009C138.902 55.7259 138.544 55.6549 138.236 55.488C137.931 55.3209 137.688 55.0788 137.508 54.7615C137.329 54.4443 137.226 54.0739 137.2 53.6506C137.174 53.2196 137.232 52.837 137.374 52.5025C137.516 52.1681 137.73 51.9019 138.016 51.7037C138.301 51.5031 138.644 51.3905 139.045 51.366C139.456 51.3409 139.815 51.4118 140.123 51.5787C140.431 51.7431 140.673 51.984 140.85 52.3014C141.03 52.6161 141.133 52.9851 141.158 53.4085C141.185 53.8369 141.128 54.2195 140.988 54.5563C140.848 54.8906 140.636 55.1593 140.35 55.3625C140.065 55.5632 139.718 55.676 139.31 55.7009ZM139.271 55.0583C139.697 55.0323 140.005 54.8709 140.195 54.5743C140.386 54.2776 140.467 53.9037 140.44 53.4525C140.411 52.9885 140.284 52.6261 140.056 52.3652C139.829 52.1018 139.505 51.9829 139.084 52.0086C138.798 52.0262 138.566 52.1052 138.389 52.2458C138.212 52.3864 138.084 52.5736 138.007 52.8073C137.93 53.0411 137.9 53.3075 137.919 53.6066C137.947 54.068 138.076 54.4316 138.306 54.6975C138.536 54.9633 138.858 55.0836 139.271 55.0583ZM142.121 55.4145L141.87 51.3077L142.475 51.2707L142.536 52.2632L142.429 52.14C142.469 52.0103 142.524 51.8899 142.594 51.7787C142.666 51.6675 142.748 51.5746 142.84 51.5003C142.941 51.4076 143.058 51.3343 143.189 51.2805C143.321 51.2266 143.456 51.1916 143.595 51.1755C143.734 51.1568 143.865 51.1577 143.988 51.1782L144.027 51.8132C143.883 51.7839 143.726 51.7833 143.558 51.8114C143.389 51.8395 143.235 51.9112 143.097 52.0266C142.971 52.1284 142.876 52.2488 142.81 52.3876C142.748 52.5263 142.707 52.6751 142.689 52.834C142.67 52.9903 142.666 53.1496 142.676 53.3119L142.802 55.3729L142.121 55.4145ZM145.999 55.2918C145.692 55.3106 145.432 55.2706 145.217 55.1717C145.005 55.0702 144.84 54.9302 144.722 54.7516C144.607 54.5729 144.542 54.3733 144.529 54.1528C144.516 53.9373 144.545 53.7485 144.616 53.5863C144.69 53.4215 144.799 53.2826 144.942 53.1695C145.085 53.0539 145.259 52.9593 145.463 52.8857C145.655 52.8205 145.87 52.7616 146.108 52.7088C146.349 52.6534 146.593 52.6016 146.839 52.5534C147.086 52.5053 147.316 52.4594 147.529 52.4158L147.295 52.5714C147.28 52.2059 147.19 51.9404 147.025 51.7749C146.862 51.6093 146.593 51.538 146.218 51.5609C145.969 51.5761 145.755 51.6465 145.574 51.772C145.396 51.8949 145.276 52.0854 145.216 52.3436L144.561 52.1889C144.638 51.8229 144.812 51.5285 145.084 51.3058C145.355 51.0831 145.723 50.9576 146.187 50.9292C146.559 50.9064 146.883 50.9541 147.157 51.0722C147.434 51.1875 147.639 51.376 147.772 51.6376C147.838 51.7608 147.883 51.8967 147.908 52.0454C147.932 52.1915 147.949 52.3456 147.959 52.5079L148.114 55.048L147.513 55.0847L147.453 54.0999L147.599 54.1825C147.465 54.5241 147.264 54.7883 146.995 54.9752C146.729 55.1619 146.397 55.2675 145.999 55.2918ZM146.067 54.719C146.311 54.7041 146.518 54.6481 146.691 54.5511C146.865 54.4513 147.003 54.3272 147.103 54.1785C147.203 54.0274 147.264 53.8659 147.287 53.694C147.317 53.5649 147.329 53.423 147.322 53.2682C147.317 53.1107 147.313 52.9901 147.308 52.9065L147.55 52.9947C147.331 53.0386 147.116 53.081 146.905 53.122C146.693 53.1629 146.494 53.2056 146.306 53.2502C146.117 53.2922 145.949 53.3395 145.799 53.3919C145.69 53.4342 145.587 53.4862 145.492 53.5481C145.399 53.6097 145.325 53.6868 145.269 53.7792C145.216 53.869 145.194 53.9785 145.202 54.1078C145.208 54.2193 145.243 54.3241 145.305 54.4221C145.369 54.5199 145.463 54.5969 145.586 54.653C145.712 54.7089 145.872 54.7309 146.067 54.719ZM150.661 55.0029C150.172 55.0328 149.763 54.9509 149.436 54.7572C149.111 54.5608 148.901 54.2721 148.807 53.8911L149.492 53.7385C149.561 53.9582 149.7 54.1278 149.909 54.2474C150.117 54.3644 150.369 54.4139 150.666 54.3957C150.947 54.3785 151.164 54.3067 151.317 54.1804C151.469 54.054 151.539 53.8907 151.527 53.6904C151.52 53.5738 151.488 53.4816 151.43 53.4139C151.372 53.3436 151.258 53.2819 151.087 53.2288C150.918 53.1755 150.664 53.1147 150.324 53.0464C149.955 52.9723 149.664 52.8896 149.45 52.7984C149.236 52.7071 149.08 52.5958 148.983 52.4643C148.886 52.3329 148.831 52.1695 148.819 51.9743C148.804 51.7335 148.858 51.5191 148.978 51.331C149.099 51.1404 149.274 50.9885 149.504 50.8752C149.736 50.7618 150.009 50.6954 150.324 50.6762C150.636 50.6571 150.917 50.6895 151.169 50.7733C151.421 50.8572 151.628 50.9858 151.788 51.1591C151.952 51.3298 152.054 51.5347 152.097 51.7739L151.413 51.9417C151.366 51.7231 151.249 51.556 151.061 51.4403C150.876 51.3244 150.643 51.2712 150.361 51.2808C150.094 51.287 149.88 51.3471 149.719 51.4613C149.561 51.5753 149.487 51.721 149.498 51.8985C149.504 51.9973 149.539 52.0804 149.605 52.1477C149.672 52.2148 149.792 52.2749 149.963 52.328C150.137 52.381 150.387 52.4382 150.714 52.4997C151.082 52.5688 151.373 52.6515 151.588 52.7477C151.805 52.8414 151.962 52.959 152.06 53.1006C152.157 53.2396 152.213 53.4156 152.226 53.6286C152.25 54.0241 152.123 54.3448 151.846 54.5908C151.568 54.8342 151.173 54.9716 150.661 55.0029ZM153.257 54.7334L153.212 53.9881L153.957 53.9426L154.003 54.6879L153.257 54.7334Z" fill="#3D3D3D"/>
<path d="M31.5721 21.7866L24.5552 22.2157C23.8954 22.2561 23.3493 21.7027 23.4571 21.0505C23.6956 19.6082 24.1504 18.2161 24.8063 16.9293C25.6486 15.2765 26.8041 13.8338 28.1988 12.6932L29.8163 11.37C30.258 11.0086 30.3457 10.3676 30.0172 9.90093L29.5767 9.27525C29.2129 8.75836 28.4867 8.65908 27.9975 9.05933L26.5019 10.2828C24.4802 11.9272 22.8718 14.0862 21.8196 16.5681C20.7674 19.05 20.3038 21.7781 20.47 24.5103L20.9915 33.0359C21.0404 33.8363 21.3831 34.5858 21.944 35.1196C22.505 35.6534 23.2383 35.9277 23.9827 35.8821L32.4027 35.3672C33.147 35.3217 33.8415 34.96 34.3332 34.3619C34.825 33.7637 35.0737 32.978 35.0248 32.1776L34.5633 24.6328C34.5144 23.8324 34.1717 23.0829 33.6108 22.5491C33.0498 22.0154 32.3165 21.7411 31.5721 21.7866ZM51.2187 20.585L44.2018 21.0142C43.542 21.0545 42.9959 20.5011 43.1037 19.849C43.3422 18.4066 43.797 17.0145 44.4529 15.7277C45.2953 14.075 46.4507 12.6322 47.8454 11.4917L49.4662 10.1658C49.9065 9.80555 49.9951 9.16694 49.6695 8.70038L49.2345 8.07694C48.8723 7.55807 48.1457 7.45623 47.6549 7.85558L46.1486 9.08122C44.1268 10.7256 42.5184 12.8846 41.4662 15.3665C40.414 17.8484 39.9504 20.5765 40.1167 23.3087L40.6381 31.8343C40.687 32.6347 41.0297 33.3843 41.5906 33.918C42.1516 34.4518 42.8849 34.7261 43.6293 34.6806L52.0493 34.1656C52.7937 34.1201 53.4881 33.7585 53.9798 33.1603C54.4716 32.5622 54.7203 31.7765 54.6714 30.9761L54.2099 23.4313C54.161 22.6309 53.8183 21.8814 53.2574 21.3476C52.6964 20.8138 51.9631 20.5395 51.2187 20.585Z" fill="#00A4F4"/>
</g>
<defs>
<filter id="filter0_d_2001_1050" x="-0.281934" y="0.814973" width="189.678" height="94.1788" filterUnits="userSpaceOnUse" color-interpolation-filters="sRGB">
<feFlood flood-opacity="0" result="BackgroundImageFix"/>
<feColorMatrix in="SourceAlpha" type="matrix" values="0 0 0 0 0 0 0 0 0 0 0 0 0 0 0 0 0 0 127 0" result="hardAlpha"/>
<feOffset dx="1.69909" dy="5.09727"/>
<feGaussianBlur stdDeviation="5.94681"/>
<feComposite in2="hardAlpha" operator="out"/>
<feColorMatrix type="matrix" values="0 0 0 0 0 0 0 0 0 0 0 0 0 0 0 0 0 0 0.06 0"/>
<feBlend mode="normal" in2="BackgroundImageFix" result="effect1_dropShadow_2001_1050"/>
<feBlend mode="normal" in="SourceGraphic" in2="effect1_dropShadow_2001_1050" result="shape"/>
</filter>
<linearGradient id="paint0_linear_2001_1050" x1="9.9126" y1="34.7605" x2="168.118" y2="83.446" gradientUnits="userSpaceOnUse">
<stop stop-color="#FBFDFF"/>
<stop offset="1" stop-color="#E9F6FF"/>
</linearGradient>
<linearGradient id="paint1_linear_2001_1050" x1="9.9126" y1="34.6892" x2="161.467" y2="92.061" gradientUnits="userSpaceOnUse">
<stop stop-color="#95DDFF"/>
<stop offset="1" stop-color="#C5ECFF"/>
</linearGradient>
</defs>
</svg>
