<svg width="193" height="64" viewBox="0 0 193 64" fill="none" xmlns="http://www.w3.org/2000/svg">
<g filter="url(#filter0_d_2001_1077)">
<rect x="19.7874" y="20.6738" width="160.893" height="23.9465" rx="5.44239" transform="rotate(-3.49977 19.7874 20.6738)" fill="white" shape-rendering="crispEdges"/>
<rect x="33.0903" y="24.2217" width="15.2387" height="15.2387" rx="2.17696" transform="rotate(-3.49977 33.0903 24.2217)" fill="#EFF9FF"/>
<path d="M41.3398 34.2954L43.7925 35.4842C44.2417 35.7021 44.7509 35.3082 44.6087 34.8582L43.8268 32.3884L45.8203 30.5703C46.1843 30.2387 45.9428 29.6667 45.4378 29.6602L42.6648 29.6111L41.44 27.3071C41.2194 26.8885 40.5567 26.9291 40.3887 27.3714L39.4535 29.8022L36.7072 30.1889C36.2067 30.2568 36.0368 30.8539 36.4384 31.1387L38.6386 32.7004L38.1635 35.247C38.0772 35.711 38.6307 36.0399 39.05 35.7689L41.3398 34.2954Z" fill="#0069AB"/>
<path d="M56.1068 33.9548L55.7241 27.6968L59.7656 27.4497L59.8257 28.4318L56.8315 28.6149L56.9258 30.1577L59.3986 30.0065L59.4586 30.9886L56.9859 31.1399L57.0941 32.9086L60.0883 32.7255L60.1484 33.7076L56.1068 33.9548ZM62.5114 33.694C62.1725 33.7147 61.8817 33.6685 61.6393 33.5554C61.3966 33.4393 61.2079 33.2779 61.0731 33.0709C60.9412 32.8638 60.8674 32.6313 60.8516 32.3734C60.8378 32.1475 60.863 31.9424 60.9274 31.7581C60.9916 31.571 61.0979 31.4075 61.2463 31.2675C61.3946 31.1247 61.5908 31.0036 61.8348 30.9044C62.0194 30.832 62.2362 30.7635 62.4853 30.6988C62.7372 30.634 63.0097 30.5722 63.3027 30.5136C63.5985 30.4519 63.9071 30.3865 64.2286 30.3174L63.8679 30.5532C63.8509 30.2285 63.7639 29.9939 63.6067 29.8494C63.4496 29.7049 63.1957 29.6434 62.8452 29.6648C62.6337 29.6778 62.4324 29.7395 62.2414 29.8501C62.0505 29.9606 61.9232 30.1385 61.8597 30.3838L60.8853 30.1424C60.9769 29.7384 61.1776 29.4062 61.4874 29.1459C61.8 28.8854 62.2331 28.7382 62.7864 28.7044C63.2036 28.6789 63.5743 28.7246 63.8984 28.8414C64.2254 28.9581 64.4752 29.1667 64.6477 29.4673C64.7418 29.6273 64.8029 29.7937 64.8309 29.9665C64.8587 30.1364 64.8789 30.3227 64.8913 30.5255L65.0675 33.4068L64.1505 33.4629L64.0883 32.4459L64.2505 32.6018C64.0598 32.9537 63.8273 33.218 63.5531 33.3947C63.2816 33.5683 62.9344 33.6681 62.5114 33.694ZM62.669 32.8468C62.9066 32.8323 63.1068 32.7779 63.2697 32.6836C63.4326 32.5893 63.5596 32.4783 63.6506 32.3506C63.7446 32.2227 63.8057 32.1041 63.8339 31.9948C63.8808 31.8581 63.9019 31.7042 63.8973 31.5329C63.8953 31.3585 63.8911 31.2177 63.8845 31.1105L64.2119 31.1865C63.8992 31.255 63.6309 31.3151 63.4073 31.3665C63.1836 31.418 62.9917 31.4661 62.8316 31.5108C62.6713 31.5526 62.5301 31.5976 62.408 31.6458C62.289 31.6967 62.1892 31.7536 62.1087 31.8167C62.0283 31.8798 61.9671 31.9504 61.9254 32.0286C61.8865 32.1066 61.8702 32.1963 61.8764 32.2977C61.8835 32.4136 61.9188 32.5146 61.9822 32.6009C62.0455 32.6843 62.1337 32.7487 62.247 32.7941C62.3632 32.8393 62.5039 32.8569 62.669 32.8468ZM68.019 33.3571C67.4396 33.3926 66.9608 33.291 66.5827 33.0524C66.2046 32.8138 65.962 32.4607 65.8549 31.9933L66.9139 31.7628C66.9831 31.9912 67.116 32.1663 67.3124 32.288C67.5089 32.4098 67.7506 32.4619 68.0374 32.4443C68.2894 32.4289 68.4805 32.3678 68.6107 32.261C68.7435 32.1511 68.8047 32.0092 68.794 31.8353C68.7875 31.7282 68.7562 31.6443 68.7001 31.5837C68.6468 31.5201 68.5328 31.4631 68.3581 31.4127C68.1835 31.3623 67.9166 31.3016 67.5575 31.2305C67.1571 31.1503 66.8374 31.0579 66.5983 30.9533C66.3591 30.8458 66.1837 30.7125 66.0722 30.5536C65.9607 30.3947 65.8978 30.1979 65.8835 29.9632C65.8656 29.6706 65.9267 29.4109 66.067 29.1842C66.2073 28.9576 66.4115 28.7779 66.6796 28.6451C66.9476 28.5095 67.2684 28.4303 67.6422 28.4074C68.0072 28.3851 68.3337 28.4218 68.6217 28.5176C68.9125 28.6133 69.1512 28.7601 69.3378 28.958C69.5244 29.156 69.6465 29.3943 69.7043 29.6728L68.6469 29.9294C68.6086 29.7311 68.5077 29.5788 68.3442 29.4725C68.1835 29.366 67.9738 29.3134 67.7151 29.3146C67.468 29.3152 67.2718 29.365 67.1266 29.464C66.9813 29.5602 66.9135 29.6879 66.9233 29.8473C66.9287 29.9371 66.9639 30.012 67.0286 30.072C67.0933 30.132 67.2189 30.1883 67.4053 30.2409C67.5947 30.2933 67.8747 30.3547 68.2454 30.4251C68.625 30.4978 68.9301 30.5897 69.1608 30.7006C69.3943 30.8085 69.5654 30.9448 69.6744 31.1098C69.7863 31.2745 69.8496 31.4785 69.8645 31.7219C69.8934 32.1941 69.7437 32.5755 69.4154 32.866C69.09 33.1564 68.6246 33.3201 68.019 33.3571ZM71.4761 35.1086L72.2282 32.5719L72.2903 33.3009L69.9359 28.398L71.0267 28.3313L72.7057 31.9625L72.4276 31.9795L73.6124 28.1732L74.6598 28.1091L72.4582 35.0485L71.4761 35.1086ZM76.9004 32.6831L78.4907 26.3045L80.0247 26.2107L82.3804 32.3479L81.3027 32.4138L79.1688 26.9086L79.4035 26.8942L77.9782 32.6172L76.9004 32.6831ZM77.917 31.26L77.8572 30.2822L81.1426 30.0812L81.2024 31.059L77.917 31.26ZM85.4296 32.2923C84.9718 32.3203 84.5813 32.2351 84.258 32.0368C83.9347 31.8385 83.6834 31.5572 83.5041 31.1931C83.3246 30.826 83.2206 30.4092 83.1921 29.9428C83.1632 29.4705 83.2156 29.0428 83.3492 28.6595C83.4828 28.2762 83.6937 27.9681 83.9819 27.7353C84.2728 27.4994 84.6413 27.3678 85.0875 27.3405C85.5308 27.3134 85.9213 27.3986 86.2591 27.596C86.5996 27.7904 86.871 28.0689 87.0735 28.4317C87.2758 28.7915 87.3915 29.209 87.4206 29.6842C87.4493 30.1535 87.3867 30.5805 87.2328 30.965C87.0789 31.3496 86.8479 31.6603 86.5396 31.8973C86.2313 32.1342 85.8613 32.2659 85.4296 32.2923ZM83.285 34.3864L82.8704 27.607L83.7961 27.5503L83.9975 30.8445L84.1279 30.8365L84.3411 34.3218L83.285 34.3864ZM85.2114 31.3635C85.4837 31.3468 85.7041 31.265 85.8725 31.118C86.0409 30.971 86.16 30.7791 86.2299 30.5422C86.3024 30.3022 86.3299 30.0388 86.3124 29.752C86.295 29.468 86.2358 29.2128 86.1347 28.9864C86.0334 28.757 85.8874 28.5798 85.6965 28.4548C85.5055 28.3269 85.2695 28.2716 84.9884 28.2888C84.7219 28.3051 84.5086 28.3835 84.3485 28.5242C84.1883 28.6619 84.0747 28.8492 84.0078 29.0859C83.9435 29.3196 83.9208 29.59 83.9396 29.8971C83.9582 30.2013 84.0137 30.4669 84.1061 30.6939C84.2014 30.9207 84.3385 31.094 84.5174 31.214C84.699 31.3308 84.9304 31.3806 85.2114 31.3635ZM90.7854 31.9648C90.3277 31.9928 89.9372 31.9076 89.6139 31.7093C89.2906 31.5109 89.0393 31.2297 88.86 30.8655C88.6805 30.4984 88.5765 30.0817 88.548 29.6152C88.5191 29.143 88.5714 28.7152 88.705 28.3319C88.8386 27.9486 89.0495 27.6405 89.3377 27.4077C89.6286 27.1718 89.9972 27.0402 90.4433 27.0129C90.8866 26.9858 91.2771 27.071 91.6149 27.2684C91.9554 27.4628 92.2269 27.7414 92.4294 28.1041C92.6317 28.464 92.7474 28.8815 92.7764 29.3566C92.8051 29.826 92.7425 30.2529 92.5887 30.6375C92.4348 31.022 92.2037 31.3328 91.8954 31.5697C91.5871 31.8067 91.2171 31.9384 90.7854 31.9648ZM88.6409 34.0588L88.2263 27.2794L89.1519 27.2228L89.3534 30.5169L89.4838 30.5089L89.6969 33.9943L88.6409 34.0588ZM90.5672 31.0359C90.8396 31.0192 91.0599 30.9374 91.2283 30.7905C91.3968 30.6435 91.5159 30.4515 91.5857 30.2146C91.6583 29.9746 91.6858 29.7112 91.6682 29.4244C91.6509 29.1405 91.5917 28.8853 91.4906 28.6588C91.3893 28.4295 91.2432 28.2523 91.0524 28.1273C90.8614 27.9994 90.6253 27.944 90.3443 27.9612C90.0778 27.9775 89.8645 28.056 89.7044 28.1966C89.5442 28.3344 89.4306 28.5216 89.3636 28.7584C89.2994 28.992 89.2767 29.2624 89.2954 29.5695C89.314 29.8737 89.3696 30.1393 89.462 30.3663C89.5572 30.5931 89.6944 30.7665 89.8733 30.8864C90.0549 31.0033 90.2862 31.0531 90.5672 31.0359ZM95.9588 31.6484C95.4894 31.6771 95.073 31.5964 94.7095 31.4063C94.346 31.2163 94.0559 30.9418 93.8391 30.5828C93.625 30.2208 93.5032 29.7978 93.4736 29.314C93.4435 28.8215 93.5156 28.3838 93.6899 28.0009C93.8642 27.618 94.1203 27.3115 94.4581 27.0815C94.7959 26.8514 95.1951 26.7223 95.6558 26.6942C96.128 26.6653 96.5459 26.7459 96.9094 26.9359C97.2729 27.126 97.5631 27.4019 97.7801 27.7638C97.9969 28.1228 98.1201 28.5442 98.1497 29.028C98.1794 29.5147 98.1072 29.951 97.9331 30.3368C97.7617 30.7195 97.5071 31.0273 97.1695 31.2602C96.8317 31.4903 96.4281 31.6197 95.9588 31.6484ZM95.8987 30.6662C96.3159 30.6407 96.6174 30.4827 96.8032 30.1921C96.989 29.9016 97.0684 29.5362 97.0415 29.0958C97.0137 28.6409 96.8887 28.2851 96.6665 28.0282C96.4441 27.7684 96.1273 27.6511 95.7158 27.6763C95.4348 27.6935 95.2069 27.7714 95.0322 27.91C94.8602 28.0456 94.7377 28.229 94.6646 28.4603C94.5913 28.6887 94.5637 28.9507 94.5818 29.2462C94.6096 29.7011 94.7347 30.0584 94.957 30.3181C95.1821 30.5748 95.496 30.6908 95.8987 30.6662ZM99.007 25.9047L98.9482 24.9443L99.9956 24.8802L100.054 25.8406L99.007 25.9047ZM99.3376 31.3109L99.0506 26.6174L100.098 26.5533L100.385 31.2468L99.3376 31.3109ZM104.933 30.9687L104.795 28.7088C104.786 28.5611 104.766 28.398 104.734 28.2196C104.703 28.0412 104.645 27.8718 104.559 27.7112C104.477 27.5476 104.358 27.4168 104.204 27.3186C104.052 27.2203 103.852 27.1787 103.603 27.1939C103.47 27.2021 103.339 27.2319 103.211 27.2833C103.084 27.3347 102.97 27.4173 102.869 27.5311C102.771 27.6418 102.696 27.7918 102.643 27.9811C102.591 28.1675 102.573 28.4041 102.591 28.691L101.953 28.4639C101.929 28.0641 101.983 27.6972 102.117 27.3633C102.254 27.0293 102.467 26.7574 102.756 26.5478C103.046 26.3352 103.411 26.2155 103.851 26.1886C104.199 26.1673 104.489 26.2077 104.722 26.3098C104.955 26.4119 105.144 26.5486 105.288 26.7201C105.432 26.8916 105.543 27.0768 105.619 27.2757C105.695 27.4746 105.747 27.6648 105.776 27.8462C105.807 28.0246 105.826 28.1703 105.833 28.2833L105.993 30.9038L104.933 30.9687ZM101.678 31.1677L101.391 26.4743L102.325 26.4171L102.414 27.873L102.54 27.8653L102.738 31.1029L101.678 31.1677ZM109.878 30.6662C109.572 30.7431 109.269 30.7863 108.97 30.7959C108.674 30.8082 108.406 30.7708 108.165 30.6837C107.924 30.5938 107.736 30.441 107.601 30.2254C107.481 30.0291 107.412 29.8254 107.393 29.6143C107.374 29.4031 107.357 29.1643 107.341 28.8977L107.091 24.817L108.134 24.7533L108.38 28.7731C108.391 28.9614 108.403 29.1265 108.414 29.2683C108.429 29.4099 108.466 29.5239 108.527 29.6104C108.642 29.7778 108.814 29.8647 109.045 29.871C109.275 29.8772 109.535 29.8497 109.825 29.7884L109.878 30.6662ZM106.369 26.9942L106.319 26.1729L109.591 25.9727L109.642 26.7941L106.369 26.9942ZM116.524 30.2598L116.35 27.4089C116.33 27.0873 116.235 26.8416 116.065 26.6717C115.894 26.4989 115.673 26.4209 115.4 26.4375C115.232 26.4478 115.084 26.4961 114.956 26.5825C114.827 26.666 114.728 26.7854 114.659 26.9409C114.59 27.0934 114.562 27.2725 114.574 27.4782L114.092 27.2329C114.07 26.9086 114.125 26.6188 114.257 26.3635C114.393 26.1051 114.584 25.8986 114.83 25.7439C115.077 25.5893 115.356 25.5024 115.669 25.4832C116.188 25.4515 116.594 25.5837 116.889 25.8798C117.186 26.1728 117.35 26.5728 117.381 27.0798L117.571 30.1957L116.524 30.2598ZM110.879 30.605L110.592 25.9116L111.517 25.8549L111.607 27.3108L111.737 27.3028L111.935 30.5404L110.879 30.605ZM113.708 30.432L113.534 27.5942C113.514 27.2668 113.419 27.0167 113.249 26.8439C113.078 26.6712 112.855 26.5932 112.58 26.61C112.313 26.6263 112.105 26.7307 111.954 26.9231C111.805 27.1154 111.74 27.3579 111.758 27.6505L111.27 27.3663C111.251 27.0621 111.31 26.7837 111.445 26.5311C111.581 26.2785 111.772 26.0749 112.019 25.9202C112.268 25.7625 112.552 25.6739 112.871 25.6544C113.221 25.633 113.518 25.6904 113.762 25.8267C114.009 25.9599 114.198 26.1519 114.33 26.4027C114.464 26.6504 114.541 26.935 114.561 27.2566L114.751 30.3682L113.708 30.432ZM120.77 30.1309C120.295 30.16 119.872 30.0827 119.5 29.8989C119.128 29.7152 118.829 29.447 118.604 29.0944C118.382 28.7415 118.256 28.3276 118.227 27.8524C118.196 27.3396 118.267 26.8889 118.441 26.5002C118.615 26.1086 118.871 25.7978 119.209 25.5678C119.547 25.3377 119.946 25.2086 120.406 25.1804C120.893 25.1507 121.313 25.2399 121.666 25.448C122.022 25.6531 122.295 25.9577 122.485 26.3619C122.676 26.7661 122.768 27.2505 122.762 27.815L121.723 27.8785L121.7 27.4961C121.666 26.9864 121.553 26.6196 121.362 26.3957C121.171 26.1719 120.886 26.0715 120.506 26.0947C120.077 26.121 119.767 26.2737 119.574 26.553C119.382 26.8294 119.301 27.2226 119.332 27.7325C119.361 28.2076 119.488 28.5692 119.713 28.8172C119.937 29.0652 120.25 29.177 120.649 29.1525C120.907 29.1367 121.125 29.0667 121.304 28.9423C121.485 28.8149 121.62 28.6395 121.708 28.416L122.761 28.6656C122.608 29.0996 122.35 29.4455 121.987 29.7032C121.628 29.9607 121.222 30.1033 120.77 30.1309ZM119.02 28.0439L118.972 27.2529L122.201 27.0555L122.249 27.8464L119.02 28.0439ZM126.976 29.6205L126.838 27.3607C126.829 27.213 126.809 27.0499 126.777 26.8715C126.746 26.6931 126.688 26.5237 126.602 26.3631C126.52 26.1995 126.401 26.0686 126.247 25.9705C126.095 25.8721 125.895 25.8306 125.646 25.8458C125.513 25.854 125.382 25.8838 125.254 25.9352C125.127 25.9866 125.013 26.0692 124.912 26.183C124.814 26.2937 124.739 26.4436 124.686 26.633C124.634 26.8194 124.616 27.056 124.634 27.3428L123.996 27.1157C123.972 26.7159 124.026 26.3491 124.16 26.0152C124.297 25.6812 124.51 25.4093 124.799 25.1997C125.089 24.9871 125.454 24.8674 125.894 24.8405C126.242 24.8192 126.532 24.8596 126.765 24.9617C126.998 25.0637 127.187 25.2005 127.331 25.372C127.476 25.5435 127.586 25.7286 127.662 25.9276C127.738 26.1265 127.79 26.3166 127.819 26.4981C127.85 26.6765 127.869 26.8222 127.876 26.9352L128.036 29.5557L126.976 29.6205ZM123.721 29.8196L123.434 25.1261L124.368 25.069L124.457 26.5248L124.583 26.5171L124.781 29.7547L123.721 29.8196ZM131.921 29.3181C131.615 29.395 131.312 29.4382 131.013 29.4478C130.717 29.4601 130.449 29.4227 130.208 29.3356C129.967 29.2457 129.779 29.0929 129.644 28.8772C129.524 28.681 129.455 28.4773 129.436 28.2662C129.417 28.055 129.4 27.8162 129.384 27.5496L129.134 23.4689L130.177 23.4051L130.423 27.425C130.434 27.6133 130.446 27.7784 130.457 27.9202C130.472 28.0618 130.509 28.1758 130.57 28.2622C130.685 28.4297 130.857 28.5166 131.088 28.5228C131.318 28.5291 131.578 28.5016 131.868 28.4402L131.921 29.3181ZM128.412 25.6461L128.362 24.8248L131.634 24.6246L131.685 25.446L128.412 25.6461ZM134.671 29.1499L134.288 22.892L136.769 22.7402C137.192 22.7144 137.544 22.7787 137.824 22.9331C138.106 23.0845 138.321 23.288 138.467 23.5437C138.617 23.7992 138.7 24.0674 138.717 24.3485C138.738 24.6932 138.674 24.9909 138.523 25.2415C138.376 25.4919 138.164 25.6677 137.888 25.7689L137.875 25.5516C138.274 25.6173 138.584 25.7859 138.804 26.0574C139.027 26.3288 139.15 26.6455 139.172 27.0077C139.195 27.3785 139.144 27.7073 139.019 27.9942C138.894 28.281 138.696 28.5112 138.424 28.6848C138.156 28.8583 137.816 28.9576 137.404 28.9828L134.671 29.1499ZM135.671 28.0986L137.213 28.0042C137.396 27.9931 137.557 27.9469 137.698 27.8656C137.838 27.7814 137.945 27.6702 138.018 27.5319C138.093 27.3906 138.126 27.2273 138.114 27.0418C138.104 26.8738 138.058 26.7254 137.978 26.5965C137.897 26.4677 137.785 26.3684 137.641 26.2987C137.497 26.2261 137.328 26.1957 137.134 26.2076L135.561 26.3038L135.671 28.0986ZM135.501 25.326L136.909 25.2399C137.06 25.2306 137.193 25.1934 137.308 25.1282C137.423 25.063 137.512 24.9718 137.575 24.8546C137.637 24.7373 137.664 24.5961 137.654 24.431C137.64 24.2137 137.56 24.0369 137.412 23.9005C137.264 23.7642 137.065 23.7036 136.816 23.7188L135.408 23.8049L135.501 25.326ZM142.235 28.8182C141.765 28.8469 141.349 28.7662 140.985 28.5762C140.622 28.3861 140.332 28.1116 140.115 27.7526C139.901 27.3906 139.779 26.9676 139.75 26.4838C139.719 25.9913 139.791 25.5536 139.966 25.1707C140.14 24.7878 140.396 24.4813 140.734 24.2513C141.072 24.0213 141.471 23.8922 141.932 23.864C142.404 23.8351 142.822 23.9157 143.185 24.1057C143.549 24.2958 143.839 24.5718 144.056 24.9336C144.273 25.2926 144.396 25.714 144.426 26.1978C144.455 26.6846 144.383 27.1208 144.209 27.5066C144.038 27.8893 143.783 28.1971 143.445 28.4301C143.108 28.6601 142.704 28.7895 142.235 28.8182ZM142.175 27.836C142.592 27.8105 142.893 27.6525 143.079 27.362C143.265 27.0714 143.344 26.706 143.317 26.2656C143.29 25.8107 143.165 25.4549 142.942 25.198C142.72 24.9383 142.403 24.821 141.992 24.8461C141.711 24.8633 141.483 24.9412 141.308 25.0799C141.136 25.2154 141.014 25.3989 140.94 25.6302C140.867 25.8586 140.84 26.1205 140.858 26.416C140.886 26.8709 141.011 27.2282 141.233 27.488C141.458 27.7446 141.772 27.8607 142.175 27.836ZM147.608 28.4896C147.138 28.5183 146.722 28.4376 146.358 28.2476C145.995 28.0575 145.705 27.783 145.488 27.424C145.274 27.062 145.152 26.6391 145.122 26.1552C145.092 25.6627 145.164 25.225 145.339 24.8421C145.513 24.4592 145.769 24.1527 146.107 23.9227C146.445 23.6927 146.844 23.5636 147.305 23.5354C147.777 23.5065 148.195 23.5871 148.558 23.7772C148.922 23.9672 149.212 24.2432 149.429 24.605C149.646 24.964 149.769 25.3854 149.798 25.8692C149.828 26.356 149.756 26.7922 149.582 27.178C149.41 27.5607 149.156 27.8685 148.818 28.1015C148.48 28.3315 148.077 28.4609 147.608 28.4896ZM147.547 27.5074C147.965 27.4819 148.266 27.3239 148.452 27.0334C148.638 26.7428 148.717 26.3774 148.69 25.937C148.662 25.4822 148.537 25.1263 148.315 24.8694C148.093 24.6097 147.776 24.4924 147.365 24.5175C147.084 24.5347 146.856 24.6126 146.681 24.7513C146.509 24.8868 146.386 25.0703 146.313 25.3016C146.24 25.53 146.212 25.7919 146.231 26.0874C146.258 26.5423 146.383 26.8996 146.606 27.1594C146.831 27.4161 147.145 27.5321 147.547 27.5074ZM150.891 28.1579L150.517 21.8995L151.577 21.8346L151.811 25.6589L153.389 23.2941L154.697 23.2141L153.02 25.6722L155.141 27.898L153.755 27.9828L151.822 25.8327L151.96 28.0926L150.891 28.1579ZM155.333 22.4599L155.274 21.4995L156.321 21.4354L156.38 22.3958L155.333 22.4599ZM155.663 27.8661L155.376 23.1726L156.423 23.1086L156.711 27.802L155.663 27.8661ZM161.259 27.5239L161.12 25.264C161.111 25.1163 161.091 24.9532 161.06 24.7748C161.029 24.5964 160.97 24.427 160.885 24.2664C160.802 24.1028 160.684 23.972 160.529 23.8738C160.378 23.7755 160.178 23.7339 159.928 23.7492C159.795 23.7573 159.665 23.7871 159.537 23.8385C159.409 23.89 159.295 23.9725 159.194 24.0863C159.097 24.197 159.021 24.347 158.969 24.5363C158.916 24.7227 158.899 24.9593 158.916 25.2462L158.279 25.0191C158.254 24.6193 158.309 24.2524 158.443 23.9185C158.579 23.5845 158.792 23.3126 159.082 23.103C159.371 22.8905 159.736 22.7707 160.177 22.7438C160.524 22.7225 160.815 22.7629 161.048 22.865C161.281 22.9671 161.47 23.1038 161.614 23.2753C161.758 23.4468 161.868 23.632 161.944 23.8309C162.021 24.0298 162.073 24.22 162.101 24.4014C162.133 24.5798 162.152 24.7255 162.159 24.8385L162.319 27.459L161.259 27.5239ZM158.004 27.7229L157.717 23.0295L158.651 22.9723L158.74 24.4282L158.866 24.4205L159.064 27.6581L158.004 27.7229ZM165.562 29.4853C165.301 29.5013 165.048 29.4761 164.802 29.4096C164.56 29.343 164.338 29.2388 164.138 29.097C163.937 28.958 163.77 28.785 163.635 28.5781L164.57 28.0411C164.671 28.2065 164.804 28.3248 164.971 28.396C165.142 28.4699 165.32 28.5012 165.505 28.4899C165.722 28.4766 165.914 28.4256 166.08 28.3369C166.247 28.2512 166.371 28.1301 166.455 27.9738C166.542 27.8202 166.575 27.632 166.556 27.4093L166.474 26.0751L166.604 26.0671L166.386 22.4992L167.303 22.4432L167.604 27.3626C167.611 27.4814 167.612 27.5947 167.607 27.7026C167.605 27.8133 167.596 27.9214 167.579 28.0272C167.528 28.3356 167.41 28.5929 167.225 28.7991C167.04 29.0081 166.804 29.1694 166.518 29.2829C166.234 29.3962 165.915 29.4637 165.562 29.4853ZM165.343 27.4049C164.911 27.4313 164.528 27.3457 164.193 27.1481C163.858 26.9505 163.591 26.6702 163.391 26.3073C163.192 25.9443 163.077 25.5282 163.049 25.0589C163.02 24.5837 163.082 24.1553 163.236 23.7737C163.393 23.389 163.629 23.0794 163.943 22.845C164.257 22.6077 164.636 22.4754 165.079 22.4483C165.525 22.4211 165.905 22.5068 166.22 22.7057C166.537 22.9015 166.786 23.1815 166.965 23.5456C167.144 23.9098 167.248 24.328 167.277 24.8003C167.306 25.2667 167.253 25.693 167.12 26.0792C166.986 26.4625 166.771 26.7723 166.474 27.0086C166.178 27.2448 165.8 27.3769 165.343 27.4049ZM165.446 26.4564C165.727 26.4392 165.949 26.3617 166.112 26.2237C166.278 26.0827 166.393 25.8939 166.457 25.6574C166.524 25.4207 166.548 25.1502 166.53 24.846C166.511 24.5389 166.454 24.2734 166.359 24.0494C166.266 23.8225 166.132 23.6504 165.957 23.5332C165.781 23.4131 165.559 23.3612 165.293 23.3775C165.012 23.3947 164.784 23.4784 164.61 23.6286C164.436 23.7759 164.313 23.9696 164.24 24.2096C164.167 24.4467 164.14 24.7072 164.157 24.9911C164.174 25.2779 164.232 25.5361 164.331 25.7656C164.432 25.9921 164.575 26.168 164.76 26.2934C164.945 26.4187 165.174 26.4731 165.446 26.4564Z" fill="#0069AB"/>
</g>
<defs>
<filter id="filter0_d_2001_1077" x="0.194737" y="-0.032248" width="192.532" height="64.201" filterUnits="userSpaceOnUse" color-interpolation-filters="sRGB">
<feFlood flood-opacity="0" result="BackgroundImageFix"/>
<feColorMatrix in="SourceAlpha" type="matrix" values="0 0 0 0 0 0 0 0 0 0 0 0 0 0 0 0 0 0 127 0" result="hardAlpha"/>
<feOffset dx="-4.35391" dy="4.35391"/>
<feGaussianBlur stdDeviation="7.61935"/>
<feComposite in2="hardAlpha" operator="out"/>
<feColorMatrix type="matrix" values="0 0 0 0 0 0 0 0 0 0 0 0 0 0 0 0 0 0 0.06 0"/>
<feBlend mode="normal" in2="BackgroundImageFix" result="effect1_dropShadow_2001_1077"/>
<feBlend mode="normal" in="SourceGraphic" in2="effect1_dropShadow_2001_1077" result="shape"/>
</filter>
</defs>
</svg>
