<svg width="14" height="15" viewBox="0 0 14 15" fill="none" xmlns="http://www.w3.org/2000/svg">
<path d="M4.01351 1.23898L9.48921 0.904097C11.5752 0.776522 13.3737 2.36773 13.5013 4.45371L13.8362 9.92941C13.8975 10.9322 13.558 11.9182 12.8923 12.6706C12.2266 13.423 11.2893 13.8802 10.2866 13.9415L4.81086 14.2764C2.72487 14.4039 0.926359 12.8127 0.798783 10.7268L0.463897 5.25106C0.402571 4.24832 0.742094 3.26228 1.40778 2.50987C2.07346 1.75746 3.01077 1.30031 4.01351 1.23898ZM3.96287 2.5507C3.34048 2.58876 2.7587 2.87251 2.34552 3.33952C1.93234 3.80654 1.7216 4.41856 1.75966 5.04095L2.1105 10.7774C2.18983 12.0746 3.30353 13.0599 4.60075 12.9806L10.3372 12.6298C10.9596 12.5917 11.5414 12.308 11.9545 11.8409C12.3677 11.3739 12.5785 10.7619 12.5404 10.1395L12.1896 4.40307C12.1102 3.10585 10.9965 2.12053 9.69932 2.19986L3.96287 2.5507ZM10.3132 3.14378C10.5293 3.13056 10.7418 3.20374 10.904 3.3472C11.0661 3.49067 11.1647 3.69267 11.1779 3.90878C11.1911 4.12489 11.1179 4.3374 10.9745 4.49955C10.831 4.66171 10.629 4.76024 10.4129 4.77345C10.1968 4.78667 9.98426 4.7135 9.8221 4.57003C9.65995 4.42656 9.56142 4.22456 9.54821 4.00845C9.53499 3.79234 9.60816 3.57983 9.75163 3.41768C9.89509 3.25552 10.0971 3.157 10.3132 3.14378ZM6.9507 4.33089C7.81513 4.27802 8.66516 4.57071 9.31379 5.14457C9.96241 5.71844 10.3565 6.52646 10.4094 7.3909C10.4622 8.25533 10.1696 9.10536 9.59569 9.75399C9.02183 10.4026 8.2138 10.7967 7.34937 10.8496C6.48494 10.9024 5.63491 10.6098 4.98628 10.0359C4.33765 9.46203 3.94355 8.654 3.89069 7.78957C3.83782 6.92514 4.13051 6.07511 4.70437 5.42648C5.27824 4.77785 6.08626 4.38375 6.9507 4.33089ZM7.03043 5.63463C6.51177 5.66635 6.02696 5.9028 5.68264 6.29198C5.33832 6.68116 5.1627 7.19118 5.19443 7.70984C5.22615 8.2285 5.4626 8.71331 5.85178 9.05763C6.24096 9.40195 6.75098 9.57756 7.26963 9.54584C7.78829 9.51412 8.27311 9.27766 8.61743 8.88849C8.96175 8.49931 9.13736 7.98929 9.10564 7.47063C9.07392 6.95197 8.83746 6.46716 8.44829 6.12284C8.05911 5.77852 7.54909 5.60291 7.03043 5.63463Z" fill="#00A4F4"/>
</svg>
