<svg width="773" height="392" viewBox="0 0 773 392" fill="none" xmlns="http://www.w3.org/2000/svg">
<path d="M771.876 1.54979C737.577 3.64743 702.931 1.02335 673.692 21.8178C655.492 34.7619 644.364 53.8883 634.914 73.6911C622.994 98.6707 615.567 127.238 595.659 146.569C575.751 165.9 550.43 178.39 525.063 185.789C494.324 194.757 463.516 175.849 441.197 156.183C413.768 132.014 393.447 98.172 390.747 61.1045C389.85 48.7892 398.417 34.584 411.467 32.2337C434.012 28.1733 441.478 95.8847 442.848 109.098C444.647 126.451 446.807 145.165 442.411 162.318C433.252 198.056 379.865 213.93 371.752 216.351C363.639 218.772 308.458 236.563 254.684 248.849C200.909 261.134 137.835 259.795 84.7193 280.722C57.7925 291.331 30.0894 309.72 13.7237 333.979C1.17564 352.579 2.17649 368.664 1.62873 390.009" stroke="url(#paint0_linear_2001_973)" stroke-width="2.17696" stroke-linecap="round" stroke-dasharray="6.53 6.53"/>
<defs>
<linearGradient id="paint0_linear_2001_973" x1="-1.4901" y1="335.127" x2="745.351" y2="2.64621" gradientUnits="userSpaceOnUse">
<stop stop-color="#00A3F4" stop-opacity="0.42"/>
<stop offset="0.563099" stop-color="#00A4F4" stop-opacity="0.11"/>
<stop offset="0.887261" stop-color="#00A4F4" stop-opacity="0.6"/>
</linearGradient>
</defs>
</svg>
