<svg width="14" height="14" viewBox="0 0 14 14" fill="none" xmlns="http://www.w3.org/2000/svg">
<path d="M11.7233 0.299547C12.1075 0.27605 12.4853 0.406135 12.7736 0.661186C13.0618 0.916236 13.237 1.27536 13.2605 1.65955L13.8807 11.7997C13.9042 12.1839 13.7741 12.5617 13.519 12.85C13.264 13.1383 12.9048 13.3134 12.5207 13.3369L2.38047 13.9571C1.99628 13.9806 1.61849 13.8505 1.33021 13.5955C1.04193 13.3404 0.866772 12.9813 0.843276 12.5971L0.223116 2.4569C0.199619 2.07271 0.329704 1.69492 0.584755 1.40664C0.839805 1.11836 1.19893 0.943203 1.58312 0.919707L11.7233 0.299547ZM12.0478 11.5483L11.813 7.70955C11.7747 7.08331 11.4892 6.49794 11.0193 6.08221C10.5494 5.66648 9.9336 5.45444 9.30736 5.49274C8.69171 5.53039 7.99769 5.95088 7.68458 6.5371L7.63541 5.73313L5.61461 5.85672L5.98538 11.9191L8.00617 11.7955L7.78779 8.22472C7.75368 7.667 8.17484 7.18323 8.73255 7.14912C9.00148 7.13268 9.26594 7.22374 9.46773 7.40227C9.66953 7.58081 9.79214 7.83219 9.80858 8.10113L10.027 11.6719L12.0478 11.5483ZM3.19109 4.86353C3.51382 4.84379 3.81548 4.69666 4.02972 4.45451C4.24396 4.21236 4.35324 3.89501 4.3335 3.57229C4.2923 2.89869 3.71541 2.38145 3.04181 2.42264C2.71717 2.4425 2.41371 2.5905 2.19819 2.8341C1.98268 3.0777 1.87275 3.39693 1.89261 3.72157C1.93381 4.39517 2.5175 4.90473 3.19109 4.86353ZM4.63818 12.0015L4.26742 5.93911L2.26111 6.06181L2.63187 12.1242L4.63818 12.0015Z" fill="#00A4F4"/>
</svg>
