<svg width="29" height="29" viewBox="0 0 29 29" fill="none" xmlns="http://www.w3.org/2000/svg">
<path d="M1.89257 18.0074C1.81517 16.742 1.98796 15.4736 2.40111 14.2749C2.81426 13.0761 3.45962 11.9704 4.3004 11.0208C5.14117 10.0712 6.16083 9.29635 7.30122 8.74051C8.44167 8.18473 9.68043 7.85876 10.9469 7.7813L11.5362 17.4176L1.89257 18.0074Z" fill="#00A4F4"/>
<path d="M1.89258 18.0068C1.97453 19.3468 2.3051 20.6583 2.86545 21.8666C3.42581 23.0748 4.20493 24.1562 5.15838 25.0488C6.11183 25.9415 7.22086 26.6281 8.42223 27.0693C9.62366 27.5105 10.8938 27.6977 12.1602 27.6202L11.5362 17.417L1.89258 18.0068Z" fill="#2CBEFF"/>
<path d="M21.1798 16.8282C21.2617 18.1681 21.0936 19.5101 20.6847 20.7777C20.2758 22.0452 19.6343 23.2134 18.7965 24.2157C17.959 25.2179 16.9418 26.0345 15.8031 26.6188C14.6645 27.2031 13.4266 27.5437 12.1601 27.6211L11.5361 17.418L21.1798 16.8282Z" fill="#75D4FF"/>
<path d="M26.9 7.94348C27.1489 12.0132 24.0488 15.5144 19.976 15.7635L12.6015 16.2145L12.1509 8.84552C11.902 4.77577 15.0019 1.27463 19.0747 1.02555C23.1475 0.776462 26.6511 3.87373 26.9 7.94348Z" fill="#0084D4"/>
</svg>
