<svg width="26" height="26" viewBox="0 0 26 26" fill="none" xmlns="http://www.w3.org/2000/svg">
<rect x="0.474121" y="2.0752" width="23.9465" height="23.9465" rx="4.35391" transform="rotate(-3.49977 0.474121 2.0752)" fill="#EFF9FF"/>
<path d="M17.0553 19.5489L17.7598 18.7647L14.6842 16.0853L13.9797 16.8694C13.602 17.2899 13.4301 17.7783 13.4641 18.3347C13.4982 18.8911 13.7283 19.355 14.1545 19.7263C14.5807 20.0976 15.0762 20.266 15.6412 20.2314C16.2062 20.1969 16.6775 19.9693 17.0553 19.5489ZM18.6174 17.8101L19.3219 17.026C19.6997 16.6055 19.8716 16.1171 19.8375 15.5607C19.8035 15.0043 19.5734 14.5404 19.1472 14.1691C18.721 13.7978 18.2254 13.6294 17.6605 13.664C17.0955 13.6985 16.6242 13.926 16.2464 14.3465L15.5419 15.1307L18.6174 17.8101ZM9.12691 11.6083L15.6456 11.2096L15.5671 9.92565L9.04838 10.3243L9.12691 11.6083ZM12.1998 8.3595C12.341 8.35087 12.4551 8.29814 12.5421 8.20131C12.6291 8.10449 12.6681 7.98675 12.6592 7.84811C12.6503 7.70947 12.597 7.59738 12.4993 7.51185C12.4016 7.42632 12.2821 7.38788 12.1409 7.39652C11.9996 7.40515 11.8857 7.45787 11.7992 7.55467C11.7126 7.65147 11.6734 7.76921 11.6814 7.90791C11.6894 8.04661 11.7428 8.15891 11.8414 8.24481C11.94 8.33071 12.0594 8.36894 12.1998 8.3595ZM12.287 19.1478L8.29433 19.3919C7.9358 19.4139 7.6213 19.307 7.35084 19.0714C7.08038 18.8358 6.93412 18.5412 6.91206 18.1877L6.36238 9.19981C6.34078 8.84671 6.45007 8.53673 6.69024 8.26987C6.9304 8.00301 7.22952 7.85841 7.58759 7.83609L10.3254 7.66864C10.4431 7.27481 10.6606 6.95005 10.9777 6.69438C11.2949 6.4387 11.6597 6.29825 12.0721 6.27303C12.4846 6.24781 12.864 6.34274 13.2104 6.55783C13.5568 6.77292 13.812 7.06877 13.9759 7.44539L16.7138 7.27794C17.0723 7.25601 17.387 7.36307 17.6579 7.5991C17.9289 7.83513 18.0749 8.1295 18.096 8.48219L18.3365 12.4144C17.8737 12.3353 17.4197 12.3549 16.9746 12.4732C16.5295 12.5915 16.1241 12.7858 15.7585 13.056L15.7241 12.4936L9.20543 12.8923L9.28396 14.1763L14.9715 13.8284L13.7463 15.1922L9.36249 15.4603L9.44101 16.7442L12.6189 16.5499C12.3919 16.9397 12.2457 17.3595 12.1803 17.8094C12.1149 18.2594 12.1507 18.7055 12.2877 19.1477" fill="#0069AB"/>
</svg>
