<svg width="22" height="22" viewBox="0 0 22 22" fill="none" xmlns="http://www.w3.org/2000/svg">
<path d="M4.22034 4.78321C4.89339 5.24621 5.13453 5.19586 6.34242 5.04389L17.7345 3.68682C17.9778 3.67194 17.7611 3.45092 17.6769 3.41671L15.6973 2.21645C15.3192 1.96594 14.8138 1.68823 13.8886 1.81916L2.86917 3.27402C2.46582 3.33429 2.39664 3.53407 2.56836 3.67975L4.22034 4.78321ZM5.06259 7.29938L5.76818 18.8364C5.80606 19.4557 6.1415 19.6694 6.86578 19.5858L19.3876 18.1203C20.1119 18.0366 20.1703 17.607 20.1394 17.1016L19.4385 5.64237C19.4076 5.13635 19.1881 4.87988 18.7447 4.94636L5.66143 6.48495C5.17721 6.55393 5.03229 6.79332 5.06305 7.29623L5.06259 7.29938ZM17.5025 7.15644C17.605 7.50189 17.5451 7.85354 17.1824 7.9182L16.5849 8.0722L17.1057 16.588C16.5949 16.8929 16.1217 17.078 15.7194 17.1026C15.0706 17.1423 14.8965 16.9574 14.3776 16.4069L10.0524 10.6845L10.4053 16.4549L11.6755 16.6509C11.6755 16.6509 11.7181 17.348 10.7079 17.4097L7.92945 17.7359C7.83883 17.5852 7.89614 17.1912 8.17576 17.0992L8.89053 16.8599L8.42403 9.23228L7.40906 9.21626C7.30652 8.8708 7.47888 8.3561 8.04035 8.28302L11.0189 7.90532L15.511 13.6955L15.1841 8.34966L14.1258 8.29693C14.0188 7.87741 14.3209 7.54656 14.7242 7.48566L17.5025 7.15644ZM1.87607 2.28457L13.3397 0.766934C14.745 0.563535 15.1151 0.618996 16.0412 1.18397L19.8697 3.43878C20.5004 3.82628 20.7106 3.93088 20.739 4.39457L21.5703 17.9874C21.6224 18.8401 21.3287 19.3622 20.2046 19.5091L6.87645 21.102C6.03408 21.1929 5.62141 21.1007 5.1419 20.5865L2.22881 17.3804C1.70756 16.7907 1.47677 16.3394 1.44369 15.7985L0.704798 3.71688C0.662164 3.01978 0.951098 2.41985 1.87546 2.28523L1.87607 2.28457Z" fill="black"/>
</svg>
