<svg width="27" height="26" viewBox="0 0 27 26" fill="none" xmlns="http://www.w3.org/2000/svg">
<rect x="0.689697" y="1.50586" width="23.9465" height="23.9465" rx="4.35391" transform="rotate(-3.49977 0.689697 1.50586)" fill="#EFF9FF"/>
<path d="M19.0569 5.83564L6.8887 6.57983C6.05214 6.63099 5.4155 7.33008 5.46467 8.13392L6.15337 19.5198C6.19315 20.1701 7.03462 20.4488 7.48559 19.9591L9.12482 18.1791L19.772 17.5279C20.6086 17.4768 21.2528 16.7772 21.2037 15.9734L20.6673 7.20415C20.6182 6.4003 19.8935 5.78447 19.0569 5.83564ZM16.0061 12.922L15.1138 12.6856L15.1695 13.5966C15.1941 13.9986 14.872 14.3483 14.4537 14.3739L10.9771 14.5866C10.5588 14.6121 10.1964 14.3042 10.1719 13.9023L9.97016 10.6041C9.94558 10.2022 10.2677 9.85244 10.686 9.82685L14.1626 9.61423C14.5809 9.58865 14.9432 9.89656 14.9678 10.2985L15.0235 11.2095L15.8804 10.8661C16.1019 10.6179 16.5228 10.7608 16.5425 11.0824L16.6365 12.6194C16.6566 12.9482 16.2562 13.1414 16.0061 12.922Z" fill="#0069AB"/>
</svg>
