<svg width="26" height="27" viewBox="0 0 26 27" fill="none" xmlns="http://www.w3.org/2000/svg">
<rect x="0.321045" y="2.33789" width="23.9465" height="23.9465" rx="4.35391" transform="rotate(-3.49977 0.321045 2.33789)" fill="#EFF9FF"/>
<path d="M13.7057 10.1922L13.5427 7.52697C13.506 6.92695 12.9899 6.47027 12.3898 6.50697L7.95351 6.77829C7.57721 6.8013 7.16607 7.27607 7.18851 7.64296L7.95263 20.1371C7.97507 20.504 8.44101 20.9251 8.8173 20.9021L18.0521 20.3373C18.4284 20.3143 18.8396 19.8396 18.8171 19.4727L18.3395 11.6638C18.3028 11.0638 17.7867 10.6071 17.1866 10.6438L14.4253 10.8127C14.0518 10.8355 13.728 10.5563 13.7057 10.1922ZM15.9474 15.0247L16.2865 15.3171C16.4739 15.4787 16.491 15.7581 16.3247 15.9413L15.7168 16.6112C15.6139 16.7245 15.6247 16.9002 15.7405 17.0002L16.4304 17.5951C16.6178 17.7567 16.6349 18.0361 16.4686 18.2194L16.1677 18.5509C16.0014 18.7341 15.7148 18.7517 15.5274 18.5901L14.8271 17.9859C14.7153 17.8895 14.547 17.8998 14.4478 18.0091L13.8264 18.6938C13.6601 18.8771 13.3735 18.8946 13.1861 18.733L12.8471 18.4406C12.6597 18.279 12.6426 17.9995 12.8089 17.8163L13.4211 17.1418C13.5239 17.0285 13.5131 16.8527 13.3973 16.7528L11.9141 15.4739C11.8603 15.4275 11.7906 15.404 11.7198 15.4084L11.5717 15.4174C11.4216 15.4266 11.3075 15.5556 11.3167 15.7056L11.381 16.7581C11.3959 17.002 11.2054 17.2119 10.9553 17.2272L10.5026 17.2549C10.2525 17.2702 10.0379 17.0851 10.023 16.8412L9.75302 12.4275C9.73811 12.1836 9.92861 11.9737 10.1787 11.9584L12.4422 11.82C13.4423 11.7589 14.3012 12.4996 14.3609 13.4748C14.3937 14.0121 14.1737 14.5042 13.8038 14.8501C13.6693 14.9758 13.6508 15.1979 13.7902 15.3181L14.3107 15.7671C14.4225 15.8635 14.5908 15.8532 14.69 15.7439L15.3072 15.0638C15.4735 14.8806 15.7601 14.8631 15.9474 15.0247ZM12.5771 14.0269L11.6604 14.0829C11.4167 14.0978 11.207 13.9123 11.1921 13.6686C11.1772 13.4248 11.3627 13.2151 11.6064 13.2002L12.5231 13.1441C12.7727 13.1289 12.9879 13.3145 13.0028 13.5578C13.0177 13.8011 12.8267 14.0116 12.5771 14.0269ZM18.2088 9.52635C18.2145 9.61929 18.1438 9.69923 18.0508 9.70492L15.6841 9.84967C15.084 9.88636 14.5679 9.42969 14.5312 8.82966L14.3922 6.55774C14.3864 6.46242 14.4589 6.38043 14.5543 6.3746C14.7353 6.36352 14.9121 6.42193 15.047 6.53828L17.9823 9.07227C18.1172 9.18862 18.1982 9.35256 18.2088 9.52635Z" fill="#0069AB"/>
</svg>
