<svg width="26" height="26" viewBox="0 0 26 26" fill="none" xmlns="http://www.w3.org/2000/svg">
<rect x="0.627441" y="1.8125" width="23.9465" height="23.9465" rx="4.35391" transform="rotate(-3.49977 0.627441 1.8125)" fill="#EFF9FF"/>
<path d="M10.0654 6.14246C9.69253 6.16526 9.34357 6.32885 9.09531 6.59724C8.84706 6.86563 8.71985 7.21683 8.74166 7.57358C8.76348 7.93033 8.93254 8.2634 9.21165 8.49954C9.49076 8.73567 9.85706 8.85552 10.23 8.83271L15.8541 8.48875C16.0387 8.47745 16.2194 8.43148 16.3859 8.35345C16.5524 8.27542 16.7013 8.16685 16.8242 8.03396C16.9471 7.90107 17.0416 7.74645 17.1023 7.57893C17.163 7.41141 17.1887 7.23427 17.1779 7.05763C17.1671 6.88098 17.12 6.70829 17.0394 6.54942C16.9587 6.39054 16.8461 6.24859 16.7079 6.13167C16.5697 6.01475 16.4086 5.92514 16.2339 5.86798C16.0592 5.81081 15.8742 5.7872 15.6896 5.79849L10.0654 6.14246Z" fill="#0069AB"/>
<path fill-rule="evenodd" clip-rule="evenodd" d="M10.1142 10.1899C9.90404 10.2029 9.69929 10.2607 9.51505 10.3592C9.33082 10.4577 9.17173 10.5944 9.04959 10.7592L7.60276 12.712C7.41676 12.9632 7.32566 13.2674 7.34452 13.5739L7.68338 19.1146C7.7052 19.4714 7.87426 19.8045 8.15337 20.0406C8.43248 20.2767 8.79878 20.3966 9.17168 20.3738L18.3105 19.8149C18.6835 19.7921 19.0324 19.6285 19.2807 19.3601C19.5289 19.0917 19.6561 18.7405 19.6343 18.3837L19.2954 12.8428C19.2768 12.5363 19.1493 12.2456 18.934 12.0189L17.2604 10.257C17.119 10.1082 16.9443 9.99187 16.7493 9.91657C16.5543 9.84127 16.3437 9.8089 16.1334 9.82182L10.1142 10.1899ZM14.0124 12.9894C13.9897 12.6179 13.6565 12.336 13.2682 12.3598C12.88 12.3835 12.5836 12.7039 12.6064 13.0753L12.6886 14.4205L11.2826 14.5065C10.8943 14.5302 10.598 14.8506 10.6207 15.222C10.6434 15.5935 10.9766 15.8753 11.3649 15.8516L12.7709 15.7656L12.8532 17.1107C12.8759 17.4822 13.209 17.764 13.5973 17.7403C13.9856 17.7166 14.2819 17.3962 14.2592 17.0247L14.1769 15.6796L15.583 15.5936C15.9712 15.5699 16.2676 15.2495 16.2448 14.8781C16.2221 14.5066 15.889 14.2247 15.5007 14.2485L14.0947 14.3345L14.0124 12.9894Z" fill="#0069AB"/>
</svg>
