<svg width="21" height="21" viewBox="0 0 21 21" fill="none" xmlns="http://www.w3.org/2000/svg">
<path d="M4.89359 13.2776C4.9276 13.8336 4.73932 14.3804 4.37016 14.7977C4.00101 15.2149 3.48123 15.4685 2.92516 15.5025C2.3691 15.5365 1.82229 15.3482 1.40505 14.979C0.9878 14.6099 0.734288 14.0901 0.700279 13.534C0.666271 12.978 0.854552 12.4312 1.2237 12.0139C1.59286 11.5967 2.11264 11.3432 2.66871 11.3091L4.76536 11.1809L4.89359 13.2776ZM5.94192 13.2135C5.90791 12.6574 6.09619 12.1106 6.46534 11.6933C6.83449 11.2761 7.35428 11.0226 7.91034 10.9886C8.46641 10.9546 9.01321 11.1429 9.43046 11.512C9.84771 11.8812 10.1012 12.4009 10.1352 12.957L10.4558 18.1986C10.4898 18.7547 10.3015 19.3015 9.93237 19.7188C9.56322 20.136 9.04344 20.3895 8.48737 20.4235C7.9313 20.4575 7.3845 20.2693 6.96726 19.9001C6.55001 19.5309 6.2965 19.0112 6.26249 18.4551L5.94192 13.2135ZM7.52566 4.69861C6.96959 4.73262 6.42279 4.54434 6.00554 4.17519C5.5883 3.80604 5.33478 3.28625 5.30077 2.73019C5.26677 2.17412 5.45505 1.62732 5.8242 1.21007C6.19335 0.792822 6.71313 0.53931 7.2692 0.505302C7.82527 0.471293 8.37207 0.659575 8.78932 1.02873C9.20656 1.39788 9.46008 1.91766 9.49408 2.47373L9.62231 4.57038L7.52566 4.69861ZM7.58977 5.74694C8.14584 5.71293 8.69264 5.90121 9.10989 6.27036C9.52714 6.63952 9.78065 7.1593 9.81466 7.71537C9.84866 8.27143 9.66038 8.81824 9.29123 9.23548C8.92208 9.65273 8.4023 9.90624 7.84623 9.94025L2.60459 10.2608C2.04852 10.2948 1.50172 10.1065 1.08448 9.7374C0.667229 9.36824 0.413716 8.84846 0.379708 8.29239C0.3457 7.73633 0.533981 7.18953 0.903133 6.77228C1.27228 6.35503 1.79207 6.10152 2.34813 6.06751L7.58977 5.74694ZM16.1046 7.33068C16.0706 6.77461 16.2589 6.22781 16.628 5.81056C16.9972 5.39332 17.517 5.13981 18.073 5.1058C18.6291 5.07179 19.1759 5.26007 19.5932 5.62922C20.0104 5.99837 20.2639 6.51816 20.2979 7.07422C20.3319 7.63029 20.1437 8.17709 19.7745 8.59434C19.4054 9.01159 18.8856 9.2651 18.3295 9.29911L16.2328 9.42734L16.1046 7.33068ZM15.0563 7.39479C15.0903 7.95086 14.902 8.49766 14.5329 8.91491C14.1637 9.33216 13.6439 9.58567 13.0879 9.61968C12.5318 9.65369 11.985 9.46541 11.5678 9.09625C11.1505 8.7271 10.897 8.20732 10.863 7.65125L10.5424 2.40961C10.5084 1.85355 10.6967 1.30674 11.0658 0.889498C11.435 0.472251 11.9548 0.218739 12.5108 0.18473C13.0669 0.150722 13.6137 0.339004 14.031 0.708155C14.4482 1.07731 14.7017 1.59709 14.7357 2.15316L15.0563 7.39479ZM13.4726 15.9096C14.0286 15.8756 14.5754 16.0639 14.9927 16.4331C15.4099 16.8022 15.6634 17.322 15.6974 17.8781C15.7314 18.4341 15.5432 18.9809 15.174 19.3982C14.8049 19.8154 14.2851 20.0689 13.729 20.103C13.1729 20.137 12.6261 19.9487 12.2089 19.5795C11.7916 19.2104 11.5381 18.6906 11.5041 18.1345L11.3759 16.0379L13.4726 15.9096ZM13.4084 14.8613C12.8524 14.8953 12.3056 14.707 11.8883 14.3379C11.4711 13.9687 11.2176 13.449 11.1836 12.8929C11.1495 12.3368 11.3378 11.79 11.707 11.3728C12.0761 10.9555 12.5959 10.702 13.152 10.668L18.3936 10.3474C18.9497 10.3134 19.4965 10.5017 19.9137 10.8709C20.331 11.24 20.5845 11.7598 20.6185 12.3159C20.6525 12.8719 20.4642 13.4187 20.0951 13.836C19.7259 14.2532 19.2061 14.5067 18.6501 14.5407L13.4084 14.8613Z" fill="black"/>
</svg>
