<svg width="69" height="68" viewBox="0 0 69 68" fill="none" xmlns="http://www.w3.org/2000/svg">
<g opacity="0.7">
<path d="M44.4777 5.35648C43.1711 6.11045 41.5052 5.73086 40.6529 4.43487C39.8969 3.13299 40.2785 1.47265 41.5793 0.622737C42.0489 0.401427 42.5185 0.180119 43.0057 0.246616C43.595 0.403162 44.0881 0.565595 44.5812 0.728028C44.8817 0.902236 45.1881 1.17238 45.4041 1.54435C46.166 2.94216 45.7844 4.6025 44.4777 5.35648Z" fill="url(#paint0_linear_2001_967)"/>
<path d="M46.2281 13.4348C45.4721 12.133 45.8537 10.4726 47.1545 9.62271C48.4612 8.86873 50.1271 9.24832 50.9794 10.5443C51.7354 11.8462 51.3538 13.5065 50.053 14.3564C48.7522 15.2064 46.9841 14.7367 46.2281 13.4348Z" fill="url(#paint1_linear_2001_967)"/>
<path d="M51.8033 22.4337C51.0473 21.1318 51.4289 19.4714 52.7297 18.6215C54.0364 17.8676 55.7023 18.2471 56.5545 19.5431C57.3105 20.845 56.929 22.5054 55.6281 23.3553C54.2252 24.1151 52.5593 23.7355 51.8033 22.4337Z" fill="url(#paint2_linear_2001_967)"/>
<path d="M57.3786 31.4334C56.6225 30.1315 57.0041 28.4712 58.3049 27.6213C59.6116 26.8673 61.2775 27.2469 62.1298 28.5429C62.8858 29.8448 62.5042 31.5051 61.2034 32.355C59.8005 33.1149 58.1346 32.7353 57.3786 31.4334Z" fill="url(#paint3_linear_2001_967)"/>
<path d="M62.8516 40.3435C62.0956 39.0416 62.4771 37.3813 63.778 36.5314C65.0846 35.7774 66.7505 36.157 67.6028 37.453C67.8188 37.8249 67.9385 38.2028 67.9561 38.4906C67.8951 39.0721 67.7319 39.5635 67.6708 40.145C67.4055 40.5465 67.1402 40.9479 66.6706 41.1692C65.3697 42.0191 63.7039 41.6395 62.8516 40.3435Z" fill="url(#paint4_linear_2001_967)"/>
<path d="M51.4525 4.06285C51.4467 3.96691 51.3445 3.87686 51.3445 3.87686C52.144 4.30944 52.9493 4.83795 53.7547 5.36646C52.8824 5.32352 51.9867 4.89683 51.4525 4.06285Z" fill="url(#paint5_linear_2001_967)"/>
<path d="M60.8468 13.8888C59.5401 14.6428 57.8742 14.2632 57.0219 12.9672C56.2659 11.6653 56.6475 10.005 57.9483 9.1551C58.0387 9.05327 58.135 9.04739 58.2312 9.0415C59.4686 10.3139 60.6097 11.5922 61.6662 13.0683C61.4913 13.3679 61.1238 13.6793 60.8468 13.8888Z" fill="url(#paint6_linear_2001_967)"/>
<path d="M66.3255 22.8942C65.0188 23.6482 63.353 23.2687 62.5007 21.9727C61.7447 20.6708 62.1263 19.0104 63.4271 18.1605C63.8004 17.945 64.1796 17.8257 64.5647 17.8021C65.3383 19.3918 66.0156 20.9874 66.6026 22.6848C66.5122 22.7866 66.4159 22.7924 66.3255 22.8942Z" fill="url(#paint7_linear_2001_967)"/>
<path d="M68.0137 28.3754C68.1687 29.3288 68.2273 30.2882 68.2801 31.1516C68.2743 31.0557 68.1721 30.9656 68.1721 30.9656C67.638 30.1316 67.5793 29.1723 68.0137 28.3754Z" fill="url(#paint8_linear_2001_967)"/>
<path d="M7.80583 15.5915C6.87836 16.226 5.61515 16.1107 4.80394 15.4862C5.77487 13.9824 6.84207 12.4727 8.01141 11.0531C8.31194 11.2273 8.52208 11.5033 8.73222 11.7794C9.48823 13.0813 9.11251 14.8375 7.80583 15.5915Z" fill="url(#paint9_linear_2001_967)"/>
<path d="M14.2106 20.7853C14.9666 22.0872 14.5851 23.7475 13.2842 24.5974C11.9776 25.3514 10.3117 24.9718 9.45941 23.6758C8.7034 22.3739 9.08499 20.7136 10.3858 19.8637C11.6925 19.1097 13.4546 19.4834 14.2106 20.7853Z" fill="url(#paint10_linear_2001_967)"/>
<path d="M19.7859 29.785C20.5419 31.0869 20.1603 32.7472 18.8595 33.5972C17.5528 34.3511 15.8869 33.9715 15.0346 32.6755C14.2786 31.3737 14.6602 29.7133 15.961 28.8634C17.2677 28.1094 18.9336 28.489 19.7859 29.785Z" fill="url(#paint11_linear_2001_967)"/>
<path d="M25.3552 38.6883C26.1112 39.9902 25.7296 41.6505 24.4288 42.5004C23.1221 43.2544 21.4563 42.8748 20.604 41.5788C19.848 40.2769 20.2296 38.6166 21.5304 37.7667C22.837 37.0127 24.5029 37.3923 25.3552 38.6883Z" fill="url(#paint12_linear_2001_967)"/>
<path d="M30.9304 47.688C31.6864 48.9899 31.3049 50.6503 30.0041 51.5002C28.6974 52.2541 27.0315 51.8745 26.1792 50.5785C25.4232 49.2767 25.8048 47.6163 27.1056 46.7664C28.4123 46.0124 30.0782 46.392 30.9304 47.688Z" fill="url(#paint13_linear_2001_967)"/>
<path d="M36.4088 56.6937C37.1648 57.9956 36.7833 59.6559 35.4825 60.5058C34.1758 61.2598 32.5099 60.8802 31.6576 59.5842C30.9016 58.2823 31.2832 56.622 32.584 55.7721C33.9869 55.0122 35.6528 55.3918 36.4088 56.6937Z" fill="url(#paint14_linear_2001_967)"/>
<path d="M38.2555 64.765C39.5622 64.011 41.2281 64.3906 42.0804 65.6866C42.2905 65.9627 42.4102 66.3405 42.4279 66.6283C40.6222 67.1239 38.799 67.3317 36.9758 67.5395C36.8091 66.3942 37.2259 65.3095 38.2555 64.765Z" fill="url(#paint15_linear_2001_967)"/>
<path d="M19.4293 11.3182C20.1853 12.6201 19.8037 14.2804 18.5029 15.1304C17.1962 15.8843 15.5304 15.5047 14.6781 14.2087C13.9221 12.9069 14.3037 11.2465 15.6045 10.3966C17.0074 9.63676 18.6791 10.1123 19.4293 11.3182Z" fill="url(#paint16_linear_2001_967)"/>
<path d="M20.3501 23.2025C19.5941 21.9006 19.9757 20.2403 21.2765 19.3904C22.5832 18.6364 24.2491 19.016 25.1014 20.312C25.8574 21.6139 25.4758 23.2742 24.175 24.1241C22.8683 24.8781 21.1061 24.5044 20.3501 23.2025Z" fill="url(#paint17_linear_2001_967)"/>
<path d="M25.9244 32.2014C25.1684 30.8995 25.5499 29.2392 26.8508 28.3893C28.1574 27.6353 29.8233 28.0149 30.6756 29.3109C31.4316 30.6127 31.05 32.2731 29.7492 33.123C28.3463 33.8828 26.6804 33.5033 25.9244 32.2014Z" fill="url(#paint18_linear_2001_967)"/>
<path d="M31.4938 41.1056C30.7377 39.8037 31.1193 38.1434 32.4201 37.2934C33.7268 36.5395 35.3927 36.9191 36.245 38.215C37.001 39.5169 36.6194 41.1773 35.3186 42.0272C33.9157 42.787 32.2498 42.4075 31.4938 41.1056Z" fill="url(#paint19_linear_2001_967)"/>
<path d="M41.7243 47.2207C42.4803 48.5226 42.0987 50.1829 40.7979 51.0328C39.4913 51.7868 37.8254 51.4072 36.9731 50.1112C36.2171 48.8093 36.5987 47.149 37.8995 46.2991C39.2062 45.5451 40.872 45.9247 41.7243 47.2207Z" fill="url(#paint20_linear_2001_967)"/>
<path d="M47.2027 56.2254C47.9587 57.5273 47.5771 59.1876 46.2763 60.0375C44.9696 60.7915 43.3037 60.4119 42.4514 59.1159C41.6954 57.814 42.077 56.1537 43.3778 55.3038C44.7808 54.5439 46.4467 54.9235 47.2027 56.2254Z" fill="url(#paint21_linear_2001_967)"/>
<path d="M3.67153 39.6289C4.42755 40.9308 4.04595 42.5912 2.74515 43.4411C2.28142 43.7583 1.70967 43.8896 1.22247 43.8231C0.635515 42.1257 0.241107 40.4165 0.0392326 38.6956C1.34591 37.9416 2.92139 38.423 3.67153 39.6289Z" fill="url(#paint22_linear_2001_967)"/>
<path d="M5.51781 47.7011C6.82449 46.9472 8.49037 47.3268 9.34265 48.6228C10.0987 49.9246 9.71707 51.585 8.41627 52.4349C7.4888 53.0694 6.22558 52.954 5.41437 52.3296C5.20423 52.0536 4.98823 51.6816 4.77809 51.4056C4.56796 51.1295 4.44822 50.7517 4.23808 50.4757C4.07728 49.4263 4.49407 48.3415 5.51781 47.7011Z" fill="url(#paint23_linear_2001_967)"/>
<path d="M14.8163 57.5328C15.5664 58.7388 15.1848 60.3991 13.9803 61.2431C12.568 60.2703 11.2402 59.0996 9.90662 57.8331C10.1661 57.3357 10.5277 56.9284 10.9914 56.6112C12.2981 55.8572 14.0602 56.2309 14.8163 57.5328Z" fill="url(#paint24_linear_2001_967)"/>
<path d="M2.48543 24.9687C1.92543 25.2918 1.16115 25.4349 0.577684 25.3743C1.04968 23.6121 1.52753 21.9459 2.2942 20.262C2.69687 20.5262 3.09954 20.7905 3.41768 21.2525C4.1737 22.5544 3.7921 24.2147 2.48543 24.9687Z" fill="url(#paint25_linear_2001_967)"/>
<path d="M8.99199 30.2526C9.74801 31.5545 9.36641 33.2148 8.06561 34.0648C6.75893 34.8187 5.09305 34.4391 4.24077 33.1431C3.38849 31.8471 3.86635 30.1809 5.16715 29.331C6.46796 28.4811 8.13971 28.9566 8.99199 30.2526Z" fill="url(#paint26_linear_2001_967)"/>
<path d="M14.5613 39.1556C15.3173 40.4575 14.9357 42.1179 13.6349 42.9678C12.3283 43.7217 10.6624 43.3422 9.81009 42.0462C9.05407 40.7443 9.43566 39.0839 10.7365 38.234C12.0431 37.4801 13.709 37.8596 14.5613 39.1556Z" fill="url(#paint27_linear_2001_967)"/>
<path d="M20.0407 48.1613C20.7967 49.4631 20.4151 51.1235 19.1143 51.9734C17.8076 52.7274 16.1417 52.3478 15.2894 51.0518C14.5334 49.7499 14.915 48.0896 16.2158 47.2397C17.6188 46.4798 19.2846 46.8594 20.0407 48.1613Z" fill="url(#paint28_linear_2001_967)"/>
<path d="M25.6091 57.0656C26.3651 58.3675 25.9835 60.0278 24.6827 60.8777C23.376 61.6317 21.7102 61.2521 20.8579 59.9561C20.1019 58.6542 20.4835 56.9939 21.7843 56.144C23.0909 55.39 24.859 55.8596 25.6091 57.0656Z" fill="url(#paint29_linear_2001_967)"/>
<path d="M31.1844 66.0643C31.5025 66.5263 31.6281 67.0001 31.5612 67.4857C29.7204 67.4057 27.9641 67.1279 26.1961 66.6583C26.3534 66.0709 26.7995 65.4658 27.3595 65.1427C28.6662 64.3887 30.4284 64.7624 31.1844 66.0643Z" fill="url(#paint30_linear_2001_967)"/>
<path d="M23.8243 5.75255C22.5177 6.50652 20.8518 6.12693 19.9995 4.83094C19.4653 3.99696 19.5029 3.03172 19.8352 2.14475C20.9611 1.59442 22.0928 1.14003 23.3267 0.775686C23.8256 1.03405 24.3304 1.38836 24.6486 1.85037C25.5067 3.2423 25.1251 4.90264 23.8243 5.75255Z" fill="url(#paint31_linear_2001_967)"/>
<path d="M25.5746 13.8309C24.8186 12.529 25.2002 10.8687 26.501 10.0188C27.8077 9.26485 29.4736 9.64444 30.3259 10.9404C31.0819 12.2423 30.7003 13.9026 29.3995 14.7525C28.0928 15.5065 26.421 15.031 25.5746 13.8309Z" fill="url(#paint32_linear_2001_967)"/>
<path d="M31.143 22.7343C30.387 21.4324 30.7686 19.772 32.0694 18.9221C33.3761 18.1682 35.042 18.5478 35.8942 19.8437C36.6503 21.1456 36.2687 22.806 34.9679 23.6559C33.6612 24.4098 31.9953 24.0303 31.143 22.7343Z" fill="url(#paint33_linear_2001_967)"/>
<path d="M36.7183 31.734C35.9622 30.4321 36.3438 28.7718 37.6446 27.9219C38.9513 27.1679 40.6172 27.5475 41.4695 28.8435C42.2255 30.1454 41.8439 31.8057 40.5431 32.6556C39.2364 33.4096 37.4743 33.0359 36.7183 31.734Z" fill="url(#paint34_linear_2001_967)"/>
<path d="M42.2876 40.6382C41.5316 39.3363 41.9132 37.676 43.214 36.8261C44.5207 36.0721 46.1866 36.4517 47.0389 37.7477C47.7949 39.0496 47.4133 40.7099 46.1125 41.5598C44.7154 42.4156 43.0437 41.9401 42.2876 40.6382Z" fill="url(#paint35_linear_2001_967)"/>
<path d="M47.766 49.6429C47.01 48.3411 47.3916 46.6807 48.6924 45.8308C49.9991 45.0768 51.6649 45.4564 52.5172 46.7524C53.2732 48.0543 52.8916 49.7146 51.5908 50.5646C50.2842 51.3185 48.6183 50.9389 47.766 49.6429Z" fill="url(#paint36_linear_2001_967)"/>
<path d="M53.3413 58.6427C52.5853 57.3408 52.9669 55.6805 54.2677 54.8306C55.5744 54.0766 57.2403 54.4562 58.0925 55.7522C58.4166 56.3101 58.548 56.8798 58.487 57.4613C57.6675 58.2818 56.6614 59.21 55.7397 59.9404C54.7712 59.9034 53.8755 59.4767 53.3413 58.6427Z" fill="url(#paint37_linear_2001_967)"/>
<path d="M30.8892 4.35797C30.1332 3.05609 30.5148 1.39575 31.8156 0.545845C33.1222 -0.208129 34.7881 0.17146 35.6404 1.46745C36.3964 2.76933 36.0148 4.42968 34.714 5.27959C33.3111 6.03945 31.6452 5.65985 30.8892 4.35797Z" fill="url(#paint38_linear_2001_967)"/>
<path d="M36.3676 13.3636C35.6116 12.0617 35.9932 10.4014 37.294 9.5515C38.6006 8.79756 40.2665 9.17714 41.1188 10.4731C41.8748 11.775 41.4932 13.4353 40.1924 14.2852C38.8857 15.0392 37.2199 14.6596 36.3676 13.3636Z" fill="url(#paint39_linear_2001_967)"/>
<path d="M41.9369 22.2669C41.1809 20.965 41.5625 19.3047 42.8633 18.4548C44.17 17.7008 45.8359 18.0804 46.6881 19.3764C47.4442 20.6783 47.0626 22.3386 45.7618 23.1885C44.4551 23.9425 42.7892 23.5629 41.9369 22.2669Z" fill="url(#paint40_linear_2001_967)"/>
<path d="M47.5122 31.2667C46.7561 29.9648 47.1377 28.3044 48.4385 27.4545C49.7452 26.7006 51.4111 27.0801 52.2634 28.3761C53.0194 29.678 52.6378 31.3384 51.337 32.1883C50.0303 32.9422 48.2682 32.5685 47.5122 31.2667Z" fill="url(#paint41_linear_2001_967)"/>
<path d="M53.0874 40.2664C52.3314 38.9645 52.713 37.3042 54.0138 36.4543C55.3204 35.7003 56.9863 36.0799 57.8386 37.3759C58.5946 38.6778 58.213 40.3381 56.9122 41.188C55.6055 41.942 53.8375 41.4724 53.0874 40.2664Z" fill="url(#paint42_linear_2001_967)"/>
<path d="M58.6567 49.1697C57.9007 47.8678 58.2823 46.2074 59.5831 45.3575C60.8898 44.6036 62.5557 44.9831 63.408 46.2791C64.164 47.581 63.7824 49.2414 62.4816 50.0913C61.0786 50.8511 59.4127 50.4715 58.6567 49.1697Z" fill="url(#paint43_linear_2001_967)"/>
</g>
<defs>
<linearGradient id="paint0_linear_2001_967" x1="54.7388" y1="15.7443" x2="11.6904" y2="25.16" gradientUnits="userSpaceOnUse">
<stop stop-color="#0179B4"/>
<stop offset="0.954688" stop-color="#88D8FF"/>
</linearGradient>
<linearGradient id="paint1_linear_2001_967" x1="54.7388" y1="15.7443" x2="11.6904" y2="25.16" gradientUnits="userSpaceOnUse">
<stop stop-color="#0179B4"/>
<stop offset="0.954688" stop-color="#88D8FF"/>
</linearGradient>
<linearGradient id="paint2_linear_2001_967" x1="54.7388" y1="15.7443" x2="11.6904" y2="25.16" gradientUnits="userSpaceOnUse">
<stop stop-color="#0179B4"/>
<stop offset="0.954688" stop-color="#88D8FF"/>
</linearGradient>
<linearGradient id="paint3_linear_2001_967" x1="54.7388" y1="15.7443" x2="11.6904" y2="25.16" gradientUnits="userSpaceOnUse">
<stop stop-color="#0179B4"/>
<stop offset="0.954688" stop-color="#88D8FF"/>
</linearGradient>
<linearGradient id="paint4_linear_2001_967" x1="54.7388" y1="15.7443" x2="11.6904" y2="25.16" gradientUnits="userSpaceOnUse">
<stop stop-color="#0179B4"/>
<stop offset="0.954688" stop-color="#88D8FF"/>
</linearGradient>
<linearGradient id="paint5_linear_2001_967" x1="54.7388" y1="15.7443" x2="11.6904" y2="25.16" gradientUnits="userSpaceOnUse">
<stop stop-color="#0179B4"/>
<stop offset="0.954688" stop-color="#88D8FF"/>
</linearGradient>
<linearGradient id="paint6_linear_2001_967" x1="54.7388" y1="15.7443" x2="11.6904" y2="25.16" gradientUnits="userSpaceOnUse">
<stop stop-color="#0179B4"/>
<stop offset="0.954688" stop-color="#88D8FF"/>
</linearGradient>
<linearGradient id="paint7_linear_2001_967" x1="54.7388" y1="15.7443" x2="11.6904" y2="25.16" gradientUnits="userSpaceOnUse">
<stop stop-color="#0179B4"/>
<stop offset="0.954688" stop-color="#88D8FF"/>
</linearGradient>
<linearGradient id="paint8_linear_2001_967" x1="54.7388" y1="15.7443" x2="11.6904" y2="25.16" gradientUnits="userSpaceOnUse">
<stop stop-color="#0179B4"/>
<stop offset="0.954688" stop-color="#88D8FF"/>
</linearGradient>
<linearGradient id="paint9_linear_2001_967" x1="54.7388" y1="15.7443" x2="11.6904" y2="25.16" gradientUnits="userSpaceOnUse">
<stop stop-color="#0179B4"/>
<stop offset="0.954688" stop-color="#88D8FF"/>
</linearGradient>
<linearGradient id="paint10_linear_2001_967" x1="54.7388" y1="15.7443" x2="11.6904" y2="25.16" gradientUnits="userSpaceOnUse">
<stop stop-color="#0179B4"/>
<stop offset="0.954688" stop-color="#88D8FF"/>
</linearGradient>
<linearGradient id="paint11_linear_2001_967" x1="54.7388" y1="15.7443" x2="11.6904" y2="25.16" gradientUnits="userSpaceOnUse">
<stop stop-color="#0179B4"/>
<stop offset="0.954688" stop-color="#88D8FF"/>
</linearGradient>
<linearGradient id="paint12_linear_2001_967" x1="54.7388" y1="15.7443" x2="11.6904" y2="25.16" gradientUnits="userSpaceOnUse">
<stop stop-color="#0179B4"/>
<stop offset="0.954688" stop-color="#88D8FF"/>
</linearGradient>
<linearGradient id="paint13_linear_2001_967" x1="54.7388" y1="15.7443" x2="11.6904" y2="25.16" gradientUnits="userSpaceOnUse">
<stop stop-color="#0179B4"/>
<stop offset="0.954688" stop-color="#88D8FF"/>
</linearGradient>
<linearGradient id="paint14_linear_2001_967" x1="54.7388" y1="15.7443" x2="11.6904" y2="25.16" gradientUnits="userSpaceOnUse">
<stop stop-color="#0179B4"/>
<stop offset="0.954688" stop-color="#88D8FF"/>
</linearGradient>
<linearGradient id="paint15_linear_2001_967" x1="54.7388" y1="15.7443" x2="11.6904" y2="25.16" gradientUnits="userSpaceOnUse">
<stop stop-color="#0179B4"/>
<stop offset="0.954688" stop-color="#88D8FF"/>
</linearGradient>
<linearGradient id="paint16_linear_2001_967" x1="54.7388" y1="15.7443" x2="11.6904" y2="25.16" gradientUnits="userSpaceOnUse">
<stop stop-color="#0179B4"/>
<stop offset="0.954688" stop-color="#88D8FF"/>
</linearGradient>
<linearGradient id="paint17_linear_2001_967" x1="54.7388" y1="15.7443" x2="11.6904" y2="25.16" gradientUnits="userSpaceOnUse">
<stop stop-color="#0179B4"/>
<stop offset="0.954688" stop-color="#88D8FF"/>
</linearGradient>
<linearGradient id="paint18_linear_2001_967" x1="54.7388" y1="15.7443" x2="11.6904" y2="25.16" gradientUnits="userSpaceOnUse">
<stop stop-color="#0179B4"/>
<stop offset="0.954688" stop-color="#88D8FF"/>
</linearGradient>
<linearGradient id="paint19_linear_2001_967" x1="54.7388" y1="15.7443" x2="11.6904" y2="25.16" gradientUnits="userSpaceOnUse">
<stop stop-color="#0179B4"/>
<stop offset="0.954688" stop-color="#88D8FF"/>
</linearGradient>
<linearGradient id="paint20_linear_2001_967" x1="54.7388" y1="15.7443" x2="11.6904" y2="25.16" gradientUnits="userSpaceOnUse">
<stop stop-color="#0179B4"/>
<stop offset="0.954688" stop-color="#88D8FF"/>
</linearGradient>
<linearGradient id="paint21_linear_2001_967" x1="54.7388" y1="15.7443" x2="11.6904" y2="25.16" gradientUnits="userSpaceOnUse">
<stop stop-color="#0179B4"/>
<stop offset="0.954688" stop-color="#88D8FF"/>
</linearGradient>
<linearGradient id="paint22_linear_2001_967" x1="54.7388" y1="15.7443" x2="11.6904" y2="25.16" gradientUnits="userSpaceOnUse">
<stop stop-color="#0179B4"/>
<stop offset="0.954688" stop-color="#88D8FF"/>
</linearGradient>
<linearGradient id="paint23_linear_2001_967" x1="54.7388" y1="15.7443" x2="11.6904" y2="25.16" gradientUnits="userSpaceOnUse">
<stop stop-color="#0179B4"/>
<stop offset="0.954688" stop-color="#88D8FF"/>
</linearGradient>
<linearGradient id="paint24_linear_2001_967" x1="54.7388" y1="15.7443" x2="11.6904" y2="25.16" gradientUnits="userSpaceOnUse">
<stop stop-color="#0179B4"/>
<stop offset="0.954688" stop-color="#88D8FF"/>
</linearGradient>
<linearGradient id="paint25_linear_2001_967" x1="54.7388" y1="15.7443" x2="11.6904" y2="25.16" gradientUnits="userSpaceOnUse">
<stop stop-color="#0179B4"/>
<stop offset="0.954688" stop-color="#88D8FF"/>
</linearGradient>
<linearGradient id="paint26_linear_2001_967" x1="54.7388" y1="15.7443" x2="11.6904" y2="25.16" gradientUnits="userSpaceOnUse">
<stop stop-color="#0179B4"/>
<stop offset="0.954688" stop-color="#88D8FF"/>
</linearGradient>
<linearGradient id="paint27_linear_2001_967" x1="54.7388" y1="15.7443" x2="11.6904" y2="25.16" gradientUnits="userSpaceOnUse">
<stop stop-color="#0179B4"/>
<stop offset="0.954688" stop-color="#88D8FF"/>
</linearGradient>
<linearGradient id="paint28_linear_2001_967" x1="54.7388" y1="15.7443" x2="11.6904" y2="25.16" gradientUnits="userSpaceOnUse">
<stop stop-color="#0179B4"/>
<stop offset="0.954688" stop-color="#88D8FF"/>
</linearGradient>
<linearGradient id="paint29_linear_2001_967" x1="54.7388" y1="15.7443" x2="11.6904" y2="25.16" gradientUnits="userSpaceOnUse">
<stop stop-color="#0179B4"/>
<stop offset="0.954688" stop-color="#88D8FF"/>
</linearGradient>
<linearGradient id="paint30_linear_2001_967" x1="54.7388" y1="15.7443" x2="11.6904" y2="25.16" gradientUnits="userSpaceOnUse">
<stop stop-color="#0179B4"/>
<stop offset="0.954688" stop-color="#88D8FF"/>
</linearGradient>
<linearGradient id="paint31_linear_2001_967" x1="54.7388" y1="15.7443" x2="11.6904" y2="25.16" gradientUnits="userSpaceOnUse">
<stop stop-color="#0179B4"/>
<stop offset="0.954688" stop-color="#88D8FF"/>
</linearGradient>
<linearGradient id="paint32_linear_2001_967" x1="54.7388" y1="15.7443" x2="11.6904" y2="25.16" gradientUnits="userSpaceOnUse">
<stop stop-color="#0179B4"/>
<stop offset="0.954688" stop-color="#88D8FF"/>
</linearGradient>
<linearGradient id="paint33_linear_2001_967" x1="54.7388" y1="15.7443" x2="11.6904" y2="25.16" gradientUnits="userSpaceOnUse">
<stop stop-color="#0179B4"/>
<stop offset="0.954688" stop-color="#88D8FF"/>
</linearGradient>
<linearGradient id="paint34_linear_2001_967" x1="54.7388" y1="15.7443" x2="11.6904" y2="25.16" gradientUnits="userSpaceOnUse">
<stop stop-color="#0179B4"/>
<stop offset="0.954688" stop-color="#88D8FF"/>
</linearGradient>
<linearGradient id="paint35_linear_2001_967" x1="54.7388" y1="15.7443" x2="11.6904" y2="25.16" gradientUnits="userSpaceOnUse">
<stop stop-color="#0179B4"/>
<stop offset="0.954688" stop-color="#88D8FF"/>
</linearGradient>
<linearGradient id="paint36_linear_2001_967" x1="54.7388" y1="15.7443" x2="11.6904" y2="25.16" gradientUnits="userSpaceOnUse">
<stop stop-color="#0179B4"/>
<stop offset="0.954688" stop-color="#88D8FF"/>
</linearGradient>
<linearGradient id="paint37_linear_2001_967" x1="54.7388" y1="15.7443" x2="11.6904" y2="25.16" gradientUnits="userSpaceOnUse">
<stop stop-color="#0179B4"/>
<stop offset="0.954688" stop-color="#88D8FF"/>
</linearGradient>
<linearGradient id="paint38_linear_2001_967" x1="54.7388" y1="15.7443" x2="11.6904" y2="25.16" gradientUnits="userSpaceOnUse">
<stop stop-color="#0179B4"/>
<stop offset="0.954688" stop-color="#88D8FF"/>
</linearGradient>
<linearGradient id="paint39_linear_2001_967" x1="54.7388" y1="15.7443" x2="11.6904" y2="25.16" gradientUnits="userSpaceOnUse">
<stop stop-color="#0179B4"/>
<stop offset="0.954688" stop-color="#88D8FF"/>
</linearGradient>
<linearGradient id="paint40_linear_2001_967" x1="54.7388" y1="15.7443" x2="11.6904" y2="25.16" gradientUnits="userSpaceOnUse">
<stop stop-color="#0179B4"/>
<stop offset="0.954688" stop-color="#88D8FF"/>
</linearGradient>
<linearGradient id="paint41_linear_2001_967" x1="54.7388" y1="15.7443" x2="11.6904" y2="25.16" gradientUnits="userSpaceOnUse">
<stop stop-color="#0179B4"/>
<stop offset="0.954688" stop-color="#88D8FF"/>
</linearGradient>
<linearGradient id="paint42_linear_2001_967" x1="54.7388" y1="15.7443" x2="11.6904" y2="25.16" gradientUnits="userSpaceOnUse">
<stop stop-color="#0179B4"/>
<stop offset="0.954688" stop-color="#88D8FF"/>
</linearGradient>
<linearGradient id="paint43_linear_2001_967" x1="54.7388" y1="15.7443" x2="11.6904" y2="25.16" gradientUnits="userSpaceOnUse">
<stop stop-color="#0179B4"/>
<stop offset="0.954688" stop-color="#88D8FF"/>
</linearGradient>
</defs>
</svg>
