<svg width="21" height="21" viewBox="0 0 21 21" fill="none" xmlns="http://www.w3.org/2000/svg">
<path d="M16.1273 9.1227C12.8247 7.42538 7.48437 7.55206 4.5047 8.68394C4.01588 8.86379 3.49966 8.59547 3.32286 8.15644C3.14302 7.66762 3.41134 7.15139 3.85036 6.9746C7.32189 5.71267 13.1602 5.55553 16.979 7.52118C17.4424 7.74275 17.6283 8.33116 17.4068 8.79454C17.1791 9.15834 16.5907 9.34427 16.1273 9.1227ZM16.1983 11.9173C15.9706 12.2811 15.5316 12.4579 15.1678 12.2303C12.3783 10.7515 8.26464 10.5032 5.18843 11.691C4.79616 11.815 4.33581 11.6432 4.21186 11.2509C4.08791 10.8587 4.25968 10.3983 4.65195 10.2744C8.22003 8.95654 12.7351 9.2302 15.9382 10.9336C16.2461 11.0647 16.4259 11.5535 16.1983 11.9173ZM15.1707 14.7292C14.9898 15.0401 14.6473 15.1611 14.3363 14.9801C11.9076 13.6792 8.95141 13.5601 5.51445 14.57C5.17197 14.6909 4.85797 14.4602 4.74011 14.1675C4.6192 13.8251 4.84991 13.5111 5.14259 13.3932C8.87528 12.3152 12.1831 12.4628 14.8699 13.8979C15.2276 14.026 15.3018 14.4213 15.1707 14.7292ZM9.70936 0.618454C8.40151 0.69844 7.12222 1.03524 5.94453 1.60963C4.76685 2.18402 3.71383 2.98475 2.8456 3.9661C1.09213 5.94802 0.19779 8.54533 0.35933 11.1867C0.520869 13.828 1.72505 16.2969 3.70697 18.0504C4.68832 18.9186 5.83107 19.5851 7.06998 20.0117C8.30888 20.4383 9.61968 20.6167 10.9275 20.5367C13.5688 20.3751 16.0378 19.171 17.7913 17.189C19.5448 15.2071 20.4391 12.6098 20.2776 9.96848C20.1976 8.66063 19.8608 7.38134 19.2864 6.20366C18.712 5.02597 17.9113 3.97295 16.9299 3.10472C15.9486 2.23649 14.8058 1.57005 13.5669 1.14346C12.328 0.716864 11.0172 0.538467 9.70936 0.618454Z" fill="black"/>
</svg>
