<svg width="80" height="27" viewBox="0 0 80 27" fill="none" xmlns="http://www.w3.org/2000/svg">
<path d="M78.0464 1.30664C73.761 1.56873 74.0453 6.21893 69.7599 6.48102C65.4745 6.74311 65.1901 2.09291 60.9047 2.355C56.6192 2.6171 56.9036 7.26729 52.6182 7.52938C48.3328 7.79147 48.0483 3.14128 43.7629 3.40337C39.4775 3.66546 39.7619 8.31566 35.4765 8.57774C31.1911 8.83983 30.9067 4.18964 26.621 4.45174C22.3357 4.71383 22.6201 9.36403 18.3347 9.62611C14.0494 9.8882 13.765 5.238 9.47961 5.50009C5.19389 5.7622 5.47829 10.4124 1.19293 10.6745" stroke="url(#paint0_linear_2001_1246)" stroke-width="1.0988" stroke-miterlimit="10"/>
<path d="M78.5256 9.14746C74.2402 9.40955 74.5246 14.0597 70.2391 14.3218C65.9537 14.5839 65.6693 9.93373 61.3839 10.1958C57.0985 10.4579 57.3829 15.108 53.0974 15.3701C48.812 15.6322 48.5276 10.9821 44.2421 11.2442C39.9567 11.5063 40.2411 16.1564 35.9557 16.4185C31.6704 16.6806 31.386 12.0305 27.1003 12.2926C22.8149 12.5547 23.0993 17.2048 18.814 17.4669C14.5286 17.729 14.2442 13.0788 9.95886 13.3409C5.67314 13.603 5.95753 18.2532 1.67218 18.5152" stroke="url(#paint1_linear_2001_1246)" stroke-width="1.0988" stroke-miterlimit="10"/>
<path d="M78.9998 16.8984C74.7143 17.1605 74.9987 21.8107 70.7133 22.0728C66.4278 22.3348 66.1435 17.6847 61.858 17.9468C57.5726 18.2089 57.857 22.859 53.5715 23.1211C49.2861 23.3832 49.0017 18.7331 44.7163 18.9952C40.4308 19.2573 40.7152 23.9074 36.4299 24.1695C32.1445 24.4316 31.8601 19.7814 27.5744 20.0435C23.289 20.3056 23.5734 24.9558 19.2881 25.2178C15.0027 25.4799 14.7183 20.8298 10.433 21.0919C6.14726 21.354 6.43165 26.0041 2.1463 26.2662" stroke="url(#paint2_linear_2001_1246)" stroke-width="1.0988" stroke-miterlimit="10"/>
<defs>
<linearGradient id="paint0_linear_2001_1246" x1="63.559" y1="4.52646" x2="59.8088" y2="15.9692" gradientUnits="userSpaceOnUse">
<stop stop-color="#0179B4"/>
<stop offset="0.876334" stop-color="#88D8FF"/>
</linearGradient>
<linearGradient id="paint1_linear_2001_1246" x1="64.0382" y1="12.3673" x2="60.2881" y2="23.8099" gradientUnits="userSpaceOnUse">
<stop stop-color="#0179B4"/>
<stop offset="0.876334" stop-color="#88D8FF"/>
</linearGradient>
<linearGradient id="paint2_linear_2001_1246" x1="64.5124" y1="20.1182" x2="60.7622" y2="31.5609" gradientUnits="userSpaceOnUse">
<stop stop-color="#0179B4"/>
<stop offset="0.876334" stop-color="#88D8FF"/>
</linearGradient>
</defs>
</svg>
