<svg width="79" height="26" viewBox="0 0 79 26" fill="none" xmlns="http://www.w3.org/2000/svg">
<path d="M0.344482 4.82129C4.62991 4.5592 4.91435 9.20939 9.19978 8.9473C13.4852 8.68521 13.2008 4.03502 17.4862 3.77293C21.7717 3.51083 22.0561 8.16103 26.3415 7.89894C30.6269 7.63685 30.3426 2.98665 34.628 2.72456C38.9134 2.46247 39.1978 7.11266 43.4832 6.85058C47.7685 6.58849 47.4841 1.93829 51.7698 1.67619C56.0552 1.4141 56.3396 6.06429 60.6249 5.80221C64.9103 5.54012 64.6259 0.889926 68.9113 0.62784C73.197 0.365731 73.4814 5.01593 77.7667 4.75384" stroke="url(#paint0_linear_2001_1242)" stroke-width="1.0988" stroke-miterlimit="10"/>
<path d="M0.824219 12.6631C5.10965 12.401 5.39408 17.0511 9.67951 16.789C13.9649 16.5269 13.6805 11.8768 17.9659 11.6147C22.2514 11.3526 22.5358 16.0028 26.8212 15.7407C31.1066 15.4786 30.8223 10.8284 35.1077 10.5664C39.3931 10.3043 39.6775 14.9544 43.9629 14.6923C48.2483 14.4302 47.9639 9.78009 52.2496 9.51798C56.5349 9.2559 56.8193 13.906 61.1047 13.6439C65.39 13.3819 65.1056 8.73172 69.391 8.46964C73.6767 8.20753 73.9611 12.8577 78.2465 12.5956" stroke="url(#paint1_linear_2001_1242)" stroke-width="1.0988" stroke-miterlimit="10"/>
<path d="M1.2981 20.4131C5.58352 20.151 5.86796 24.8011 10.1534 24.539C14.4388 24.2769 14.1544 19.6268 18.4398 19.3647C22.7253 19.1026 23.0097 23.7528 27.2951 23.4907C31.5805 23.2286 31.2962 18.5784 35.5816 18.3164C39.867 18.0543 40.1514 22.7044 44.4368 22.4423C48.7221 22.1802 48.4377 17.5301 52.7235 17.268C57.0088 17.0059 57.2932 21.656 61.5786 21.3939C65.8639 21.1319 65.5795 16.4817 69.8649 16.2196C74.1506 15.9575 74.435 20.6077 78.7203 20.3456" stroke="url(#paint2_linear_2001_1242)" stroke-width="1.0988" stroke-miterlimit="10"/>
<defs>
<linearGradient id="paint0_linear_2001_1242" x1="15.1163" y1="6.25166" x2="20.233" y2="17.1521" gradientUnits="userSpaceOnUse">
<stop stop-color="#0179B4"/>
<stop offset="0.876334" stop-color="#88D8FF"/>
</linearGradient>
<linearGradient id="paint1_linear_2001_1242" x1="15.596" y1="14.0934" x2="20.7126" y2="24.9938" gradientUnits="userSpaceOnUse">
<stop stop-color="#0179B4"/>
<stop offset="0.876334" stop-color="#88D8FF"/>
</linearGradient>
<linearGradient id="paint2_linear_2001_1242" x1="16.0699" y1="21.8434" x2="21.1865" y2="32.7438" gradientUnits="userSpaceOnUse">
<stop stop-color="#0179B4"/>
<stop offset="0.876334" stop-color="#88D8FF"/>
</linearGradient>
</defs>
</svg>
