<svg width="14" height="10" viewBox="0 0 14 10" fill="none" xmlns="http://www.w3.org/2000/svg">
<path d="M5.76383 6.60858L9.03313 4.53918L5.53602 2.88361L5.76383 6.60858ZM13.0021 1.28663C13.1047 1.57323 13.1873 1.96077 13.2568 2.45504C13.3328 2.94891 13.3786 3.37608 13.4014 3.74858L13.4724 4.26768C13.5555 5.6273 13.5123 6.63321 13.3689 7.28382C13.2401 7.85254 12.8841 8.23574 12.3069 8.42683C12.0054 8.52627 11.4482 8.61643 10.5901 8.70631C9.74528 8.80159 8.9707 8.86766 8.25364 8.91151L7.21945 9.01215C4.48812 9.1792 2.78066 9.18392 2.09861 9.05115C1.50243 8.93183 1.10232 8.59487 0.905185 8.04609C0.802596 7.75948 0.720008 7.37195 0.65052 6.87768C0.574514 6.38381 0.52876 5.95663 0.505978 5.58414L0.434972 5.06503C0.35182 3.70542 0.394989 2.69951 0.538405 2.04889C0.6672 1.48018 1.02326 1.09698 1.60045 0.90589C1.90189 0.806445 2.45909 0.716284 3.31727 0.62641C4.16205 0.531124 4.93663 0.465057 5.65369 0.421203L6.68788 0.320564C9.41921 0.15352 11.1267 0.148798 11.8087 0.281566C12.4049 0.400893 12.805 0.73785 13.0021 1.28663Z" fill="#00A4F4"/>
</svg>
